<?xml version="1.0" encoding="utf-8"?>
<!-- Generator: Adobe Illustrator 16.0.0, SVG Export Plug-In . SVG Version: 6.00 Build 0)  -->
<!DOCTYPE svg PUBLIC "-//W3C//DTD SVG 1.1//EN" "http://www.w3.org/Graphics/SVG/1.1/DTD/svg11.dtd">
<svg version="1.1" id="Layer_1" xmlns="http://www.w3.org/2000/svg" xmlns:xlink="http://www.w3.org/1999/xlink" x="0px" y="0px"
	 width="389.488px" height="102.605px" viewBox="0 0 389.488 102.605" enable-background="new 0 0 389.488 102.605"
	 xml:space="preserve">
<g>
	<g>
		<path fill="#80297F" d="M146.013,45.685l-1.817-4.938h-6.957l-1.815,4.938h-5.004l8.603-22.038h3.666l8.603,22.038H146.013z
			 M141.386,32.557c-0.206-0.582-0.479-1.303-0.652-2.021h-0.067c-0.171,0.719-0.41,1.474-0.616,2.021l-1.475,4.045h4.284
			L141.386,32.557z"/>
		<path fill="#80297F" d="M160.751,46.129c-3.289,0-5.964-1.131-7.473-2.299v-22.55h4.867v9.426
			c0.651-0.517,2.296-1.028,3.907-1.028c4.284,0,7.813,3.049,7.813,7.95C169.868,42.427,166.816,46.129,160.751,46.129z
			 M161.161,34.098c-1.438,0-2.536,0.687-3.016,1.2v5.931c0.514,0.375,1.577,0.752,2.535,0.752c2.57,0,4.184-1.747,4.184-4.012
			C164.863,35.813,163.354,34.098,161.161,34.098z"/>
		<path fill="#80297F" d="M181.932,35.504c-0.311-0.173-0.994-0.376-1.509-0.376c-1.61,0-3.086,0.856-3.086,3.324v7.231H172.3
			V30.158h4.97v3.461h0.034c0.515-2.433,2.331-3.734,4.422-3.734c0.479,0,1.062,0.069,1.439,0.206L181.932,35.504z"/>
		<path fill="#80297F" d="M187.553,28.031c-0.893,0-2.708-1.815-2.708-2.707c0-0.891,1.815-2.673,2.708-2.673
			c0.892,0,2.708,1.782,2.708,2.673C190.261,26.217,188.444,28.031,187.553,28.031z M185.018,45.685V30.157h5.072v15.527H185.018z"
			/>
		<path fill="#80297F" d="M207.568,37.046l-2.229,2.264h-7.609c0.24,1.269,1.955,2.707,4.594,2.707c1.609,0,3.256-0.479,4.283-1.164
			l-0.479,4.317c-1.166,0.618-2.948,1.028-4.936,1.028c-4.729,0-8.534-3.288-8.534-8.362c0-5.003,3.634-8.191,8.089-8.191
			c4.318,0,6.959,2.98,6.959,6.204C207.705,36.222,207.635,36.74,207.568,37.046z M200.746,33.414c-1.473,0-2.707,1.131-3.016,2.538
			h5.244c0-0.104,0.035-0.208,0.035-0.344C203.01,34.545,202.085,33.414,200.746,33.414z"/>
		<path fill="#80297F" d="M219.873,45.685v-9.53c0-1.129-0.756-2.124-2.297-2.124c-1.508,0-2.467,0.96-2.467,2.191v9.463h-5.039
			V30.156h4.627v2.093h0.033c0.619-1.646,2.229-2.571,4.729-2.571c3.396,0,5.449,1.921,5.449,5.21v10.799L219.873,45.685
			L219.873,45.685z"/>
		<path fill="#80297F" d="M239.648,45.685v-1.921h-0.035c-0.854,1.576-2.639,2.363-4.797,2.363c-3.807,0-7.475-2.878-7.475-8.19
			c0-5.005,3.565-8.261,7.885-8.261c1.645,0,3.326,0.549,3.94,1.063v-9.459h4.902v24.4L239.648,45.685L239.648,45.685z
			 M239.169,35.504c-0.479-0.649-1.509-1.406-3.052-1.406c-2.192,0-3.735,1.715-3.735,3.942c0,2.229,1.543,3.941,3.735,3.941
			c1.476,0,2.502-0.787,3.052-1.61V35.504z"/>
		<path fill="#80297F" d="M255.072,46.163c-4.694,0-8.467-3.325-8.467-8.26c0-4.936,3.771-8.26,8.467-8.26
			c4.66,0,8.465,3.322,8.465,8.26C263.537,42.84,259.732,46.163,255.072,46.163z M255.072,34.031c-1.885,0-3.496,1.644-3.496,3.942
			c0,2.296,1.611,3.939,3.496,3.939c1.851,0,3.496-1.645,3.496-3.939C258.568,35.675,256.922,34.031,255.072,34.031z"/>
		<path fill="#80297F" d="M282.32,37.081H279.1v8.604h-5.107V23.819h8.33c3.734,0,7.062,2.501,7.062,6.615
			C289.381,34.545,286.092,37.081,282.32,37.081z M281.566,28.103H279.1v4.9h2.467c1.371,0,2.707-0.754,2.707-2.433
			C284.273,28.924,282.936,28.103,281.566,28.103z"/>
		<path fill="#80297F" d="M302.062,45.685v-2.126h-0.035c-0.615,1.645-2.262,2.57-4.764,2.57c-3.394,0-5.449-1.887-5.449-5.176
			V30.156h5.039v9.53c0,1.129,0.787,2.122,2.33,2.122c1.508,0,2.434-0.993,2.434-2.229v-9.427h5.037v15.529h-4.592V45.685z"/>
		<path fill="#80297F" d="M323.962,37.046l-2.229,2.264h-7.609c0.24,1.269,1.953,2.707,4.595,2.707c1.608,0,3.256-0.479,4.282-1.164
			l-0.479,4.317c-1.166,0.618-2.949,1.028-4.938,1.028c-4.729,0-8.532-3.288-8.532-8.362c0-5.003,3.635-8.191,8.088-8.191
			c4.317,0,6.959,2.98,6.959,6.204C324.102,36.222,324.031,36.74,323.962,37.046z M317.143,33.414c-1.476,0-2.707,1.131-3.017,2.538
			h5.244c0-0.104,0.033-0.208,0.033-0.344C319.404,34.545,318.48,33.414,317.143,33.414z"/>
		<path fill="#80297F" d="M336.096,35.504c-0.308-0.173-0.994-0.376-1.506-0.376c-1.611,0-3.086,0.856-3.086,3.324v7.231h-5.037
			V30.158h4.969v3.461h0.035c0.514-2.433,2.33-3.734,4.42-3.734c0.479,0,1.063,0.069,1.44,0.206L336.096,35.504z"/>
		<path fill="#80297F" d="M349.73,34.272h-4.045v5.758c0,1.337,0.719,1.886,2.057,1.886c0.582,0,0.924-0.033,1.302-0.206
			l-0.445,3.803c-0.479,0.241-1.336,0.412-2.332,0.412c-3.496,0-5.584-1.851-5.584-4.934v-6.717h-2.607v-4.114h2.607v-3.323l5-1.816
			v5.141h5.004L349.73,34.272z"/>
		<path fill="#80297F" d="M363.33,46.369c-0.926-0.206-1.987-0.925-2.397-2.055c-0.687,1.268-2.16,1.884-4.045,1.884
			c-2.744,0-5.176-1.919-5.176-5.139c0-2.848,2.229-4.766,5.313-5.072l3.084-0.312v-0.514c0-0.927-0.754-1.543-2.434-1.543
			c-1.509,0-3.188,0.48-4.318,1.199l-0.891-3.806c1.268-0.821,3.393-1.369,5.448-1.369c4.113,0,7.025,1.887,7.025,5.619v5.072
			c0,1.818,0.688,2.777,1.887,3.222L363.33,46.369z M360.107,38.899l-1.887,0.171c-1.302,0.102-1.886,1.027-1.886,1.953
			c0,0.821,0.619,1.508,1.576,1.508c1.199,0,2.193-0.927,2.193-2.265L360.107,38.899L360.107,38.899z"/>
		<path fill="#80297F" d="M373.576,46.027c-2.123,0-3.664-0.446-4.934-1.097l-0.445-4.455c1.371,0.96,3.152,1.679,4.867,1.679
			c0.924,0,1.508-0.481,1.508-1.062c0-0.65-0.516-0.926-1.406-1.2c-2.981-0.855-4.766-2.363-4.766-5.072
			c0-3.05,2.467-5.002,5.826-5.002c1.922,0,3.805,0.515,4.594,0.927l-0.856,3.7c-0.755-0.41-1.988-0.857-3.222-0.857
			c-0.822,0-1.371,0.379-1.371,0.995c0,0.583,0.41,0.891,1.371,1.131c3.498,0.924,4.935,2.673,4.935,5.278
			C379.678,43.627,377.758,46.027,373.576,46.027z"/>
		<path fill="#D9272E" d="M160.348,79.711c-6.031,0-11.788-4.422-11.788-11.48c0-6.992,5.725-11.445,11.788-11.445
			c6.032,0,11.757,4.422,11.757,11.445S166.415,79.711,160.348,79.711z M160.348,61.547c-3.289,0-6.373,2.674-6.373,6.75
			c0,4.08,3.084,6.752,6.373,6.752c3.257,0,6.376-2.672,6.376-6.752C166.724,64.219,163.604,61.547,160.348,61.547z"/>
		<path fill="#D9272E" d="M183.552,79.642c-1.646,0-3.325-0.516-3.94-1.029v8.5h-4.903V63.67h4.423v1.922h0.033
			c0.856-1.576,2.641-2.365,4.8-2.365c3.804,0,7.471,2.879,7.471,8.193C191.436,76.422,187.871,79.642,183.552,79.642z
			 M182.661,67.611c-1.475,0-2.502,0.789-3.05,1.611v4.867c0.479,0.65,1.508,1.371,3.05,1.371c2.193,0,3.736-1.678,3.736-3.908
			C186.397,69.326,184.854,67.611,182.661,67.611z"/>
		<path fill="#D9272E" d="M208.16,70.56l-2.229,2.264h-7.609c0.242,1.268,1.955,2.707,4.594,2.707c1.611,0,3.257-0.48,4.285-1.164
			l-0.479,4.318c-1.166,0.617-2.947,1.027-4.935,1.027c-4.729,0-8.534-3.289-8.534-8.361c0-5.006,3.633-8.191,8.088-8.191
			c4.317,0,6.957,2.98,6.957,6.205C208.296,69.738,208.23,70.252,208.16,70.56z M201.34,66.927c-1.474,0-2.707,1.131-3.017,2.535
			h5.244c0-0.104,0.033-0.207,0.033-0.342C203.602,68.058,202.678,66.927,201.34,66.927z"/>
		<path fill="#D9272E" d="M220.465,79.199V69.67c0-1.131-0.755-2.125-2.298-2.125c-1.508,0-2.467,0.961-2.467,2.193v9.461h-5.039
			V63.672h4.627v2.09h0.035c0.617-1.645,2.229-2.57,4.73-2.57c3.393,0,5.449,1.922,5.449,5.211v10.797H220.465L220.465,79.199z"/>
		<path fill="#D9272E" d="M231.227,61.547c-0.892,0-2.707-1.814-2.707-2.707s1.815-2.674,2.707-2.674
			c0.891,0,2.709,1.781,2.709,2.674S232.119,61.547,231.227,61.547z M228.691,79.199V63.67h5.072v15.529H228.691L228.691,79.199z"/>
		<path fill="#D9272E" d="M246.753,79.199V69.67c0-1.131-0.754-2.125-2.297-2.125c-1.51,0-2.469,0.961-2.469,2.193v9.461h-5.037
			V63.672h4.625v2.09h0.035c0.617-1.645,2.229-2.57,4.73-2.57c3.393,0,5.448,1.922,5.448,5.211v10.797H246.753L246.753,79.199z"/>
		<path fill="#D9272E" d="M261.73,87.113c-4.523,0-7.537-2.568-7.537-5.826c0-2.363,1.574-3.768,3.187-4.178l-1.986-1.99
			c0.137-0.992,0.994-1.85,1.885-2.227c-1.166-0.721-2.264-2.193-2.264-4.146c0-3.291,2.365-5.588,6.41-5.588
			c0.926,0,1.645,0.139,2.297,0.309c0.686,0.17,1.438,0.273,2.229,0.273c0.855,0,1.746-0.207,2.435-0.516l0.924,3.84
			c-0.48,0.273-1.234,0.514-1.92,0.479c0.174,0.311,0.377,1.031,0.377,1.578c0,2.605-2.056,4.797-5.072,5.004
			c-0.617,0.033-1.029,0.17-1.029,0.582c0,0.172,0.14,0.375,0.412,0.479l2.396,0.857c3.051,1.098,4.696,2.639,4.696,5.482
			C269.169,84.717,266.253,87.113,261.73,87.113z M262.794,79.814l-1.853-0.514c-1.199,0.033-2.088,0.891-2.088,2.021
			c0,1.062,0.924,1.953,2.74,1.953c1.782,0,2.741-0.824,2.741-1.715C264.337,80.842,263.787,80.088,262.794,79.814z M261.424,66.824
			c-1.132,0-1.988,0.855-1.988,1.854c0,1.029,0.856,1.852,1.988,1.852c1.096,0,1.985-0.822,1.985-1.852
			C263.41,67.679,262.587,66.824,261.424,66.824z"/>
		<path fill="#D9272E" d="M286.682,79.199h-7.369V57.332h7.369c6.271,0,11.723,4.111,11.723,10.934
			C298.404,75.049,292.988,79.199,286.682,79.199z M286.169,61.685h-1.714v13.191h1.714c3.771,0,6.889-2.193,6.889-6.58
			C293.057,63.91,289.973,61.685,286.169,61.685z"/>
		<path fill="#D9272E" d="M308.891,79.676c-4.695,0-8.465-3.322-8.465-8.26c0-4.936,3.77-8.26,8.465-8.26
			c4.662,0,8.467,3.324,8.467,8.26C317.357,76.353,313.553,79.676,308.891,79.676z M308.891,67.545
			c-1.885,0-3.494,1.645-3.494,3.939c0,2.299,1.609,3.941,3.494,3.941c1.854,0,3.498-1.643,3.498-3.941
			C312.389,69.189,310.744,67.545,308.891,67.545z"/>
		<path fill="#D9272E" d="M327.674,79.676c-4.695,0-8.466-3.322-8.466-8.26c0-4.936,3.771-8.26,8.466-8.26
			c4.661,0,8.465,3.324,8.465,8.26C336.139,76.353,332.337,79.676,327.674,79.676z M327.674,67.545
			c-1.888,0-3.496,1.645-3.496,3.939c0,2.299,1.608,3.941,3.496,3.941c1.852,0,3.495-1.643,3.495-3.941
			C331.169,69.189,329.525,67.545,327.674,67.545z"/>
		<path fill="#D9272E" d="M348.203,69.019c-0.307-0.174-0.994-0.379-1.508-0.379c-1.611,0-3.084,0.859-3.084,3.324v7.232h-5.037
			V63.67h4.97v3.463h0.032c0.515-2.434,2.33-3.734,4.422-3.734c0.479,0,1.064,0.068,1.441,0.207L348.203,69.019z"/>
		<path fill="#D9272E" d="M356.189,79.539c-2.125,0-3.666-0.443-4.934-1.094l-0.447-4.457c1.371,0.961,3.153,1.68,4.867,1.68
			c0.926,0,1.508-0.48,1.508-1.062c0-0.652-0.515-0.926-1.406-1.199c-2.981-0.857-4.762-2.365-4.762-5.072
			c0-3.051,2.465-5.004,5.823-5.004c1.921,0,3.806,0.514,4.595,0.926l-0.857,3.699c-0.754-0.408-1.987-0.855-3.223-0.855
			c-0.82,0-1.369,0.379-1.369,0.994c0,0.584,0.41,0.893,1.369,1.131c3.496,0.928,4.938,2.674,4.938,5.279
			C362.291,77.142,360.371,79.539,356.189,79.539z"/>
	</g>
	<g>
		<ellipse fill="#80297F" cx="95.079" cy="53.1" rx="2.729" ry="2.65"/>
		<rect x="15.979" y="14.324" opacity="0.8" fill="#5BB3CF" enable-background="new    " width="47.434" height="67.585"/>
		<path fill="#258691" stroke="#FFFFFF" stroke-width="1.62" stroke-miterlimit="10" d="M64.697,81.133H12.656
			c0,0,10.772-8.564,25.466-13.119c15.349-4.754,26.114-3.277,26.114-3.277L64.697,81.133z"/>
		<path fill="#258691" stroke="#FFFFFF" stroke-width="1.62" stroke-miterlimit="10" d="M11.005,81.513h50.806
			c0,0-10.72-8.742-25.468-13.117c-13.938-4.135-24.467-3.279-24.467-3.279L11.005,81.513z"/>
		<path fill="#EB8C23" stroke="#FFFFFF" stroke-width="1.62" stroke-miterlimit="10" d="M36.196,68.332c0,0,3.084,1.098,3.635,2.811
			c0.575,1.801-0.375,3.486-5.469,4.41c-13.451,2.445-16.268,6.092-16.268,6.092h45.373c0,0-2.254-5.908-10.068-9.473
			C44.714,68.207,36.196,68.332,36.196,68.332z"/>
		<polygon fill="none" points="15.568,13.637 15.568,81.91 16.802,81.91 16.802,14.461 62.452,14.461 62.452,81.91 64.099,81.91 
			64.099,13.637 		"/>
		<g>
			<polygon fill="#80297F" points="63.275,82.73 63.275,14.461 16.391,14.461 16.391,82.73 10.634,82.73 10.634,8.704 69.033,8.704 
				69.033,82.73 			"/>
			<path fill="#FFFFFF" d="M68.212,9.525V81.91h-4.113V13.638H15.569v68.27h-4.113V9.525H68.212 M69.854,7.879H68.21H11.456H9.812
				v1.646V81.91v1.643h1.645h4.112h1.646V81.91V15.284h45.238v66.624v1.645h1.646h4.113h1.644v-1.645V9.525L69.854,7.879
				L69.854,7.879z"/>
		</g>
		<g>
			<g>
				<path fill="#FAE30A" d="M41.04,27.546c1.729,0.309,3.264-7.079,1.344-7.871c-0.17-0.053-0.269-0.132-0.577,0
					C40.626,19.945,39.163,27.211,41.04,27.546z"/>
			</g>
			<g>
				<path fill="#FAE30A" d="M33.363,27.738c1.658-0.833-2.057-7.862-3.455-7.295c-0.521,0.221-0.259,1.074-0.215,1.691
					C29.882,24.82,32.016,28.191,33.363,27.738z"/>
			</g>
			<g>
				<path fill="#FAE30A" d="M53.159,28.228c0.319-0.351,0.778-0.782,0.741-1.066c-0.049-0.126-0.19-0.384-0.319-0.526
					c-0.36-0.404-0.742-0.588-1.27-0.294c-0.298,0.211-0.743,0.512-1.709,1.095c-1.477,0.909-3.447,1.789-2.654,3.181
					C48.903,31.623,51.899,29.601,53.159,28.228z"/>
			</g>
			<g>
				<path fill="#FAE30A" d="M29.523,31.768c0.545-1.765-3.295-3.998-5.491-4.607c-0.724-0.205-1.268-0.228-1.418,0.001
					c-0.359,0.523,0.332,1.207,0.916,1.848C25.186,30.837,28.587,32.584,29.523,31.768z"/>
			</g>
			<g>
				<path fill="#FAE30A" d="M58.891,35.798c-0.228-1.561-4.853-0.686-7.097,0.403c-0.338,0.18-0.94,0.447-0.967,0.748
					c0.042,1.161,0.704,1.36,2.163,1.262C54.783,37.978,59.154,36.885,58.891,35.798z"/>
			</g>
			<g>
				<path fill="#FAE30A" d="M28.18,37.143c0.012-2.215-6.523-1.935-7.679-0.192v0.386C21.096,38.642,27.992,39.039,28.18,37.143z"/>
			</g>
			<g>
				<path fill="#FAE30A" d="M54.475,43.668c-1.416-0.973-2.816-2.264-4.667-2.109c-0.396,0.598-0.643,0.83-0.516,1.533
					c1.959,1.518,6.684,4.368,7.103,3.647C57.566,45.073,55.544,44.403,54.475,43.668z"/>
			</g>
			<g>
				<path fill="#FAE30A" d="M24.285,46.092c-0.21,0.343-0.54,0.569-0.329,1.03c0.252,0.416,0.975,0.153,1.465-0.016
					c1.861-0.803,4.438-1.972,3.719-3.248C28.255,42.412,25.515,44.507,24.285,46.092z"/>
			</g>
			<g>
				<path fill="#FAE30A" d="M45.032,46.932c-0.463,0.528-0.246,1.016,0.11,1.973c0.831,2.224,2.809,5.32,3.959,5.128
					c0.479-0.146,0.892-0.363,0.958-0.959c-0.13-0.791-0.876-2.216-1.246-3.159C47.87,47.512,46.492,45.207,45.032,46.932z"/>
			</g>
			<g>
				<path fill="#FAE30A" d="M40.273,48.659c-1.631,0.049-1.681,4.125-0.978,6.438c0.162,0.527,0.291,1.098,0.633,1.248
					c0.376,0.062,0.64-0.156,0.876-0.543C41.87,54.049,41.514,48.656,40.273,48.659z"/>
			</g>
			<g>
				<path fill="#FAE30A" d="M47.669,42.522c1.486-2.087,2.473-5.537,1.049-9.026c-4.25-8.233-18.967,1.136-11.325,8.255
					c2.545,1.572,4.905-0.076,5.858-1.793c1.183-2.128,0.787-5.162-1.73-5.028c-0.535,0.05-1.592,0.065-2.018,0.87
					c-0.701,1.583,2.018,1.849,0.192,2.688c-0.694-0.111-1.368-1.037-1.388-1.703c-0.7-3.115,6.771-6.594,7.913-1.562
					c0.979,4.322-3.565,8.263-6.909,8.64c-8.126,0.913-7.753-7.655-4.03-10.94c2.864-2.526,3.263-2.628,2.688-4.413
					c-1.091-3.06-6.013,1.693-7.88,5.366c-3.002,5.908,1.668,13.463,8.255,13.031C41.862,46.671,45.616,45.405,47.669,42.522z"/>
			</g>
			<g>
				<path fill="#FAE30A" d="M34.513,47.506c-1.881-0.178-4.6,6.054-3.646,6.91C32.369,54.953,36.747,48.389,34.513,47.506z"/>
			</g>
		</g>
		<g>
			<polygon fill="#EB8C23" points="63.48,82.297 63.48,14.537 91.022,7.211 91.022,95.228 			"/>
			<path fill="#FFFFFF" d="M90.405,8.012v86.244L64.098,81.908V15.011L90.405,8.012 M91.641,6.407L90.087,6.82l-26.308,6.999
				l-0.917,0.245v0.947v66.897v0.783l0.709,0.332l26.309,12.35l1.758,0.824v-1.941V8.012V6.407H91.641L91.641,6.407z"/>
		</g>
		<rect x="91.915" y="8.012" fill="#D9272E" width="3.164" height="86.503"/>
		<ellipse fill="#80297F" cx="85.072" cy="53.257" rx="2.888" ry="2.807"/>
	</g>
</g>
</svg>
