<?xml version="1.0" encoding="utf-8"?>
<!-- Generator: Adobe Illustrator 16.0.0, SVG Export Plug-In . SVG Version: 6.00 Build 0)  -->
<!DOCTYPE svg PUBLIC "-//W3C//DTD SVG 1.1//EN" "http://www.w3.org/Graphics/SVG/1.1/DTD/svg11.dtd">
<svg version="1.1" id="Layer_1" xmlns="http://www.w3.org/2000/svg" xmlns:xlink="http://www.w3.org/1999/xlink" x="0px" y="0px"
	 width="389.488px" height="71.061px" viewBox="0 0 389.488 71.061" enable-background="new 0 0 389.488 71.061"
	 xml:space="preserve">
<g>
	<g enable-background="new    ">
		<path fill="#80297F" d="M32.325,24.934h-8.266V2.593h7.319c3.468,0,6.549,2.275,6.549,5.918c0,1.331-0.665,3.012-1.856,3.677
			c1.961,0.631,3.888,2.94,3.888,5.777C39.958,22.308,36.526,24.934,32.325,24.934z M30.539,6.62h-1.611v4.587h1.611
			c1.297,0,2.485-0.665,2.485-2.275C33.024,7.285,31.835,6.62,30.539,6.62z M31.414,15.129h-2.486v5.85h2.486
			c1.646,0,3.327-0.876,3.327-2.906C34.741,16.075,33.095,15.129,31.414,15.129z"/>
		<path fill="#80297F" d="M53.093,24.934v-2.171h-0.035c-0.631,1.681-2.312,2.626-4.868,2.626c-3.467,0-5.567-1.927-5.567-5.288
			V9.071h5.146v9.735c0,1.154,0.807,2.171,2.382,2.171c1.541,0,2.485-1.017,2.485-2.276v-9.63h5.147v15.863H53.093L53.093,24.934z"
			/>
		<path fill="#80297F" d="M63.634,6.899c-0.91,0-2.767-1.855-2.767-2.766c0-0.911,1.855-2.732,2.767-2.732
			c0.91,0,2.768,1.821,2.768,2.732C66.401,5.044,64.544,6.899,63.634,6.899z M61.042,24.934V9.071h5.184v15.863H61.042z"/>
		<path fill="#80297F" d="M75.05,25.564c-3.256-0.14-5.428-1.82-5.428-5.638V0H74.7v19.296c0,1.296,0.736,1.996,2.138,2.102
			L75.05,25.564z"/>
		<path fill="#80297F" d="M90.316,24.934v-1.961h-0.035c-0.875,1.609-2.695,2.416-4.902,2.416c-3.887,0-7.635-2.941-7.635-8.369
			c0-5.113,3.643-8.439,8.055-8.439c1.683,0,3.396,0.561,4.027,1.085V0.001h5.008v24.935L90.316,24.934L90.316,24.934z
			 M89.825,14.534c-0.489-0.666-1.541-1.436-3.116-1.436c-2.24,0-3.816,1.75-3.816,4.025c0,2.276,1.576,4.027,3.816,4.027
			c1.506,0,2.557-0.806,3.116-1.646V14.534z"/>
		<path fill="#80297F" d="M100.789,6.899c-0.91,0-2.768-1.855-2.768-2.766c0-0.911,1.855-2.732,2.768-2.732
			c0.91,0,2.766,1.821,2.766,2.732C103.554,5.044,101.698,6.899,100.789,6.899z M98.196,24.934V9.071h5.185v15.863H98.196z"/>
		<path fill="#80297F" d="M116.651,24.934v-9.735c0-1.155-0.771-2.171-2.346-2.171c-1.541,0-2.521,0.98-2.521,2.241v9.665h-5.147
			V9.071h4.729v2.136h0.034c0.63-1.681,2.276-2.626,4.833-2.626c3.467,0,5.568,1.961,5.568,5.322v11.031H116.651L116.651,24.934z"/>
		<path fill="#80297F" d="M131.956,33.024c-4.622,0-7.702-2.627-7.702-5.954c0-2.416,1.609-3.852,3.256-4.271l-2.031-2.031
			c0.141-1.017,1.016-1.893,1.926-2.276c-1.188-0.734-2.311-2.241-2.311-4.237c0-3.361,2.416-5.708,6.549-5.708
			c0.945,0,1.681,0.141,2.346,0.315c0.701,0.175,1.471,0.279,2.276,0.279c0.876,0,1.786-0.21,2.485-0.524l0.946,3.922
			c-0.49,0.28-1.262,0.525-1.962,0.49c0.175,0.315,0.386,1.051,0.386,1.61c0,2.662-2.102,4.902-5.184,5.112
			c-0.63,0.035-1.051,0.176-1.051,0.596c0,0.176,0.141,0.386,0.421,0.489l2.451,0.876c3.115,1.12,4.798,2.696,4.798,5.604
			C139.556,30.572,136.579,33.024,131.956,33.024z M133.042,25.564l-1.891-0.524c-1.227,0.034-2.137,0.91-2.137,2.065
			c0,1.086,0.944,1.996,2.802,1.996c1.821,0,2.802-0.84,2.802-1.751C134.618,26.615,134.058,25.844,133.042,25.564z M131.642,12.293
			c-1.156,0-2.031,0.875-2.031,1.892c0,1.051,0.875,1.892,2.031,1.892c1.12,0,2.031-0.841,2.031-1.892
			C133.673,13.168,132.832,12.293,131.642,12.293z"/>
		<path fill="#80297F" d="M160.884,25.635c-0.945-0.21-2.031-0.945-2.451-2.102c-0.701,1.295-2.207,1.926-4.133,1.926
			c-2.802,0-5.287-1.961-5.287-5.253c0-2.905,2.274-4.867,5.428-5.183l3.151-0.315v-0.524c0-0.945-0.771-1.575-2.486-1.575
			c-1.541,0-3.257,0.49-4.413,1.226l-0.91-3.888c1.296-0.84,3.467-1.4,5.568-1.4c4.202,0,7.179,1.927,7.179,5.743v5.184
			c0,1.854,0.7,2.837,1.927,3.292L160.884,25.635z M157.592,18.001l-1.928,0.176c-1.329,0.104-1.926,1.051-1.926,1.995
			c0,0.842,0.631,1.541,1.611,1.541c1.226,0,2.241-0.944,2.241-2.312L157.592,18.001L157.592,18.001z"/>
		<path fill="#80297F" d="M182.632,24.934h-8.267V2.593h7.32c3.467,0,6.548,2.275,6.548,5.918c0,1.331-0.665,3.012-1.855,3.677
			c1.961,0.631,3.888,2.94,3.888,5.777C190.266,22.308,186.833,24.934,182.632,24.934z M180.845,6.62h-1.61v4.587h1.61
			c1.297,0,2.485-0.665,2.485-2.275C183.331,7.285,182.142,6.62,180.845,6.62z M181.721,15.129h-2.486v5.85h2.486
			c1.646,0,3.327-0.876,3.327-2.906C185.048,16.075,183.401,15.129,181.721,15.129z"/>
		<path fill="#80297F" d="M207.531,16.109l-2.275,2.312h-7.773c0.244,1.297,1.996,2.768,4.691,2.768c1.645,0,3.326-0.49,4.379-1.19
			l-0.49,4.412c-1.191,0.631-3.012,1.051-5.043,1.051c-4.834,0-8.72-3.361-8.72-8.545c0-5.111,3.712-8.369,8.265-8.369
			c4.412,0,7.107,3.048,7.107,6.339C207.67,15.269,207.602,15.795,207.531,16.109z M200.562,12.397
			c-1.506,0-2.768,1.156-3.082,2.592h5.357c0-0.104,0.035-0.21,0.035-0.351C202.873,13.553,201.928,12.397,200.562,12.397z"/>
		<path fill="#80297F" d="M220.734,13.273h-4.133v5.883c0,1.366,0.734,1.926,2.102,1.926c0.598,0,0.945-0.034,1.33-0.21
			l-0.455,3.889c-0.488,0.244-1.363,0.42-2.381,0.42c-3.572,0-5.709-1.892-5.709-5.043v-6.863h-2.66V9.072h2.66V5.676l5.113-1.855
			v5.253h5.113L220.734,13.273z"/>
		<path fill="#80297F" d="M234.463,13.273h-4.133v5.883c0,1.366,0.734,1.926,2.102,1.926c0.596,0,0.947-0.034,1.332-0.21
			l-0.455,3.889c-0.49,0.244-1.367,0.42-2.381,0.42c-3.572,0-5.709-1.892-5.709-5.043v-6.863h-2.662V9.072h2.662V5.676l5.111-1.855
			v5.253h5.111L234.463,13.273z"/>
		<path fill="#80297F" d="M251.412,16.109l-2.275,2.312h-7.773c0.244,1.297,1.996,2.768,4.691,2.768c1.645,0,3.328-0.49,4.379-1.19
			l-0.49,4.412c-1.191,0.631-3.012,1.051-5.043,1.051c-4.834,0-8.721-3.361-8.721-8.545c0-5.111,3.713-8.369,8.266-8.369
			c4.412,0,7.107,3.048,7.107,6.339C251.551,15.269,251.482,15.795,251.412,16.109z M244.443,12.397
			c-1.506,0-2.768,1.156-3.082,2.592h5.357c0-0.104,0.035-0.21,0.035-0.351C246.754,13.553,245.809,12.397,244.443,12.397z"/>
		<path fill="#80297F" d="M263.809,14.534c-0.314-0.176-1.016-0.386-1.541-0.386c-1.645,0-3.15,0.876-3.15,3.396v7.39h-5.146V9.071
			h5.078v3.537h0.033c0.525-2.487,2.381-3.817,4.52-3.817c0.49,0,1.086,0.07,1.471,0.21L263.809,14.534z"/>
		<path fill="#80297F" d="M280.305,7.04v4.412h6.338v4.553h-6.338v8.931h-5.322V2.594h12.992V7.04H280.305L280.305,7.04z"/>
		<path fill="#80297F" d="M299.701,24.934v-2.171h-0.035c-0.631,1.681-2.311,2.626-4.867,2.626c-3.469,0-5.566-1.927-5.566-5.288
			V9.071h5.146v9.735c0,1.154,0.807,2.171,2.381,2.171c1.541,0,2.484-1.017,2.484-2.276v-9.63h5.148v15.863H299.701L299.701,24.934z
			"/>
		<path fill="#80297F" d="M318.121,13.273h-4.133v5.883c0,1.366,0.736,1.926,2.104,1.926c0.596,0,0.943-0.034,1.332-0.21
			l-0.457,3.889c-0.49,0.244-1.365,0.42-2.381,0.42c-3.572,0-5.707-1.892-5.707-5.043v-6.863h-2.662V9.072h2.662V5.676l5.109-1.855
			v5.253h5.113L318.121,13.273z"/>
		<path fill="#80297F" d="M331.289,24.934v-2.171h-0.033c-0.631,1.681-2.312,2.626-4.867,2.626c-3.467,0-5.568-1.927-5.568-5.288
			V9.071h5.148v9.735c0,1.154,0.805,2.171,2.381,2.171c1.541,0,2.486-1.017,2.486-2.276v-9.63h5.146v15.863H331.289L331.289,24.934z
			"/>
		<path fill="#80297F" d="M348.906,14.534c-0.314-0.176-1.016-0.386-1.541-0.386c-1.645,0-3.15,0.876-3.15,3.396v7.39h-5.148V9.071
			h5.078v3.537h0.035c0.523-2.487,2.381-3.817,4.518-3.817c0.49,0,1.086,0.07,1.471,0.21L348.906,14.534z"/>
		<path fill="#80297F" d="M365.289,16.109l-2.273,2.312h-7.775c0.246,1.297,1.996,2.768,4.693,2.768c1.645,0,3.326-0.49,4.377-1.19
			l-0.49,4.412c-1.191,0.631-3.012,1.051-5.043,1.051c-4.832,0-8.719-3.361-8.719-8.545c0-5.111,3.711-8.369,8.264-8.369
			c4.412,0,7.109,3.048,7.109,6.339C365.43,15.269,365.359,15.795,365.289,16.109z M358.32,12.397c-1.506,0-2.766,1.156-3.082,2.592
			h5.357c0-0.104,0.035-0.21,0.035-0.351C360.631,13.553,359.686,12.397,358.32,12.397z"/>
	</g>
	<g enable-background="new    ">
		<path fill="#80297F" d="M11.837,45.076v17.896H6.409V45.076H0v-4.447h18.245v4.447H11.837z"/>
		<path fill="#80297F" d="M30.188,62.97v-9.735c0-1.155-0.806-2.171-2.382-2.171c-1.54,0-2.486,0.979-2.486,2.241v9.665h-5.146
			V38.036h5.078v10.541h0.033c0.807-1.226,2.277-1.961,4.482-1.961c3.502,0,5.568,1.961,5.568,5.322v11.031L30.188,62.97
			L30.188,62.97z"/>
		<path fill="#80297F" d="M48.259,52.57c-0.315-0.176-1.017-0.386-1.541-0.386c-1.646,0-3.152,0.876-3.152,3.396v7.39h-5.146V47.107
			h5.078v3.537h0.034c0.524-2.487,2.382-3.817,4.517-3.817c0.49,0,1.086,0.07,1.472,0.21L48.259,52.57z"/>
		<path fill="#80297F" d="M58.093,63.461c-4.797,0-8.649-3.396-8.649-8.438s3.853-8.439,8.649-8.439
			c4.764,0,8.649,3.396,8.649,8.439S62.857,63.461,58.093,63.461z M58.093,51.064c-1.926,0-3.571,1.681-3.571,4.027
			c0,2.346,1.646,4.025,3.571,4.025c1.892,0,3.572-1.681,3.572-4.025C61.666,52.745,59.985,51.064,58.093,51.064z"/>
		<path fill="#80297F" d="M79.703,62.97V60.8h-0.035c-0.631,1.681-2.312,2.626-4.867,2.626c-3.467,0-5.567-1.927-5.567-5.288v-11.03
			h5.146v9.735c0,1.154,0.808,2.171,2.383,2.171c1.541,0,2.486-1.017,2.486-2.276v-9.63h5.146V62.97H79.703L79.703,62.97z"/>
		<path fill="#80297F" d="M94.55,71.06c-4.621,0-7.703-2.627-7.703-5.954c0-2.416,1.611-3.853,3.257-4.271l-2.031-2.03
			c0.14-1.017,1.017-1.893,1.927-2.276c-1.19-0.735-2.312-2.241-2.312-4.237c0-3.361,2.417-5.708,6.549-5.708
			c0.945,0,1.682,0.141,2.348,0.315c0.699,0.175,1.471,0.279,2.275,0.279c0.875,0,1.785-0.21,2.486-0.524l0.945,3.922
			c-0.49,0.28-1.262,0.525-1.962,0.49c0.175,0.314,0.386,1.051,0.386,1.61c0,2.661-2.103,4.902-5.184,5.112
			c-0.63,0.035-1.051,0.175-1.051,0.596c0,0.176,0.14,0.386,0.421,0.489l2.451,0.876c3.116,1.12,4.797,2.696,4.797,5.604
			C102.15,68.608,99.173,71.06,94.55,71.06z M95.636,63.6l-1.891-0.524c-1.227,0.034-2.138,0.91-2.138,2.065
			c0,1.086,0.946,1.996,2.804,1.996c1.819,0,2.801-0.841,2.801-1.751C97.212,64.651,96.652,63.88,95.636,63.6z M94.236,50.329
			c-1.154,0-2.031,0.875-2.031,1.892c0,1.051,0.877,1.892,2.031,1.892c1.121,0,2.031-0.841,2.031-1.892
			C96.267,51.204,95.427,50.329,94.236,50.329z"/>
		<path fill="#80297F" d="M114.478,62.97v-9.735c0-1.155-0.805-2.171-2.381-2.171c-1.541,0-2.486,0.979-2.486,2.241v9.665h-5.148
			V38.036h5.078v10.541h0.035c0.805-1.226,2.275-1.961,4.482-1.961c3.502,0,5.567,1.961,5.567,5.322v11.031L114.478,62.97
			L114.478,62.97z"/>
		<path fill="#80297F" d="M139.414,54.18h-3.293v8.79h-5.217V40.628h8.51c3.816,0,7.213,2.557,7.213,6.76
			C146.626,51.589,143.265,54.18,139.414,54.18z M138.642,45.005h-2.521v5.009h2.521c1.4,0,2.768-0.771,2.768-2.486
			C141.41,45.846,140.044,45.005,138.642,45.005z"/>
		<path fill="#80297F" d="M159.337,63.671c-0.944-0.21-2.029-0.944-2.45-2.101c-0.7,1.295-2.206,1.926-4.132,1.926
			c-2.803,0-5.288-1.961-5.288-5.253c0-2.906,2.275-4.867,5.428-5.183l3.151-0.315V52.22c0-0.945-0.771-1.575-2.486-1.575
			c-1.541,0-3.256,0.49-4.412,1.226l-0.91-3.888c1.295-0.84,3.467-1.4,5.568-1.4c4.201,0,7.178,1.927,7.178,5.743v5.184
			c0,1.854,0.701,2.837,1.927,3.292L159.337,63.671z M156.046,56.037l-1.927,0.175c-1.33,0.105-1.926,1.052-1.926,1.996
			c0,0.842,0.631,1.541,1.611,1.541c1.225,0,2.239-0.944,2.239-2.312v-1.4H156.046z"/>
		<path fill="#80297F" d="M174.468,52.57c-0.316-0.176-1.017-0.386-1.541-0.386c-1.646,0-3.152,0.876-3.152,3.396v7.39h-5.146
			V47.107h5.076v3.537h0.035c0.525-2.487,2.381-3.817,4.519-3.817c0.489,0,1.086,0.07,1.471,0.21L174.468,52.57z"/>
		<path fill="#80297F" d="M190.851,54.145l-2.276,2.312h-7.773c0.245,1.296,1.996,2.768,4.691,2.768c1.646,0,3.327-0.49,4.378-1.19
			l-0.489,4.412c-1.191,0.631-3.013,1.051-5.044,1.051c-4.832,0-8.72-3.361-8.72-8.545c0-5.112,3.712-8.369,8.266-8.369
			c4.411,0,7.107,3.047,7.107,6.338C190.991,53.305,190.921,53.831,190.851,54.145z M183.882,50.433
			c-1.507,0-2.768,1.155-3.082,2.592h5.356c0-0.105,0.035-0.21,0.035-0.351C186.193,51.589,185.248,50.433,183.882,50.433z"/>
		<path fill="#80297F" d="M203.424,62.97v-9.735c0-1.155-0.771-2.171-2.348-2.171c-1.541,0-2.52,0.979-2.52,2.241v9.665h-5.148
			V47.107h4.728v2.136h0.035c0.631-1.681,2.275-2.626,4.832-2.626c3.467,0,5.568,1.961,5.568,5.322V62.97H203.424L203.424,62.97z"/>
		<path fill="#80297F" d="M222.301,51.309h-4.135v5.883c0,1.366,0.736,1.926,2.104,1.926c0.596,0,0.945-0.034,1.33-0.21
			l-0.455,3.888c-0.49,0.245-1.365,0.421-2.381,0.421c-3.572,0-5.709-1.892-5.709-5.044V51.31h-2.66v-4.202h2.66v-3.397l5.111-1.854
			v5.253h5.113L222.301,51.309z"/>
		<path fill="#80297F" d="M233.193,62.97V40.628h5.428v17.896h8.404v4.447H233.193L233.193,62.97z"/>
		<path fill="#80297F" d="M263.416,54.145l-2.275,2.312h-7.775c0.246,1.296,1.996,2.768,4.693,2.768c1.645,0,3.326-0.49,4.377-1.19
			l-0.49,4.412c-1.189,0.631-3.012,1.051-5.043,1.051c-4.832,0-8.719-3.361-8.719-8.545c0-5.112,3.711-8.369,8.264-8.369
			c4.412,0,7.109,3.047,7.109,6.338C263.555,53.305,263.486,53.831,263.416,54.145z M256.447,50.433
			c-1.506,0-2.768,1.155-3.082,2.592h5.357c0-0.105,0.035-0.21,0.035-0.351C258.758,51.589,257.812,50.433,256.447,50.433z"/>
		<path fill="#80297F" d="M276.932,63.671c-0.945-0.21-2.031-0.944-2.451-2.101c-0.699,1.295-2.205,1.926-4.133,1.926
			c-2.801,0-5.287-1.961-5.287-5.253c0-2.906,2.275-4.867,5.428-5.183l3.152-0.315V52.22c0-0.945-0.771-1.575-2.486-1.575
			c-1.541,0-3.258,0.49-4.412,1.226l-0.912-3.888c1.297-0.84,3.469-1.4,5.568-1.4c4.203,0,7.18,1.927,7.18,5.743v5.184
			c0,1.854,0.699,2.837,1.926,3.292L276.932,63.671z M273.641,56.037l-1.926,0.175c-1.332,0.105-1.928,1.052-1.928,1.996
			c0,0.842,0.631,1.541,1.611,1.541c1.225,0,2.24-0.944,2.24-2.312v-1.4H273.641z"/>
		<path fill="#80297F" d="M293.846,62.97V61.01h-0.033c-0.877,1.609-2.697,2.416-4.904,2.416c-3.887,0-7.633-2.941-7.633-8.369
			c0-5.113,3.643-8.439,8.055-8.439c1.68,0,3.396,0.561,4.025,1.085v-9.665h5.008v24.935L293.846,62.97L293.846,62.97z
			 M293.355,52.57c-0.49-0.666-1.539-1.436-3.115-1.436c-2.242,0-3.816,1.75-3.816,4.025c0,2.276,1.574,4.027,3.816,4.027
			c1.506,0,2.557-0.807,3.115-1.646V52.57z"/>
		<path fill="#80297F" d="M316.154,54.145l-2.275,2.312h-7.773c0.244,1.296,1.996,2.768,4.691,2.768c1.646,0,3.328-0.49,4.379-1.19
			l-0.49,4.412c-1.191,0.631-3.012,1.051-5.043,1.051c-4.834,0-8.721-3.361-8.721-8.545c0-5.112,3.713-8.369,8.266-8.369
			c4.412,0,7.107,3.047,7.107,6.338C316.295,53.305,316.225,53.831,316.154,54.145z M309.186,50.433
			c-1.506,0-2.768,1.155-3.08,2.592h5.357c0-0.105,0.033-0.21,0.033-0.351C311.498,51.589,310.553,50.433,309.186,50.433z"/>
		<path fill="#80297F" d="M328.553,52.57c-0.314-0.176-1.018-0.386-1.541-0.386c-1.646,0-3.152,0.876-3.152,3.396v7.39h-5.146
			V47.107h5.078v3.537h0.035c0.523-2.487,2.381-3.817,4.518-3.817c0.488,0,1.086,0.07,1.471,0.21L328.553,52.57z"/>
		<path fill="#80297F" d="M336.713,63.321c-2.172,0-3.746-0.456-5.043-1.121l-0.455-4.553c1.4,0.979,3.223,1.716,4.973,1.716
			c0.945,0,1.541-0.49,1.541-1.085c0-0.665-0.525-0.945-1.436-1.226c-3.049-0.876-4.867-2.417-4.867-5.184
			c0-3.117,2.52-5.113,5.953-5.113c1.961,0,3.887,0.525,4.691,0.945l-0.877,3.782c-0.77-0.42-2.031-0.875-3.291-0.875
			c-0.84,0-1.398,0.385-1.398,1.016c0,0.596,0.42,0.91,1.398,1.155c3.572,0.945,5.043,2.731,5.043,5.393
			C342.947,60.869,340.986,63.321,336.713,63.321z"/>
		<path fill="#80297F" d="M355.555,62.97v-9.735c0-1.155-0.807-2.171-2.381-2.171c-1.541,0-2.486,0.979-2.486,2.241v9.665h-5.148
			V38.036h5.078v10.541h0.035c0.805-1.226,2.275-1.961,4.482-1.961c3.502,0,5.566,1.961,5.566,5.322v11.031L355.555,62.97
			L355.555,62.97z"/>
		<path fill="#80297F" d="M366.551,44.935c-0.91,0-2.768-1.855-2.768-2.767c0-0.91,1.857-2.731,2.768-2.731
			c0.912,0,2.768,1.821,2.768,2.731C369.318,43.08,367.463,44.935,366.551,44.935z M363.961,62.97V47.107h5.184V62.97H363.961z"/>
		<path fill="#80297F" d="M381.436,63.426c-1.682,0-3.398-0.525-4.027-1.052v8.687H372.4V47.107h4.518v1.961h0.035
			c0.875-1.611,2.695-2.416,4.902-2.416c3.887,0,7.633,2.941,7.633,8.369C389.488,60.134,385.848,63.426,381.436,63.426z
			 M380.523,51.135c-1.506,0-2.555,0.805-3.115,1.646v4.973c0.49,0.665,1.541,1.4,3.115,1.4c2.242,0,3.818-1.716,3.818-3.992
			C384.342,52.885,382.766,51.135,380.523,51.135z"/>
	</g>
</g>
</svg>
