<?xml version="1.0" encoding="utf-8"?>
<!-- Generator: Adobe Illustrator 16.0.0, SVG Export Plug-In . SVG Version: 6.00 Build 0)  -->
<!DOCTYPE svg PUBLIC "-//W3C//DTD SVG 1.1//EN" "http://www.w3.org/Graphics/SVG/1.1/DTD/svg11.dtd">
<svg version="1.1" id="Layer_1" xmlns="http://www.w3.org/2000/svg" xmlns:xlink="http://www.w3.org/1999/xlink" x="0px" y="0px"
	 width="175.723px" height="174.938px" viewBox="130.879 37.162 175.723 174.938"
	 enable-background="new 130.879 37.162 175.723 174.938" xml:space="preserve">
<g id="logo">
	<g>
		<ellipse fill="#80297F" cx="299.546" cy="129.127" rx="5.372" ry="5.221"/>
		<rect x="143.757" y="52.754" opacity="0.8" fill="#5BB3CF" enable-background="new    " width="93.42" height="133.11"/>
		<path fill="#258691" stroke="#FFFFFF" stroke-width="1.62" stroke-miterlimit="10" d="M239.707,184.34H137.21
			c0,0,21.218-16.871,50.157-25.839c30.226-9.366,51.435-6.459,51.435-6.459L239.707,184.34z"/>
		<path fill="#258691" stroke="#FFFFFF" stroke-width="1.62" stroke-miterlimit="10" d="M133.956,185.091H234.02
			c0,0-21.11-17.226-50.159-25.839c-27.452-8.14-48.189-6.459-48.189-6.459L133.956,185.091z"/>
		<path fill="#EB8C23" stroke="#FFFFFF" stroke-width="1.62" stroke-miterlimit="10" d="M183.574,159.125
			c0,0,6.075,2.16,7.156,5.535c1.135,3.546-0.737,6.867-10.766,8.688c-26.495,4.812-32.041,11.995-32.041,11.995h89.365
			c0,0-4.438-11.638-19.829-18.658C200.351,158.881,183.574,159.125,183.574,159.125z"/>
		<polygon fill="none" points="142.947,51.404 142.947,185.864 145.377,185.864 145.377,53.024 235.287,53.024 235.287,185.864 
			238.527,185.864 238.527,51.404 		"/>
		<g>
			<polygon fill="#80297F" points="236.907,187.484 236.907,53.024 144.567,53.024 144.567,187.484 133.227,187.484 133.227,41.684 
				248.247,41.684 248.247,187.484 			"/>
			<path fill="#FFFFFF" d="M246.627,43.304v142.56h-8.1V51.404h-95.581v134.46h-8.1V43.304H246.627 M249.867,40.064h-3.24h-111.78
				h-3.24v3.24v142.56v3.239h3.24h8.1h3.24v-3.239V54.645h89.1v131.22v3.24h3.24h8.1h3.24v-3.24V43.304V40.064L249.867,40.064z"/>
		</g>
		<g>
			<g>
				<path fill="#FAE30A" d="M193.112,78.795c3.403,0.608,6.429-13.94,2.647-15.5c-0.333-0.103-0.527-0.261-1.135,0
					C192.296,63.824,189.418,78.135,193.112,78.795z"/>
			</g>
			<g>
				<path fill="#FAE30A" d="M177.992,79.173c3.267-1.641-4.048-15.485-6.805-14.366c-1.03,0.433-0.508,2.114-0.421,3.334
					C171.136,73.426,175.341,80.067,177.992,79.173z"/>
			</g>
			<g>
				<path fill="#FAE30A" d="M216.982,80.138c0.627-0.686,1.535-1.538,1.459-2.1c-0.096-0.248-0.373-0.755-0.627-1.037
					c-0.713-0.798-1.462-1.157-2.5-0.577c-0.586,0.417-1.464,1.006-3.364,2.152c-2.908,1.796-6.791,3.527-5.229,6.267
					C208.602,86.825,214.503,82.842,216.982,80.138z"/>
			</g>
			<g>
				<path fill="#FAE30A" d="M170.431,87.111c1.071-3.472-6.491-7.876-10.815-9.078c-1.425-0.398-2.5-0.445-2.794,0.005
					c-0.708,1.031,0.657,2.377,1.804,3.641C161.886,85.277,168.586,88.72,170.431,87.111z"/>
			</g>
			<g>
				<path fill="#FAE30A" d="M228.271,95.05c-0.448-3.074-9.556-1.349-13.973,0.794c-0.666,0.355-1.856,0.883-1.906,1.475
					c0.081,2.286,1.387,2.677,4.261,2.485C220.18,99.342,228.791,97.19,228.271,95.05z"/>
			</g>
			<g>
				<path fill="#FAE30A" d="M167.784,97.697c0.022-4.362-12.849-3.808-15.12-0.378v0.755
					C153.833,100.649,167.416,101.433,167.784,97.697z"/>
			</g>
			<g>
				<path fill="#FAE30A" d="M219.574,110.549c-2.789-1.914-5.549-4.458-9.191-4.154c-0.782,1.175-1.264,1.637-1.017,3.02
					c3.858,2.988,13.164,8.604,13.989,7.183C225.664,113.317,221.682,111.995,219.574,110.549z"/>
			</g>
			<g>
				<path fill="#FAE30A" d="M160.113,115.323c-0.413,0.673-1.062,1.123-0.646,2.03c0.493,0.818,1.917,0.303,2.885-0.03
					c3.666-1.577,8.74-3.88,7.323-6.396C167.933,108.074,162.535,112.204,160.113,115.323z"/>
			</g>
			<g>
				<path fill="#FAE30A" d="M200.979,116.975c-0.915,1.044-0.488,2.003,0.215,3.887c1.637,4.379,5.532,10.479,7.795,10.101
					c0.949-0.286,1.76-0.714,1.89-1.889c-0.258-1.556-1.726-4.365-2.455-6.221C206.567,118.12,203.854,113.579,200.979,116.975z"/>
			</g>
			<g>
				<path fill="#FAE30A" d="M191.602,120.378c-3.209,0.099-3.309,8.128-1.922,12.683c0.317,1.039,0.574,2.159,1.244,2.459
					c0.743,0.121,1.262-0.312,1.724-1.072C194.748,130.992,194.044,120.372,191.602,120.378z"/>
			</g>
			<g>
				<path fill="#FAE30A" d="M206.17,108.29c2.927-4.112,4.867-10.905,2.064-17.776c-8.371-16.218-37.355,2.236-22.304,16.256
					c5.01,3.098,9.662-0.15,11.539-3.529c2.326-4.193,1.551-10.167-3.41-9.905c-1.053,0.096-3.135,0.13-3.971,1.715
					c-1.384,3.118,3.971,3.639,0.378,5.293c-1.37-0.217-2.697-2.043-2.734-3.354c-1.378-6.137,13.34-12.985,15.587-3.075
					c1.931,8.509-7.023,16.272-13.608,17.012c-16.005,1.797-15.27-15.077-7.94-21.548c5.642-4.979,6.427-5.174,5.293-8.695
					c-2.147-6.025-11.842,3.339-15.518,10.573c-5.912,11.634,3.285,26.514,16.259,25.663
					C194.734,116.465,202.128,113.97,206.17,108.29z"/>
			</g>
			<g>
				<path fill="#FAE30A" d="M180.258,118.11c-3.701-0.353-9.057,11.924-7.181,13.608
					C176.036,132.778,184.655,119.847,180.258,118.11z"/>
			</g>
		</g>
		<g>
			<polygon fill="#EB8C23" points="237.312,186.636 237.312,53.173 291.557,38.743 291.557,212.1 			"/>
			<path fill="#FFFFFF" d="M290.342,40.323v169.864l-51.814-24.323V54.107L290.342,40.323 M292.771,37.162l-3.056,0.813
				l-51.813,13.784l-1.805,0.48v1.868v131.757v1.544l1.396,0.654l51.814,24.324l3.461,1.625v-3.824V40.323v-3.161H292.771z"/>
		</g>
		<rect x="293.312" y="40.323" fill="#D9272E" width="6.233" height="170.375"/>
		<ellipse fill="#80297F" cx="279.837" cy="129.435" rx="5.688" ry="5.528"/>
	</g>
</g>
</svg>
