<?xml version="1.0" encoding="utf-8"?>
<!-- Generator: Adobe Illustrator 16.0.0, SVG Export Plug-In . SVG Version: 6.00 Build 0)  -->
<!DOCTYPE svg PUBLIC "-//W3C//DTD SVG 1.1//EN" "http://www.w3.org/Graphics/SVG/1.1/DTD/svg11.dtd">
<svg version="1.1" id="Layer_1" xmlns="http://www.w3.org/2000/svg" xmlns:xlink="http://www.w3.org/1999/xlink" x="0px" y="0px"
	 width="327.258px" height="89.676px" viewBox="52.312 223.833 327.258 89.676"
	 enable-background="new 52.312 223.833 327.258 89.676" xml:space="preserve">
<g id="logo">
	<g>
		<path fill="#80297F" d="M72.785,259.114l-2.385-6.48h-9.134l-2.385,6.48h-6.569l11.294-28.935h4.815l11.294,28.935H72.785z
			 M66.71,241.88c-0.27-0.766-0.63-1.711-0.855-2.655h-0.09c-0.225,0.944-0.54,1.936-0.81,2.655l-1.935,5.31h5.625L66.71,241.88z"/>
		<path fill="#80297F" d="M92.135,259.698c-4.32,0-7.83-1.484-9.81-3.015v-29.608h6.39v12.375c0.855-0.677,3.015-1.351,5.13-1.351
			c5.625,0,10.259,4.004,10.259,10.438C104.104,254.839,100.099,259.698,92.135,259.698z M92.674,243.904
			c-1.89,0-3.33,0.898-3.959,1.574v7.785c0.675,0.494,2.07,0.989,3.33,0.989c3.375,0,5.49-2.295,5.49-5.265
			C97.534,246.154,95.554,243.904,92.674,243.904z"/>
		<path fill="#80297F" d="M119.944,245.749c-0.405-0.226-1.305-0.494-1.98-0.494c-2.115,0-4.05,1.125-4.05,4.364v9.494H107.3
			v-20.385h6.525v4.545h0.045c0.675-3.194,3.06-4.903,5.805-4.903c0.63,0,1.395,0.09,1.89,0.271L119.944,245.749z"/>
		<path fill="#80297F" d="M127.324,235.939c-1.17,0-3.555-2.385-3.555-3.556c0-1.17,2.385-3.51,3.555-3.51
			c1.17,0,3.555,2.34,3.555,3.51C130.879,233.555,128.494,235.939,127.324,235.939z M123.995,259.114v-20.386h6.66v20.386H123.995z"
			/>
		<path fill="#80297F" d="M153.603,247.773l-2.925,2.971h-9.99c0.315,1.665,2.565,3.555,6.03,3.555c2.115,0,4.275-0.63,5.625-1.529
			l-0.63,5.67c-1.53,0.811-3.87,1.35-6.479,1.35c-6.21,0-11.205-4.318-11.205-10.979c0-6.57,4.77-10.756,10.62-10.756
			c5.67,0,9.135,3.915,9.135,8.146C153.783,246.693,153.693,247.369,153.603,247.773z M144.648,243.005
			c-1.935,0-3.555,1.484-3.96,3.33h6.885c0-0.136,0.045-0.271,0.045-0.451C147.618,244.489,146.403,243.005,144.648,243.005z"/>
		<path fill="#80297F" d="M169.758,259.114v-12.511c0-1.484-0.99-2.789-3.015-2.789c-1.98,0-3.24,1.26-3.24,2.879v12.421h-6.615
			v-20.386h6.075v2.746h0.045c0.81-2.16,2.925-3.375,6.21-3.375c4.455,0,7.155,2.521,7.155,6.84v14.175H169.758L169.758,259.114z"/>
		<path fill="#80297F" d="M195.722,259.114v-2.521h-0.045c-1.125,2.069-3.465,3.104-6.3,3.104c-4.995,0-9.81-3.779-9.81-10.754
			c0-6.57,4.68-10.846,10.35-10.846c2.16,0,4.365,0.721,5.175,1.396v-12.42h6.435v32.039L195.722,259.114L195.722,259.114z
			 M195.092,245.749c-0.63-0.854-1.98-1.845-4.005-1.845c-2.88,0-4.905,2.25-4.905,5.175s2.025,5.175,4.905,5.175
			c1.935,0,3.285-1.033,4.005-2.113V245.749z"/>
		<path fill="#80297F" d="M215.973,259.743c-6.165,0-11.115-4.364-11.115-10.845c0-6.479,4.95-10.844,11.115-10.844
			c6.119,0,11.114,4.363,11.114,10.844S222.092,259.743,215.973,259.743z M215.973,243.814c-2.475,0-4.59,2.158-4.59,5.175
			c0,3.015,2.115,5.175,4.59,5.175c2.429,0,4.589-2.16,4.589-5.175S218.402,243.814,215.973,243.814z"/>
		<path fill="#80297F" d="M251.747,247.818h-4.229v11.296h-6.705v-28.709h10.936c4.904,0,9.27,3.284,9.27,8.684
			C261.018,244.489,256.697,247.818,251.747,247.818z M250.758,236.029h-3.24v6.435h3.24c1.799,0,3.555-0.989,3.555-3.194
			C254.312,237.109,252.557,236.029,250.758,236.029z"/>
		<path fill="#80297F" d="M277.667,259.114v-2.791h-0.046c-0.809,2.159-2.969,3.375-6.254,3.375c-4.455,0-7.154-2.476-7.154-6.796
			v-14.174h6.614v12.511c0,1.483,1.034,2.788,3.06,2.788c1.98,0,3.195-1.305,3.195-2.924v-12.375h6.614v20.386H277.667
			L277.667,259.114z"/>
		<path fill="#80297F" d="M306.421,247.773l-2.925,2.971h-9.989c0.313,1.665,2.563,3.555,6.029,3.555
			c2.114,0,4.274-0.63,5.625-1.529l-0.63,5.67c-1.53,0.811-3.87,1.35-6.48,1.35c-6.209,0-11.204-4.318-11.204-10.979
			c0-6.57,4.771-10.756,10.619-10.756c5.67,0,9.136,3.915,9.136,8.146C306.602,246.693,306.511,247.369,306.421,247.773z
			 M297.466,243.005c-1.935,0-3.555,1.484-3.959,3.33h6.886c0-0.136,0.045-0.271,0.045-0.451
			C300.438,244.489,299.223,243.005,297.466,243.005z"/>
		<path fill="#80297F" d="M322.352,245.749c-0.404-0.226-1.306-0.494-1.979-0.494c-2.115,0-4.05,1.125-4.05,4.364v9.494h-6.615
			v-20.385h6.525v4.545h0.045c0.675-3.194,3.06-4.903,5.805-4.903c0.63,0,1.395,0.09,1.891,0.271L322.352,245.749z"/>
		<path fill="#80297F" d="M340.251,244.13h-5.31v7.56c0,1.756,0.944,2.476,2.699,2.476c0.766,0,1.215-0.045,1.711-0.271
			l-0.586,4.994c-0.63,0.315-1.755,0.541-3.061,0.541c-4.59,0-7.334-2.431-7.334-6.479v-8.819h-3.42v-5.4h3.42v-4.364l6.568-2.386
			v6.75h6.569L340.251,244.13z"/>
		<path fill="#80297F" d="M358.105,260.014c-1.215-0.271-2.609-1.215-3.149-2.699c-0.899,1.666-2.835,2.475-5.31,2.475
			c-3.601,0-6.795-2.52-6.795-6.749c0-3.735,2.924-6.255,6.975-6.659l4.05-0.406V245.3c0-1.215-0.99-2.024-3.194-2.024
			c-1.979,0-4.186,0.63-5.67,1.574l-1.17-4.994c1.665-1.08,4.454-1.801,7.154-1.801c5.4,0,9.225,2.476,9.225,7.381v6.66
			c0,2.385,0.9,3.645,2.475,4.229L358.105,260.014z M353.876,250.204l-2.476,0.226c-1.709,0.135-2.475,1.35-2.475,2.564
			c0,1.08,0.811,1.979,2.069,1.979c1.575,0,2.88-1.215,2.88-2.97L353.876,250.204L353.876,250.204z"/>
		<path fill="#80297F" d="M371.561,259.562c-2.789,0-4.813-0.584-6.479-1.438l-0.585-5.851c1.8,1.261,4.14,2.205,6.39,2.205
			c1.215,0,1.979-0.631,1.979-1.396c0-0.854-0.675-1.215-1.845-1.575c-3.916-1.125-6.256-3.104-6.256-6.66
			c0-4.004,3.24-6.568,7.649-6.568c2.521,0,4.995,0.675,6.03,1.216l-1.125,4.858c-0.99-0.539-2.61-1.125-4.229-1.125
			c-1.08,0-1.8,0.496-1.8,1.306c0,0.766,0.539,1.17,1.8,1.485c4.591,1.215,6.479,3.51,6.479,6.93
			C379.57,256.414,377.051,259.562,371.561,259.562z"/>
		<path fill="#D9272E" d="M91.607,303.788c-7.92,0-15.479-5.806-15.479-15.074c0-9.18,7.515-15.028,15.479-15.028
			c7.919,0,15.434,5.805,15.434,15.028S99.572,303.788,91.607,303.788z M91.607,279.939c-4.32,0-8.37,3.511-8.37,8.863
			c0,5.355,4.05,8.865,8.37,8.865c4.275,0,8.37-3.51,8.37-8.865C99.977,283.45,95.882,279.939,91.607,279.939z"/>
		<path fill="#D9272E" d="M122.072,303.698c-2.16,0-4.365-0.675-5.175-1.351v11.16h-6.435v-30.779h5.805v2.521h0.045
			c1.125-2.069,3.465-3.104,6.3-3.104c4.995,0,9.81,3.78,9.81,10.756C132.421,299.469,127.742,303.698,122.072,303.698z
			 M120.902,287.904c-1.935,0-3.285,1.035-4.005,2.115v6.39c0.63,0.854,1.98,1.8,4.005,1.8c2.88,0,4.905-2.205,4.905-5.13
			S123.782,287.904,120.902,287.904z"/>
		<path fill="#D9272E" d="M154.381,291.773l-2.925,2.971h-9.99c0.315,1.665,2.565,3.555,6.03,3.555c2.115,0,4.275-0.63,5.625-1.529
			l-0.63,5.67c-1.53,0.811-3.87,1.35-6.479,1.35c-6.21,0-11.205-4.318-11.205-10.979c0-6.57,4.77-10.756,10.62-10.756
			c5.67,0,9.135,3.916,9.135,8.146C154.562,290.693,154.471,291.369,154.381,291.773z M145.427,287.005
			c-1.935,0-3.555,1.484-3.96,3.33h6.885c0-0.136,0.045-0.271,0.045-0.451C148.396,288.489,147.182,287.005,145.427,287.005z"/>
		<path fill="#D9272E" d="M170.536,303.114v-12.511c0-1.484-0.99-2.789-3.015-2.789c-1.98,0-3.24,1.26-3.24,2.879v12.421h-6.615
			v-20.386h6.075v2.746h0.045c0.81-2.16,2.925-3.375,6.21-3.375c4.455,0,7.155,2.521,7.155,6.84v14.174L170.536,303.114
			L170.536,303.114z"/>
		<path fill="#D9272E" d="M184.666,279.939c-1.17,0-3.555-2.385-3.555-3.556c0-1.17,2.385-3.51,3.555-3.51s3.555,2.34,3.555,3.51
			C188.221,277.555,185.836,279.939,184.666,279.939z M181.336,303.114v-20.386h6.66v20.386H181.336z"/>
		<path fill="#D9272E" d="M205.05,303.114v-12.511c0-1.484-0.99-2.789-3.015-2.789c-1.98,0-3.24,1.26-3.24,2.879v12.421h-6.615
			v-20.386h6.075v2.746h0.045c0.81-2.16,2.925-3.375,6.21-3.375c4.455,0,7.155,2.521,7.155,6.84v14.174L205.05,303.114
			L205.05,303.114z"/>
		<path fill="#D9272E" d="M224.715,313.509c-5.939,0-9.899-3.375-9.899-7.649c0-3.104,2.069-4.949,4.185-5.49l-2.609-2.609
			c0.18-1.305,1.305-2.43,2.475-2.925c-1.529-0.944-2.97-2.88-2.97-5.444c0-4.32,3.104-7.334,8.416-7.334
			c1.215,0,2.16,0.18,3.015,0.404c0.899,0.225,1.89,0.359,2.925,0.359c1.125,0,2.295-0.271,3.195-0.676l1.215,5.041
			c-0.631,0.358-1.621,0.674-2.521,0.629c0.227,0.406,0.495,1.352,0.495,2.07c0,3.42-2.698,6.301-6.659,6.569
			c-0.811,0.045-1.351,0.226-1.351,0.767c0,0.225,0.181,0.493,0.54,0.629l3.148,1.125c4.006,1.439,6.166,3.465,6.166,7.199
			C234.479,310.358,230.654,313.509,224.715,313.509z M226.109,303.924l-2.43-0.675c-1.574,0.045-2.744,1.17-2.744,2.653
			c0,1.396,1.215,2.565,3.6,2.565c2.34,0,3.6-1.08,3.6-2.25C228.135,305.273,227.415,304.284,226.109,303.924z M224.311,286.87
			c-1.484,0-2.609,1.124-2.609,2.43c0,1.351,1.125,2.431,2.609,2.431c1.439,0,2.609-1.08,2.609-2.431
			C226.92,287.994,225.84,286.87,224.311,286.87z"/>
		<path fill="#D9272E" d="M257.475,303.114H247.8v-28.709h9.675c8.234,0,15.39,5.399,15.39,14.354
			C272.863,297.669,265.754,303.114,257.475,303.114z M256.799,280.12h-2.249v17.323h2.249c4.951,0,9.045-2.881,9.045-8.641
			S261.795,280.12,256.799,280.12z"/>
		<path fill="#D9272E" d="M286.634,303.743c-6.165,0-11.114-4.364-11.114-10.845c0-6.479,4.949-10.844,11.114-10.844
			c6.12,0,11.115,4.363,11.115,10.844S292.754,303.743,286.634,303.743z M286.634,287.814c-2.475,0-4.59,2.158-4.59,5.174
			s2.115,5.176,4.59,5.176c2.431,0,4.591-2.16,4.591-5.176C291.225,289.975,289.064,287.814,286.634,287.814z"/>
		<path fill="#D9272E" d="M311.293,303.743c-6.164,0-11.114-4.364-11.114-10.845c0-6.479,4.95-10.844,11.114-10.844
			c6.12,0,11.115,4.363,11.115,10.844S317.413,303.743,311.293,303.743z M311.293,287.814c-2.475,0-4.59,2.158-4.59,5.174
			s2.115,5.176,4.59,5.176c2.432,0,4.59-2.16,4.59-5.176C315.883,289.975,313.725,287.814,311.293,287.814z"/>
		<path fill="#D9272E" d="M338.247,289.749c-0.404-0.226-1.306-0.494-1.979-0.494c-2.115,0-4.05,1.125-4.05,4.364v9.495h-6.614
			v-20.386h6.524v4.545h0.045c0.675-3.194,3.06-4.903,5.806-4.903c0.629,0,1.395,0.09,1.89,0.271L338.247,289.749z"/>
		<path fill="#D9272E" d="M348.732,303.562c-2.791,0-4.814-0.584-6.479-1.438l-0.585-5.851c1.8,1.261,4.141,2.205,6.391,2.205
			c1.215,0,1.979-0.631,1.979-1.396c0-0.854-0.675-1.215-1.846-1.575c-3.914-1.125-6.254-3.104-6.254-6.66
			c0-4.004,3.239-6.568,7.648-6.568c2.521,0,4.995,0.675,6.03,1.216l-1.125,4.858c-0.99-0.539-2.61-1.125-4.229-1.125
			c-1.08,0-1.8,0.496-1.8,1.306c0,0.766,0.539,1.17,1.8,1.485c4.59,1.215,6.479,3.51,6.479,6.93
			C356.742,300.414,354.223,303.562,348.732,303.562z"/>
	</g>
</g>
</svg>
