<?xml version="1.0" encoding="utf-8"?>
<!-- Generator: Adobe Illustrator 16.0.0, SVG Export Plug-In . SVG Version: 6.00 Build 0)  -->
<!DOCTYPE svg PUBLIC "-//W3C//DTD SVG 1.1//EN" "http://www.w3.org/Graphics/SVG/1.1/DTD/svg11.dtd">
<svg version="1.1" id="Layer_1" xmlns="http://www.w3.org/2000/svg" xmlns:xlink="http://www.w3.org/1999/xlink" x="0px" y="0px"
	 width="959.607px" height="117.891px" viewBox="0 0 959.607 117.891" enable-background="new 0 0 959.607 117.891"
	 xml:space="preserve">
<g>
	<g>
		<path fill="#80297F" d="M210.553,52.715l-2.016-5.475h-7.715l-2.015,5.475h-5.549l9.54-24.44h4.065l9.54,24.44H210.553z
			 M205.422,38.157c-0.229-0.646-0.531-1.444-0.724-2.242h-0.075c-0.189,0.797-0.455,1.636-0.684,2.242l-1.635,4.485h4.751
			L205.422,38.157z"/>
		<path fill="#80297F" d="M226.896,53.208c-3.648,0-6.613-1.254-8.286-2.548V25.653h5.397v10.453
			c0.722-0.572,2.546-1.142,4.333-1.142c4.751,0,8.666,3.382,8.666,8.816C237.008,49.104,233.623,53.208,226.896,53.208z
			 M227.352,39.866c-1.596,0-2.812,0.76-3.344,1.33v6.576c0.569,0.417,1.749,0.835,2.812,0.835c2.852,0,4.639-1.938,4.639-4.448
			C231.457,41.767,229.784,39.866,227.352,39.866z"/>
		<path fill="#80297F" d="M250.386,41.426c-0.344-0.191-1.103-0.417-1.674-0.417c-1.785,0-3.421,0.95-3.421,3.687v8.02h-5.587
			V35.497h5.512v3.839h0.038c0.57-2.697,2.585-4.142,4.903-4.142c0.532,0,1.178,0.076,1.597,0.229L250.386,41.426z"/>
		<path fill="#80297F" d="M256.619,33.139c-0.989,0-3.003-2.014-3.003-3.003c0-0.988,2.014-2.965,3.003-2.965
			c0.988,0,3.003,1.977,3.003,2.965C259.622,31.126,257.607,33.139,256.619,33.139z M253.808,52.715v-17.22h5.625v17.22H253.808z"/>
		<path fill="#80297F" d="M278.815,43.135l-2.47,2.51h-8.438c0.266,1.406,2.166,3.002,5.093,3.002c1.786,0,3.611-0.532,4.751-1.292
			l-0.531,4.789c-1.292,0.686-3.27,1.141-5.474,1.141c-5.244,0-9.464-3.646-9.464-9.273c0-5.549,4.029-9.085,8.971-9.085
			c4.789,0,7.717,3.307,7.717,6.881C278.968,42.223,278.891,42.795,278.815,43.135z M271.251,39.108
			c-1.634,0-3.002,1.254-3.344,2.813h5.815c0-0.115,0.038-0.229,0.038-0.381C273.761,40.362,272.734,39.108,271.251,39.108z"/>
		<path fill="#80297F" d="M292.461,52.715V42.147c0-1.253-0.837-2.355-2.547-2.355c-1.672,0-2.735,1.064-2.735,2.432v10.492h-5.588
			V35.494h5.132v2.319h0.036c0.686-1.824,2.473-2.851,5.246-2.851c3.764,0,6.043,2.13,6.043,5.776v11.975L292.461,52.715
			L292.461,52.715z"/>
		<path fill="#80297F" d="M314.392,52.715v-2.13h-0.038c-0.95,1.748-2.927,2.622-5.321,2.622c-4.22,0-8.287-3.192-8.287-9.084
			c0-5.55,3.954-9.161,8.743-9.161c1.824,0,3.688,0.607,4.371,1.18v-10.49h5.436v27.062L314.392,52.715L314.392,52.715z
			 M313.859,41.426c-0.532-0.722-1.673-1.56-3.383-1.56c-2.434,0-4.145,1.9-4.145,4.372c0,2.471,1.711,4.371,4.145,4.371
			c1.634,0,2.773-0.873,3.383-1.785V41.426z"/>
		<path fill="#80297F" d="M331.496,53.246c-5.206,0-9.389-3.688-9.389-9.161c0-5.473,4.183-9.159,9.389-9.159
			c5.169,0,9.388,3.686,9.388,9.159C340.884,49.56,336.665,53.246,331.496,53.246z M331.496,39.791c-2.09,0-3.877,1.822-3.877,4.372
			c0,2.546,1.787,4.37,3.877,4.37c2.052,0,3.877-1.824,3.877-4.37C335.373,41.615,333.548,39.791,331.496,39.791z"/>
		<path fill="#80297F" d="M361.713,43.173h-3.571v9.541h-5.663V28.465h9.237c4.142,0,7.829,2.773,7.829,7.335
			C369.543,40.362,365.895,43.173,361.713,43.173z M360.877,33.216h-2.735v5.436h2.735c1.521,0,3.003-0.835,3.003-2.697
			C363.88,34.128,362.396,33.216,360.877,33.216z"/>
		<path fill="#80297F" d="M383.606,52.715v-2.357h-0.039c-0.683,1.823-2.508,2.852-5.282,2.852c-3.763,0-6.043-2.093-6.043-5.741
			V35.496h5.587v10.567c0,1.252,0.873,2.354,2.584,2.354c1.673,0,2.699-1.103,2.699-2.471V35.494h5.587v17.221H383.606
			L383.606,52.715z"/>
		<path fill="#80297F" d="M407.894,43.135l-2.472,2.51h-8.438c0.265,1.406,2.165,3.002,5.093,3.002c1.786,0,3.61-0.532,4.751-1.292
			l-0.532,4.789c-1.292,0.686-3.269,1.141-5.474,1.141c-5.244,0-9.463-3.646-9.463-9.273c0-5.549,4.029-9.085,8.969-9.085
			c4.789,0,7.717,3.307,7.717,6.881C408.046,42.223,407.969,42.795,407.894,43.135z M400.329,39.108
			c-1.634,0-3.002,1.254-3.344,2.813h5.816c0-0.115,0.036-0.229,0.036-0.381C402.839,40.362,401.813,39.108,400.329,39.108z"/>
		<path fill="#80297F" d="M421.349,41.426c-0.34-0.191-1.104-0.417-1.671-0.417c-1.786,0-3.422,0.95-3.422,3.687v8.02h-5.587V35.497
			h5.512v3.839h0.038c0.569-2.697,2.585-4.142,4.902-4.142c0.532,0,1.18,0.076,1.599,0.229L421.349,41.426z"/>
		<path fill="#80297F" d="M436.468,40.058h-4.484v6.385c0,1.483,0.797,2.092,2.279,2.092c0.646,0,1.025-0.037,1.444-0.229
			l-0.495,4.218c-0.531,0.267-1.481,0.457-2.586,0.457c-3.876,0-6.193-2.053-6.193-5.472V40.06h-2.89v-4.562h2.89v-3.687
			l5.547-2.016v5.702h5.549L436.468,40.058z"/>
		<path fill="#80297F" d="M451.55,53.475c-1.026-0.229-2.204-1.026-2.66-2.28c-0.761,1.407-2.396,2.091-4.485,2.091
			c-3.042,0-5.739-2.129-5.739-5.7c0-3.155,2.471-5.283,5.893-5.625l3.42-0.344v-0.57c0-1.026-0.835-1.71-2.697-1.71
			c-1.672,0-3.535,0.532-4.789,1.33l-0.988-4.219c1.406-0.912,3.763-1.521,6.043-1.521c4.562,0,7.791,2.092,7.791,6.233v5.625
			c0,2.015,0.762,3.079,2.092,3.572L451.55,53.475z M447.976,45.189l-2.091,0.19c-1.443,0.113-2.092,1.14-2.092,2.166
			c0,0.912,0.687,1.671,1.748,1.671c1.33,0,2.434-1.026,2.434-2.509L447.976,45.189L447.976,45.189z"/>
		<path fill="#80297F" d="M462.913,53.093c-2.354,0-4.063-0.494-5.472-1.214l-0.494-4.942c1.521,1.065,3.497,1.862,5.397,1.862
			c1.024,0,1.672-0.533,1.672-1.179c0-0.723-0.57-1.026-1.56-1.331c-3.308-0.95-5.284-2.622-5.284-5.625
			c0-3.383,2.736-5.548,6.461-5.548c2.131,0,4.22,0.57,5.094,1.027l-0.951,4.104c-0.835-0.455-2.203-0.95-3.571-0.95
			c-0.912,0-1.521,0.419-1.521,1.104c0,0.646,0.456,0.988,1.521,1.253c3.879,1.026,5.473,2.965,5.473,5.854
			C469.679,50.434,467.55,53.093,462.913,53.093z"/>
		<path fill="#D9272E" d="M226.45,90.449c-6.688,0-13.073-4.904-13.073-12.732c0-7.754,6.349-12.693,13.073-12.693
			c6.689,0,13.037,4.904,13.037,12.693C239.487,85.508,233.179,90.449,226.45,90.449z M226.45,70.304
			c-3.647,0-7.068,2.967-7.068,7.486c0,4.523,3.421,7.488,7.068,7.488c3.611,0,7.07-2.965,7.07-7.488
			C233.521,73.269,230.062,70.304,226.45,70.304z"/>
		<path fill="#D9272E" d="M252.183,90.373c-1.824,0-3.688-0.57-4.37-1.143v9.428h-5.438V72.66h4.903v2.131h0.038
			c0.95-1.748,2.927-2.623,5.322-2.623c4.218,0,8.284,3.191,8.284,9.086C260.925,86.801,256.972,90.373,252.183,90.373z
			 M251.194,77.031c-1.635,0-2.774,0.875-3.382,1.787v5.398c0.531,0.721,1.672,1.52,3.382,1.52c2.433,0,4.144-1.861,4.144-4.334
			C255.338,78.931,253.627,77.031,251.194,77.031z"/>
		<path fill="#D9272E" d="M279.473,80.301l-2.472,2.51h-8.438c0.267,1.406,2.167,3.002,5.094,3.002c1.786,0,3.61-0.531,4.751-1.291
			l-0.532,4.789c-1.292,0.686-3.269,1.141-5.472,1.141c-5.246,0-9.464-3.646-9.464-9.273c0-5.549,4.028-9.084,8.969-9.084
			c4.789,0,7.716,3.307,7.716,6.881C279.625,79.388,279.55,79.959,279.473,80.301z M271.909,76.273
			c-1.634,0-3.002,1.254-3.345,2.812h5.815c0-0.115,0.038-0.23,0.038-0.381C274.417,77.527,273.393,76.273,271.909,76.273z"/>
		<path fill="#D9272E" d="M293.118,89.881V79.312c0-1.254-0.837-2.355-2.547-2.355c-1.672,0-2.736,1.064-2.736,2.432v10.492h-5.588
			V72.662h5.132v2.318h0.038c0.685-1.824,2.471-2.852,5.245-2.852c3.763,0,6.043,2.131,6.043,5.777v11.973L293.118,89.881
			L293.118,89.881z"/>
		<path fill="#D9272E" d="M305.053,70.304c-0.988,0-3.003-2.014-3.003-3.002s2.015-2.965,3.003-2.965
			c0.987,0,3.003,1.977,3.003,2.965S306.041,70.304,305.053,70.304z M302.24,89.881V72.66h5.625v17.221H302.24z"/>
		<path fill="#D9272E" d="M322.271,89.881V79.312c0-1.254-0.836-2.355-2.547-2.355c-1.674,0-2.736,1.064-2.736,2.432v10.492h-5.588
			V72.662h5.131v2.318h0.038c0.685-1.824,2.471-2.852,5.245-2.852c3.764,0,6.044,2.131,6.044,5.777v11.973L322.271,89.881
			L322.271,89.881z"/>
		<path fill="#D9272E" d="M338.88,98.658c-5.017,0-8.359-2.85-8.359-6.461c0-2.621,1.747-4.18,3.534-4.635l-2.204-2.205
			c0.151-1.102,1.103-2.053,2.09-2.471c-1.291-0.797-2.509-2.432-2.509-4.598c0-3.648,2.622-6.195,7.107-6.195
			c1.026,0,1.825,0.152,2.548,0.342c0.76,0.189,1.597,0.303,2.471,0.303c0.949,0,1.938-0.229,2.699-0.57l1.025,4.258
			c-0.533,0.303-1.369,0.568-2.129,0.531c0.191,0.344,0.417,1.143,0.417,1.75c0,2.889-2.278,5.32-5.624,5.549
			c-0.686,0.037-1.142,0.189-1.142,0.646c0,0.189,0.152,0.416,0.456,0.529l2.658,0.951c3.384,1.217,5.208,2.926,5.208,6.08
			C347.127,96,343.896,98.658,338.88,98.658z M340.058,90.562l-2.053-0.568c-1.33,0.037-2.316,0.986-2.316,2.24
			c0,1.18,1.024,2.166,3.04,2.166c1.977,0,3.04-0.912,3.04-1.9C341.769,91.703,341.161,90.867,340.058,90.562z M338.539,76.158
			c-1.253,0-2.204,0.949-2.204,2.055c0,1.141,0.951,2.053,2.204,2.053c1.216,0,2.204-0.912,2.204-2.053
			C340.743,77.107,339.83,76.158,338.539,76.158z"/>
		<path fill="#D9272E" d="M366.55,89.881h-8.172v-24.25h8.172c6.955,0,13,4.561,13,12.125
			C379.55,85.279,373.544,89.881,366.55,89.881z M365.979,70.459h-1.899V85.09h1.899c4.183,0,7.641-2.434,7.641-7.299
			S370.2,70.459,365.979,70.459z"/>
		<path fill="#D9272E" d="M391.18,90.41c-5.207,0-9.389-3.686-9.389-9.16c0-5.473,4.182-9.158,9.389-9.158
			c5.17,0,9.389,3.686,9.389,9.158C400.568,86.724,396.35,90.41,391.18,90.41z M391.18,76.957c-2.091,0-3.876,1.822-3.876,4.369
			c0,2.549,1.785,4.371,3.876,4.371c2.054,0,3.878-1.822,3.878-4.371C395.058,78.781,393.233,76.957,391.18,76.957z"/>
		<path fill="#D9272E" d="M412.009,90.41c-5.207,0-9.388-3.686-9.388-9.16c0-5.473,4.181-9.158,9.388-9.158
			c5.169,0,9.388,3.686,9.388,9.158C421.396,86.724,417.178,90.41,412.009,90.41z M412.009,76.957c-2.092,0-3.878,1.822-3.878,4.369
			c0,2.549,1.786,4.371,3.878,4.371c2.054,0,3.877-1.822,3.877-4.371C415.886,78.781,414.062,76.957,412.009,76.957z"/>
		<path fill="#D9272E" d="M434.775,78.592c-0.342-0.191-1.104-0.418-1.672-0.418c-1.787,0-3.421,0.951-3.421,3.686v8.021h-5.587
			V72.66h5.511v3.84h0.038c0.569-2.697,2.584-4.141,4.903-4.141c0.53,0,1.18,0.076,1.598,0.229L434.775,78.592z"/>
		<path fill="#D9272E" d="M443.632,90.258c-2.356,0-4.065-0.492-5.473-1.213l-0.494-4.943c1.521,1.066,3.497,1.863,5.397,1.863
			c1.025,0,1.672-0.533,1.672-1.18c0-0.723-0.569-1.025-1.561-1.33c-3.307-0.951-5.281-2.623-5.281-5.625
			c0-3.383,2.734-5.549,6.46-5.549c2.13,0,4.219,0.57,5.094,1.027l-0.95,4.102c-0.837-0.453-2.205-0.949-3.573-0.949
			c-0.911,0-1.52,0.42-1.52,1.104c0,0.648,0.455,0.988,1.52,1.254c3.877,1.027,5.475,2.965,5.475,5.855
			C450.397,87.599,448.269,90.258,443.632,90.258z"/>
	</g>
	<g>
		<ellipse fill="#80297F" cx="154.069" cy="60.939" rx="3.024" ry="2.94"/>
		<rect x="66.351" y="17.937" opacity="0.8" fill="#5BB3CF" enable-background="new    " width="52.602" height="74.95"/>
		<path fill="#258691" stroke="#FFFFFF" stroke-width="1.62" stroke-miterlimit="10" d="M120.377,92.027H62.666
			c0,0,11.946-9.5,28.24-14.549c17.02-5.273,28.96-3.637,28.96-3.637L120.377,92.027z"/>
		<path fill="#258691" stroke="#FFFFFF" stroke-width="1.62" stroke-miterlimit="10" d="M60.834,92.449h56.342
			c0,0-11.888-9.697-28.242-14.549c-15.457-4.584-27.133-3.637-27.133-3.637L60.834,92.449z"/>
		<path fill="#EB8C23" stroke="#FFFFFF" stroke-width="1.62" stroke-miterlimit="10" d="M88.771,77.83c0,0,3.42,1.217,4.029,3.115
			c0.64,1.996-0.415,3.867-6.062,4.893c-14.919,2.711-18.041,6.754-18.041,6.754h50.317c0,0-2.499-6.553-11.165-10.504
			C98.218,77.691,88.771,77.83,88.771,77.83z"/>
		<polygon fill="none" points="65.896,17.176 65.896,92.886 67.264,92.886 67.264,18.089 117.888,18.089 117.888,92.886 
			119.713,92.886 119.713,17.176 		"/>
		<g>
			<polygon fill="#80297F" points="118.8,93.797 118.8,18.089 66.807,18.089 66.807,93.797 60.424,93.797 60.424,11.704 
				125.186,11.704 125.186,93.797 			"/>
			<path fill="#FFFFFF" d="M124.273,12.615v80.271h-4.562v-75.71H65.895v75.708h-4.561v-80.27L124.273,12.615 M126.097,10.791
				h-1.823H61.336h-1.824v1.824v80.271v1.822h1.824h4.561h1.824v-1.822V19.001h50.168v73.883v1.824h1.824h4.562h1.823v-1.824v-80.27
				L126.097,10.791L126.097,10.791z"/>
		</g>
		<g>
			<g>
				<path fill="#FAE30A" d="M94.141,32.599c1.917,0.342,3.62-7.849,1.491-8.728c-0.188-0.059-0.297-0.146-0.641,0
					C93.682,24.17,92.061,32.228,94.141,32.599z"/>
			</g>
			<g>
				<path fill="#FAE30A" d="M85.629,32.812c1.839-0.924-2.28-8.719-3.832-8.089c-0.579,0.244-0.286,1.19-0.237,1.877
					C81.768,29.576,84.135,33.315,85.629,32.812z"/>
			</g>
			<g>
				<path fill="#FAE30A" d="M107.582,33.355c0.354-0.386,0.863-0.866,0.821-1.182c-0.054-0.141-0.211-0.425-0.354-0.584
					c-0.401-0.449-0.824-0.651-1.408-0.325c-0.33,0.234-0.824,0.566-1.895,1.212c-1.638,1.011-3.823,1.985-2.944,3.528
					C102.862,37.121,106.185,34.878,107.582,33.355z"/>
			</g>
			<g>
				<path fill="#FAE30A" d="M81.371,37.281c0.604-1.955-3.654-4.435-6.09-5.11c-0.803-0.226-1.406-0.251-1.572,0.002
					c-0.398,0.58,0.368,1.338,1.016,2.05C76.56,36.249,80.331,38.188,81.371,37.281z"/>
			</g>
			<g>
				<path fill="#FAE30A" d="M113.938,41.752c-0.252-1.731-5.381-0.76-7.868,0.446c-0.375,0.2-1.045,0.497-1.072,0.83
					c0.046,1.287,0.78,1.509,2.398,1.399C109.383,44.168,114.23,42.957,113.938,41.752z"/>
			</g>
			<g>
				<path fill="#FAE30A" d="M79.881,43.242c0.013-2.455-7.234-2.145-8.515-0.213v0.427C72.024,44.904,79.673,45.346,79.881,43.242z"
					/>
			</g>
			<g>
				<path fill="#FAE30A" d="M109.041,50.478c-1.57-1.078-3.124-2.51-5.176-2.339c-0.438,0.662-0.712,0.922-0.571,1.701
					c2.173,1.682,7.411,4.844,7.876,4.044C112.47,52.037,110.228,51.293,109.041,50.478z"/>
			</g>
			<g>
				<path fill="#FAE30A" d="M75.562,53.167c-0.232,0.379-0.6,0.632-0.365,1.143c0.278,0.461,1.08,0.171,1.625-0.017
					c2.064-0.889,4.922-2.186,4.123-3.603C79.965,49.085,76.925,51.409,75.562,53.167z"/>
			</g>
			<g>
				<path fill="#FAE30A" d="M98.569,54.097c-0.514,0.588-0.272,1.128,0.122,2.188c0.922,2.467,3.115,5.901,4.391,5.688
					c0.532-0.162,0.989-0.402,1.062-1.062c-0.145-0.877-0.972-2.458-1.382-3.503C101.717,54.741,100.188,52.185,98.569,54.097z"/>
			</g>
			<g>
				<path fill="#FAE30A" d="M93.292,56.013c-1.809,0.056-1.863,4.577-1.083,7.141c0.179,0.584,0.323,1.217,0.7,1.385
					c0.418,0.068,0.71-0.176,0.972-0.604C95.062,61.99,94.667,56.01,93.292,56.013z"/>
			</g>
			<g>
				<path fill="#FAE30A" d="M101.493,49.207c1.648-2.315,2.741-6.142,1.163-10.01c-4.714-9.132-21.034,1.26-12.56,9.153
					c2.821,1.745,5.439-0.084,6.497-1.987c1.311-2.36,0.873-5.725-1.92-5.576c-0.594,0.054-1.766,0.072-2.236,0.965
					c-0.778,1.756,2.236,2.049,0.213,2.979c-0.771-0.122-1.518-1.149-1.538-1.888c-0.776-3.456,7.51-7.312,8.775-1.732
					c1.087,4.792-3.954,9.162-7.662,9.579c-9.012,1.012-8.598-8.489-4.47-12.132c3.177-2.804,3.618-2.914,2.979-4.896
					c-1.21-3.393-6.668,1.88-8.738,5.952c-3.328,6.552,1.851,14.93,9.154,14.45C95.054,53.81,99.217,52.405,101.493,49.207z"/>
			</g>
			<g>
				<path fill="#FAE30A" d="M86.903,54.736c-2.084-0.197-5.1,6.713-4.043,7.663C84.526,62.994,89.38,55.714,86.903,54.736z"/>
			</g>
		</g>
		<g>
			<polygon fill="#EB8C23" points="119.027,93.318 119.027,18.173 149.57,10.048 149.57,107.656 			"/>
			<path fill="#FFFFFF" d="M148.887,10.938v95.642l-29.175-13.693V18.698L148.887,10.938 M150.256,9.157l-1.723,0.457l-29.173,7.763
				l-1.017,0.271v1.051v74.188v0.869l0.786,0.367l29.174,13.695l1.949,0.914v-2.152V10.938v-1.78H150.256z"/>
		</g>
		<rect x="150.56" y="10.938" fill="#D9272E" width="3.509" height="95.929"/>
		<ellipse fill="#80297F" cx="142.972" cy="61.113" rx="3.203" ry="3.113"/>
	</g>
	<g enable-background="new    ">
		<path fill="#80297F" d="M519.501,52.439h-8.266V30.097h7.32c3.467,0,6.548,2.276,6.548,5.918c0,1.331-0.665,3.012-1.856,3.677
			c1.961,0.631,3.888,2.941,3.888,5.778C527.135,49.813,523.702,52.439,519.501,52.439z M517.714,34.125h-1.61v4.587h1.61
			c1.297,0,2.486-0.665,2.486-2.276C520.2,34.79,519.011,34.125,517.714,34.125z M518.59,42.634h-2.486v5.849h2.486
			c1.646,0,3.327-0.876,3.327-2.906C521.917,43.58,520.271,42.634,518.59,42.634z"/>
		<path fill="#80297F" d="M540.269,52.439v-2.171h-0.035c-0.631,1.681-2.312,2.626-4.868,2.626c-3.467,0-5.567-1.926-5.567-5.288
			v-11.03h5.146v9.735c0,1.155,0.807,2.171,2.382,2.171c1.541,0,2.486-1.016,2.486-2.276v-9.63h5.147v15.863H540.269z"/>
		<path fill="#80297F" d="M550.81,34.404c-0.91,0-2.766-1.855-2.766-2.766c0-0.911,1.855-2.732,2.766-2.732
			c0.911,0,2.768,1.821,2.768,2.732C553.577,32.549,551.721,34.404,550.81,34.404z M548.219,52.439V36.576h5.183v15.863H548.219z"/>
		<path fill="#80297F" d="M562.227,53.069c-3.257-0.14-5.428-1.82-5.428-5.638V27.506h5.077v19.296c0,1.295,0.736,1.996,2.137,2.101
			L562.227,53.069z"/>
		<path fill="#80297F" d="M577.491,52.439v-1.961h-0.035c-0.875,1.61-2.696,2.416-4.902,2.416c-3.887,0-7.635-2.941-7.635-8.369
			c0-5.113,3.643-8.439,8.055-8.439c1.682,0,3.396,0.56,4.027,1.085v-9.665h5.008v24.934H577.491z M577.001,42.039
			c-0.49-0.666-1.541-1.436-3.117-1.436c-2.24,0-3.816,1.75-3.816,4.026s1.576,4.027,3.816,4.027c1.506,0,2.557-0.806,3.117-1.646
			V42.039z"/>
		<path fill="#80297F" d="M587.964,34.404c-0.91,0-2.767-1.855-2.767-2.766c0-0.911,1.856-2.732,2.767-2.732
			s2.766,1.821,2.766,2.732C590.729,32.549,588.874,34.404,587.964,34.404z M585.372,52.439V36.576h5.184v15.863H585.372z"/>
		<path fill="#80297F" d="M603.827,52.439v-9.735c0-1.155-0.771-2.171-2.346-2.171c-1.541,0-2.521,0.98-2.521,2.241v9.665h-5.148
			V36.576h4.729v2.136h0.034c0.63-1.681,2.276-2.626,4.833-2.626c3.467,0,5.568,1.961,5.568,5.322v11.031H603.827z"/>
		<path fill="#80297F" d="M619.132,60.529c-4.622,0-7.703-2.627-7.703-5.954c0-2.416,1.61-3.852,3.256-4.271l-2.031-2.031
			c0.141-1.016,1.016-1.892,1.926-2.276c-1.189-0.735-2.311-2.241-2.311-4.237c0-3.362,2.416-5.708,6.549-5.708
			c0.945,0,1.681,0.14,2.346,0.315c0.701,0.175,1.471,0.279,2.276,0.279c0.876,0,1.786-0.21,2.486-0.524l0.946,3.922
			c-0.49,0.28-1.262,0.525-1.962,0.49c0.175,0.315,0.386,1.051,0.386,1.61c0,2.662-2.102,4.903-5.184,5.113
			c-0.63,0.035-1.051,0.175-1.051,0.595c0,0.176,0.141,0.386,0.421,0.49l2.451,0.876c3.116,1.12,4.798,2.696,4.798,5.603
			C626.731,58.077,623.755,60.529,619.132,60.529z M620.218,53.069l-1.891-0.524c-1.227,0.034-2.137,0.91-2.137,2.065
			c0,1.086,0.945,1.996,2.802,1.996c1.821,0,2.802-0.84,2.802-1.751C621.794,54.12,621.233,53.349,620.218,53.069z M618.817,39.798
			c-1.156,0-2.031,0.875-2.031,1.891c0,1.051,0.875,1.892,2.031,1.892c1.12,0,2.031-0.841,2.031-1.892
			C620.849,40.673,620.008,39.798,618.817,39.798z"/>
		<path fill="#80297F" d="M648.06,53.139c-0.945-0.21-2.031-0.945-2.451-2.101c-0.701,1.295-2.207,1.926-4.133,1.926
			c-2.801,0-5.287-1.961-5.287-5.253c0-2.906,2.275-4.867,5.428-5.183l3.151-0.315v-0.525c0-0.945-0.771-1.575-2.486-1.575
			c-1.541,0-3.257,0.49-4.413,1.226l-0.91-3.888c1.296-0.84,3.467-1.4,5.568-1.4c4.202,0,7.179,1.926,7.179,5.743v5.183
			c0,1.855,0.7,2.837,1.927,3.292L648.06,53.139z M644.768,45.506l-1.927,0.175c-1.33,0.105-1.926,1.051-1.926,1.996
			c0,0.841,0.631,1.541,1.611,1.541c1.226,0,2.241-0.945,2.241-2.312V45.506z"/>
		<path fill="#80297F" d="M669.808,52.439h-8.266V30.097h7.32c3.467,0,6.548,2.276,6.548,5.918c0,1.331-0.665,3.012-1.856,3.677
			c1.961,0.631,3.888,2.941,3.888,5.778C677.441,49.813,674.009,52.439,669.808,52.439z M668.021,34.125h-1.61v4.587h1.61
			c1.297,0,2.486-0.665,2.486-2.276C670.507,34.79,669.317,34.125,668.021,34.125z M668.896,42.634h-2.486v5.849h2.486
			c1.646,0,3.327-0.876,3.327-2.906C672.224,43.58,670.577,42.634,668.896,42.634z"/>
		<path fill="#80297F" d="M694.707,43.614l-2.276,2.312h-7.773c0.244,1.296,1.996,2.767,4.691,2.767c1.646,0,3.328-0.49,4.378-1.19
			l-0.49,4.412c-1.19,0.631-3.012,1.051-5.042,1.051c-4.834,0-8.721-3.362-8.721-8.545c0-5.112,3.713-8.369,8.265-8.369
			c4.413,0,7.108,3.047,7.108,6.338C694.847,42.774,694.777,43.3,694.707,43.614z M687.738,39.902c-1.506,0-2.767,1.156-3.081,2.592
			h5.357c0-0.105,0.035-0.21,0.035-0.351C690.05,41.058,689.104,39.902,687.738,39.902z"/>
		<path fill="#80297F" d="M707.91,40.778h-4.132v5.883c0,1.366,0.734,1.926,2.101,1.926c0.596,0,0.946-0.034,1.331-0.21
			l-0.455,3.888c-0.49,0.245-1.366,0.42-2.381,0.42c-3.572,0-5.709-1.891-5.709-5.043v-6.863h-2.661v-4.202h2.661v-3.397
			l5.113-1.855v5.253h5.112L707.91,40.778z"/>
		<path fill="#80297F" d="M721.638,40.778h-4.132v5.883c0,1.366,0.735,1.926,2.101,1.926c0.596,0,0.946-0.034,1.332-0.21
			l-0.456,3.888c-0.49,0.245-1.366,0.42-2.381,0.42c-3.572,0-5.708-1.891-5.708-5.043v-6.863h-2.662v-4.202h2.662v-3.397
			l5.112-1.855v5.253h5.112L721.638,40.778z"/>
		<path fill="#80297F" d="M738.588,43.614l-2.276,2.312h-7.773c0.244,1.296,1.996,2.767,4.691,2.767c1.646,0,3.328-0.49,4.378-1.19
			l-0.49,4.412c-1.19,0.631-3.012,1.051-5.042,1.051c-4.834,0-8.721-3.362-8.721-8.545c0-5.112,3.713-8.369,8.265-8.369
			c4.413,0,7.108,3.047,7.108,6.338C738.728,42.774,738.658,43.3,738.588,43.614z M731.619,39.902c-1.506,0-2.767,1.156-3.081,2.592
			h5.357c0-0.105,0.035-0.21,0.035-0.351C733.931,41.058,732.985,39.902,731.619,39.902z"/>
		<path fill="#80297F" d="M750.985,42.039c-0.314-0.176-1.016-0.386-1.541-0.386c-1.646,0-3.151,0.876-3.151,3.397v7.389h-5.147
			V36.576h5.078v3.537h0.035c0.524-2.487,2.381-3.817,4.517-3.817c0.49,0,1.086,0.07,1.471,0.21L750.985,42.039z"/>
		<path fill="#80297F" d="M767.481,34.545v4.412h6.338v4.553h-6.338v8.93h-5.323V30.097h12.992v4.447H767.481z"/>
		<path fill="#80297F" d="M786.877,52.439v-2.171h-0.035c-0.63,1.681-2.312,2.626-4.868,2.626c-3.467,0-5.567-1.926-5.567-5.288
			v-11.03h5.147v9.735c0,1.155,0.806,2.171,2.381,2.171c1.541,0,2.486-1.016,2.486-2.276v-9.63h5.148v15.863H786.877z"/>
		<path fill="#80297F" d="M805.298,40.778h-4.133v5.883c0,1.366,0.736,1.926,2.102,1.926c0.596,0,0.945-0.034,1.331-0.21
			l-0.456,3.888c-0.49,0.245-1.365,0.42-2.381,0.42c-3.572,0-5.708-1.891-5.708-5.043v-6.863h-2.661v-4.202h2.661v-3.397
			l5.112-1.855v5.253h5.113L805.298,40.778z"/>
		<path fill="#80297F" d="M818.466,52.439v-2.171h-0.035c-0.63,1.681-2.311,2.626-4.867,2.626c-3.467,0-5.568-1.926-5.568-5.288
			v-11.03h5.148v9.735c0,1.155,0.805,2.171,2.381,2.171c1.541,0,2.486-1.016,2.486-2.276v-9.63h5.148v15.863H818.466z"/>
		<path fill="#80297F" d="M836.082,42.039c-0.315-0.176-1.016-0.386-1.541-0.386c-1.646,0-3.151,0.876-3.151,3.397v7.389h-5.148
			V36.576h5.078v3.537h0.035c0.525-2.487,2.381-3.817,4.518-3.817c0.49,0,1.086,0.07,1.471,0.21L836.082,42.039z"/>
		<path fill="#80297F" d="M852.466,43.614l-2.276,2.312h-7.774c0.245,1.296,1.996,2.767,4.692,2.767c1.646,0,3.327-0.49,4.378-1.19
			l-0.49,4.412c-1.191,0.631-3.012,1.051-5.043,1.051c-4.833,0-8.72-3.362-8.72-8.545c0-5.112,3.712-8.369,8.265-8.369
			c4.412,0,7.108,3.047,7.108,6.338C852.605,42.774,852.536,43.3,852.466,43.614z M845.497,39.902c-1.506,0-2.767,1.156-3.082,2.592
			h5.357c0-0.105,0.035-0.21,0.035-0.351C847.808,41.058,846.862,39.902,845.497,39.902z"/>
	</g>
	<g enable-background="new    ">
		<path fill="#80297F" d="M521.497,72.581v17.895h-5.428V72.581h-6.409v-4.447h18.245v4.447H521.497z"/>
		<path fill="#80297F" d="M539.848,90.475V80.74c0-1.155-0.806-2.171-2.382-2.171c-1.54,0-2.486,0.98-2.486,2.241v9.665h-5.147
			V65.542h5.078v10.541h0.034c0.807-1.226,2.277-1.961,4.482-1.961c3.502,0,5.568,1.961,5.568,5.322v11.031H539.848z"/>
		<path fill="#80297F" d="M557.919,80.075c-0.315-0.176-1.016-0.386-1.541-0.386c-1.646,0-3.152,0.876-3.152,3.397v7.389h-5.146
			V74.612h5.077v3.537h0.035c0.524-2.487,2.381-3.817,4.517-3.817c0.49,0,1.086,0.07,1.471,0.21L557.919,80.075z"/>
		<path fill="#80297F" d="M567.753,90.966c-4.797,0-8.649-3.396-8.649-8.439s3.853-8.439,8.649-8.439c4.764,0,8.65,3.396,8.65,8.439
			S572.517,90.966,567.753,90.966z M567.753,78.569c-1.926,0-3.571,1.681-3.571,4.027c0,2.346,1.646,4.026,3.571,4.026
			c1.892,0,3.572-1.681,3.572-4.026C571.325,80.25,569.645,78.569,567.753,78.569z"/>
		<path fill="#80297F" d="M589.362,90.475v-2.171h-0.035c-0.631,1.681-2.312,2.626-4.868,2.626c-3.467,0-5.567-1.926-5.567-5.288
			v-11.03h5.146v9.735c0,1.155,0.807,2.171,2.382,2.171c1.541,0,2.486-1.016,2.486-2.276v-9.63h5.147v15.863H589.362z"/>
		<path fill="#80297F" d="M604.211,98.565c-4.622,0-7.704-2.627-7.704-5.954c0-2.416,1.611-3.852,3.257-4.271l-2.031-2.031
			c0.14-1.016,1.016-1.892,1.926-2.276c-1.19-0.735-2.312-2.241-2.312-4.237c0-3.362,2.417-5.708,6.549-5.708
			c0.945,0,1.682,0.14,2.347,0.315c0.7,0.175,1.471,0.279,2.276,0.279c0.875,0,1.785-0.21,2.486-0.524l0.945,3.922
			c-0.49,0.28-1.261,0.525-1.961,0.49c0.175,0.315,0.385,1.051,0.385,1.61c0,2.662-2.102,4.903-5.183,5.113
			c-0.63,0.035-1.051,0.175-1.051,0.595c0,0.176,0.14,0.386,0.421,0.49l2.451,0.876c3.116,1.12,4.797,2.696,4.797,5.603
			C611.81,96.113,608.833,98.565,604.211,98.565z M605.296,91.105l-1.891-0.524c-1.226,0.034-2.137,0.91-2.137,2.065
			c0,1.086,0.946,1.996,2.803,1.996c1.82,0,2.801-0.84,2.801-1.751C606.872,92.156,606.312,91.385,605.296,91.105z M603.896,77.834
			c-1.155,0-2.031,0.875-2.031,1.891c0,1.051,0.876,1.892,2.031,1.892c1.121,0,2.031-0.841,2.031-1.892
			C605.927,78.709,605.087,77.834,603.896,77.834z"/>
		<path fill="#80297F" d="M624.138,90.475V80.74c0-1.155-0.805-2.171-2.381-2.171c-1.541,0-2.486,0.98-2.486,2.241v9.665h-5.148
			V65.542h5.078v10.541h0.035c0.805-1.226,2.275-1.961,4.482-1.961c3.502,0,5.568,1.961,5.568,5.322v11.031H624.138z"/>
		<path fill="#80297F" d="M649.073,81.685h-3.293v8.79h-5.217V68.134h8.51c3.816,0,7.213,2.556,7.213,6.759
			C656.286,79.094,652.925,81.685,649.073,81.685z M648.302,72.51h-2.521v5.008h2.521c1.401,0,2.768-0.771,2.768-2.486
			C651.069,73.351,649.703,72.51,648.302,72.51z"/>
		<path fill="#80297F" d="M668.998,91.176c-0.945-0.21-2.03-0.945-2.451-2.101c-0.7,1.295-2.206,1.926-4.132,1.926
			c-2.802,0-5.288-1.961-5.288-5.253c0-2.906,2.276-4.867,5.428-5.183l3.151-0.315v-0.525c0-0.945-0.77-1.575-2.486-1.575
			c-1.541,0-3.256,0.49-4.412,1.226l-0.91-3.888c1.295-0.84,3.467-1.4,5.568-1.4c4.201,0,7.178,1.926,7.178,5.743v5.183
			c0,1.855,0.701,2.837,1.927,3.292L668.998,91.176z M665.706,83.542l-1.926,0.175c-1.33,0.105-1.926,1.051-1.926,1.996
			c0,0.841,0.631,1.541,1.611,1.541c1.225,0,2.24-0.945,2.24-2.312V83.542z"/>
		<path fill="#80297F" d="M684.128,80.075c-0.316-0.176-1.016-0.386-1.541-0.386c-1.646,0-3.152,0.876-3.152,3.397v7.389h-5.147
			V74.612h5.077v3.537h0.035c0.525-2.487,2.381-3.817,4.518-3.817c0.49,0,1.086,0.07,1.471,0.21L684.128,80.075z"/>
		<path fill="#80297F" d="M700.511,81.65l-2.276,2.312h-7.774c0.245,1.296,1.996,2.767,4.692,2.767c1.646,0,3.327-0.49,4.378-1.19
			l-0.49,4.412c-1.191,0.631-3.012,1.051-5.043,1.051c-4.833,0-8.72-3.362-8.72-8.545c0-5.112,3.712-8.369,8.265-8.369
			c4.412,0,7.108,3.047,7.108,6.338C700.65,80.81,700.581,81.336,700.511,81.65z M693.542,77.938c-1.506,0-2.767,1.156-3.082,2.592
			h5.357c0-0.105,0.035-0.21,0.035-0.351C695.853,79.094,694.907,77.938,693.542,77.938z"/>
		<path fill="#80297F" d="M713.083,90.475V80.74c0-1.155-0.77-2.171-2.346-2.171c-1.541,0-2.521,0.98-2.521,2.241v9.665h-5.147
			V74.612h4.728v2.136h0.035c0.63-1.681,2.275-2.626,4.832-2.626c3.467,0,5.568,1.961,5.568,5.322v11.031H713.083z"/>
		<path fill="#80297F" d="M731.96,78.814h-4.133v5.883c0,1.366,0.736,1.926,2.102,1.926c0.596,0,0.945-0.034,1.331-0.21
			l-0.456,3.888c-0.49,0.245-1.365,0.42-2.381,0.42c-3.572,0-5.708-1.891-5.708-5.043v-6.863h-2.661v-4.202h2.661v-3.397
			l5.112-1.855v5.253h5.113L731.96,78.814z"/>
		<path fill="#80297F" d="M742.853,90.475V68.134h5.428v17.895h8.404v4.447H742.853z"/>
		<path fill="#80297F" d="M773.075,81.65l-2.276,2.312h-7.774c0.245,1.296,1.996,2.767,4.692,2.767c1.646,0,3.327-0.49,4.378-1.19
			l-0.49,4.412c-1.191,0.631-3.012,1.051-5.043,1.051c-4.833,0-8.72-3.362-8.72-8.545c0-5.112,3.712-8.369,8.265-8.369
			c4.412,0,7.108,3.047,7.108,6.338C773.215,80.81,773.146,81.336,773.075,81.65z M766.106,77.938c-1.506,0-2.767,1.156-3.082,2.592
			h5.357c0-0.105,0.035-0.21,0.035-0.351C768.417,79.094,767.472,77.938,766.106,77.938z"/>
		<path fill="#80297F" d="M786.591,91.176c-0.945-0.21-2.03-0.945-2.451-2.101c-0.699,1.295-2.205,1.926-4.132,1.926
			c-2.802,0-5.288-1.961-5.288-5.253c0-2.906,2.276-4.867,5.428-5.183l3.152-0.315v-0.525c0-0.945-0.771-1.575-2.486-1.575
			c-1.541,0-3.257,0.49-4.412,1.226l-0.911-3.888c1.296-0.84,3.468-1.4,5.568-1.4c4.202,0,7.179,1.926,7.179,5.743v5.183
			c0,1.855,0.7,2.837,1.926,3.292L786.591,91.176z M783.3,83.542l-1.926,0.175c-1.331,0.105-1.926,1.051-1.926,1.996
			c0,0.841,0.63,1.541,1.61,1.541c1.226,0,2.241-0.945,2.241-2.312V83.542z"/>
		<path fill="#80297F" d="M803.506,90.475v-1.961h-0.034c-0.876,1.61-2.697,2.416-4.903,2.416c-3.888,0-7.634-2.941-7.634-8.369
			c0-5.113,3.642-8.439,8.055-8.439c1.68,0,3.396,0.56,4.026,1.085v-9.665h5.008v24.934H803.506z M803.016,80.075
			c-0.49-0.666-1.54-1.436-3.116-1.436c-2.242,0-3.817,1.75-3.817,4.026s1.575,4.027,3.817,4.027c1.506,0,2.557-0.806,3.116-1.646
			V80.075z"/>
		<path fill="#80297F" d="M825.814,81.65l-2.276,2.312h-7.773c0.244,1.296,1.996,2.767,4.691,2.767c1.646,0,3.328-0.49,4.378-1.19
			l-0.49,4.412c-1.19,0.631-3.012,1.051-5.042,1.051c-4.834,0-8.721-3.362-8.721-8.545c0-5.112,3.713-8.369,8.265-8.369
			c4.413,0,7.108,3.047,7.108,6.338C825.954,80.81,825.885,81.336,825.814,81.65z M818.846,77.938c-1.506,0-2.767,1.156-3.081,2.592
			h5.357c0-0.105,0.035-0.21,0.035-0.351C821.157,79.094,820.212,77.938,818.846,77.938z"/>
		<path fill="#80297F" d="M838.212,80.075c-0.314-0.176-1.016-0.386-1.541-0.386c-1.646,0-3.151,0.876-3.151,3.397v7.389h-5.147
			V74.612h5.078v3.537h0.035c0.524-2.487,2.381-3.817,4.517-3.817c0.49,0,1.086,0.07,1.471,0.21L838.212,80.075z"/>
		<path fill="#80297F" d="M846.372,90.826c-2.171,0-3.746-0.456-5.042-1.121l-0.456-4.553c1.401,0.98,3.223,1.716,4.973,1.716
			c0.946,0,1.541-0.49,1.541-1.085c0-0.665-0.525-0.945-1.436-1.226c-3.047-0.876-4.867-2.417-4.867-5.183
			c0-3.117,2.521-5.113,5.953-5.113c1.961,0,3.887,0.525,4.692,0.945l-0.876,3.782c-0.77-0.42-2.031-0.875-3.291-0.875
			c-0.841,0-1.4,0.385-1.4,1.016c0,0.595,0.42,0.91,1.4,1.155c3.572,0.945,5.043,2.731,5.043,5.393
			C852.606,88.374,850.646,90.826,846.372,90.826z"/>
		<path fill="#80297F" d="M865.214,90.475V80.74c0-1.155-0.805-2.171-2.381-2.171c-1.541,0-2.486,0.98-2.486,2.241v9.665h-5.148
			V65.542h5.078v10.541h0.035c0.805-1.226,2.275-1.961,4.482-1.961c3.502,0,5.568,1.961,5.568,5.322v11.031H865.214z"/>
		<path fill="#80297F" d="M876.211,72.44c-0.91,0-2.767-1.855-2.767-2.766c0-0.911,1.856-2.732,2.767-2.732
			c0.911,0,2.767,1.821,2.767,2.732C878.978,70.585,877.122,72.44,876.211,72.44z M873.62,90.475V74.612h5.183v15.863H873.62z"/>
		<path fill="#80297F" d="M891.095,90.93c-1.682,0-3.397-0.525-4.027-1.051v8.686h-5.008V74.612h4.518v1.961h0.035
			c0.875-1.611,2.695-2.416,4.902-2.416c3.887,0,7.634,2.941,7.634,8.369C899.148,87.638,895.507,90.93,891.095,90.93z
			 M890.184,78.639c-1.506,0-2.556,0.805-3.116,1.646v4.973c0.49,0.665,1.541,1.4,3.116,1.4c2.241,0,3.817-1.716,3.817-3.992
			S892.425,78.639,890.184,78.639z"/>
	</g>
	
		<line fill="none" stroke="#812A80" stroke-width="3" stroke-linecap="round" stroke-miterlimit="10" x1="489.741" y1="11.704" x2="489.741" y2="106.867"/>
</g>
</svg>
