<?xml version="1.0" encoding="utf-8"?>
<!-- Generator: Adobe Illustrator 16.0.0, SVG Export Plug-In . SVG Version: 6.00 Build 0)  -->
<!DOCTYPE svg PUBLIC "-//W3C//DTD SVG 1.1//EN" "http://www.w3.org/Graphics/SVG/1.1/DTD/svg11.dtd">
<svg version="1.1" id="Layer_1" xmlns="http://www.w3.org/2000/svg" xmlns:xlink="http://www.w3.org/1999/xlink" x="0px" y="0px"
	 width="145.238px" height="94.239px" viewBox="0 0 145.238 94.239" enable-background="new 0 0 145.238 94.239"
	 xml:space="preserve">
<g>
	<path fill="#5C2367" d="M19.87,86.224c-2.826,0.328-6.86-0.09-6.86-0.09s-4.143,0.71-4.143-10.479l-0.12-17.339
		c0-8.912,2.9-12.433,2.9-12.433l9.003-13.057c0.317-0.319,0.314-1.248,0.314-1.248v-6.07L7.7,43.951c0,0-2.654,3.524-2.654,12.434
		v21.964c0.567,5.114,0.237,10.595,5.764,11.319c3.499,0.462,6.987,0.673,9.055,0.748L19.87,86.224"/>
	<path fill="#025957" d="M25.97,16.067c7.513,0.123,12.529,0.998,12.529,0.998v-4.197c-4.442,0.65-8.682,0.93-12.471,0.994
		c0.304-10.72,0.74-10.734,0.74-10.734h-4.73c0,0,0.433,0.014,0.74,10.743c-7.705-0.101-12.875-1.002-12.875-1.002v4.197
		c4.625-0.679,9.026-0.951,12.931-1.001c0.137,5.843,0.239,14.323,0.239,26.644c0,35.516,0.205,46.535-2.085,47.71
		c0,0,2.251,0.041,3.421,0.041s3.272-0.047,3.272-0.047c-2.082-1.545-1.95-13.536-1.95-47.704
		C25.731,30.391,25.832,21.91,25.97,16.067"/>
	<path fill="#5C2367" d="M43.641,78.349V56.385c0-8.91-2.652-12.434-2.652-12.434L27.725,25.509v6.07c0,0-0.006,0.929,0.314,1.248
		l9.001,13.057c0,0,2.903,3.521,2.903,12.433l-0.12,17.339c0,11.188-4.147,10.479-4.147,10.479l-6.923-0.005l-0.005,4.299
		c2.086-0.075,5.609-0.297,9.13-0.76C43.531,88.926,43.216,82.182,43.641,78.349"/>
	<path fill="#5C2367" d="M62.791,27.714c1.834-1.435,4.172-2.14,6.787-2.14c1.357,0,3.266,0.278,4.447,0.604
		c0.302,0.076,0.478,0.127,0.704,0.101c0.025,0.579,0.151,2.165,0.352,3.699c-0.125,0.177-0.502,0.202-0.679,0.051
		c-0.377-1.712-1.508-3.674-5.151-3.674c-3.846,0-7.113,2.44-7.113,7.651c0,5.278,3.342,8.192,7.464,8.192
		c3.241,0,4.675-2.11,5.253-3.594c0.176-0.123,0.553-0.075,0.653,0.102c-0.177,1.306-0.83,2.965-1.207,3.443
		c-0.301,0.048-0.604,0.149-0.88,0.252c-0.553,0.199-2.362,0.577-3.97,0.577c-2.262,0-4.424-0.453-6.258-1.684
		c-2.011-1.383-3.57-3.67-3.57-6.912C59.623,31.588,60.88,29.198,62.791,27.714"/>
	<path fill="#5C2367" d="M81.464,37.375c0.376-0.128,0.402-0.353,0.429-0.73l0.023-1.155c0.026-0.932-0.275-2.189-1.833-2.189
		c-0.705,0-1.561,0.353-1.609,1.131c-0.025,0.404-0.051,0.705-0.252,0.854c-0.376,0.304-1.056,0.478-1.433,0.478
		c-0.226,0-0.352-0.123-0.352-0.35c0-1.308,2.841-3.094,4.676-3.094c1.81,0,2.688,1.056,2.612,2.943l-0.15,4.373
		c-0.05,1.156,0.176,2.187,1.156,2.187c0.252,0,0.479-0.076,0.628-0.15c0.126-0.075,0.251-0.176,0.326-0.176
		c0.102,0,0.177,0.15,0.177,0.327c0,0.126-0.879,1.106-2.111,1.106c-0.603,0-1.206-0.226-1.634-0.778
		c-0.1-0.151-0.251-0.352-0.401-0.352c-0.176,0-0.479,0.226-0.98,0.501c-0.553,0.302-1.105,0.629-1.81,0.629
		c-0.729,0-1.332-0.202-1.76-0.578c-0.477-0.427-0.778-1.055-0.778-1.758c0-0.982,0.478-1.56,2.086-2.137L81.464,37.375
		 M79.906,41.798c0.502,0,1.281-0.378,1.533-0.628c0.301-0.303,0.326-0.653,0.326-1.181l0.05-1.485c0-0.274-0.1-0.326-0.251-0.326
		c-0.15,0-0.576,0.1-1.029,0.25c-1.483,0.504-2.212,0.882-2.212,1.861C78.323,40.715,78.625,41.798,79.906,41.798"/>
	<path fill="#5C2367" d="M89.683,33.729c-0.428,0-0.452,0.075-0.452,0.604v4.699c0,1.458,0.175,2.79,1.835,2.79
		c0.251,0,0.477-0.049,0.679-0.125c0.226-0.074,0.552-0.353,0.627-0.353c0.201,0,0.302,0.279,0.252,0.429
		c-0.452,0.526-1.356,1.156-2.639,1.156c-2.163,0-2.615-1.206-2.615-2.714v-5.755c0-0.68-0.024-0.73-0.526-0.73h-0.705
		c-0.15-0.099-0.176-0.378-0.074-0.528c0.729-0.226,1.357-0.554,1.608-0.781c0.327-0.302,0.805-0.982,1.056-1.484
		c0.125-0.051,0.426-0.051,0.527,0.126v1.132c0,0.454,0.024,0.479,0.451,0.479h2.791c0.302,0.227,0.251,0.906,0.025,1.056H89.683"/>
	<path fill="#5C2367" d="M94.584,28.393c0-1.483-0.026-1.636-0.779-2.088l-0.253-0.152c-0.125-0.075-0.125-0.426,0-0.502
		c0.629-0.201,1.81-0.579,2.716-1.057c0.1,0,0.2,0.049,0.251,0.15c-0.025,0.754-0.076,2.013-0.076,3.121v5.285
		c0,0.226,0.025,0.429,0.102,0.48c0.904-0.706,2.109-1.31,3.392-1.31c2.388,0,3.243,1.484,3.243,3.246v4.195
		c0,1.81,0.05,2.088,0.954,2.188l0.68,0.076c0.176,0.126,0.125,0.553-0.052,0.627c-0.904-0.05-1.633-0.075-2.512-0.075
		c-0.905,0-1.658,0.024-2.339,0.075c-0.175-0.075-0.226-0.501-0.049-0.627l0.502-0.076c0.931-0.15,0.955-0.378,0.955-2.188v-3.593
		c0-1.609-0.779-2.691-2.388-2.691c-0.854,0-1.508,0.303-1.96,0.681c-0.452,0.377-0.528,0.501-0.528,1.381v4.222
		c0,1.81,0.051,2.062,0.956,2.188l0.527,0.076c0.175,0.099,0.125,0.553-0.051,0.627c-0.753-0.05-1.482-0.075-2.363-0.075
		c-0.904,0-1.657,0.024-2.462,0.075c-0.176-0.075-0.226-0.501-0.051-0.627l0.628-0.076c0.931-0.1,0.957-0.378,0.957-2.188V28.393"/>
	<path fill="#5C2367" d="M113.985,37.928c0,1.935-0.679,4.245-2.891,4.245s-3.242-2.462-3.242-4.75c0-2.765,1.232-4.348,2.891-4.348
		C113.132,33.075,113.985,35.791,113.985,37.928 M111.045,32.32c-2.967,0-5.353,2.263-5.353,5.431c0,3.142,2.261,5.177,5.151,5.177
		c3.142,0,5.304-2.262,5.304-5.403C116.147,34.432,113.86,32.32,111.045,32.32"/>
	<path fill="#5C2367" d="M120.596,39.76c0,1.81,0.049,2.062,0.955,2.188l0.603,0.076c0.176,0.126,0.125,0.553-0.05,0.627
		c-0.83-0.05-1.559-0.075-2.438-0.075c-0.905,0-1.659,0.024-2.413,0.075c-0.175-0.075-0.227-0.501-0.051-0.627l0.58-0.076
		c0.929-0.126,0.954-0.378,0.954-2.188V28.393c0-1.483-0.025-1.636-0.778-2.088l-0.251-0.152c-0.128-0.075-0.128-0.426,0-0.502
		c0.628-0.201,1.809-0.579,2.713-1.057c0.101,0,0.201,0.049,0.252,0.15c-0.026,0.754-0.075,2.013-0.075,3.121V39.76"/>
	<path fill="#5C2367" d="M124.692,35.362c0-0.979,0-1.104-0.68-1.558l-0.227-0.151c-0.1-0.101-0.1-0.377,0.026-0.452
		c0.577-0.202,2.01-0.856,2.589-1.234c0.125,0,0.225,0.05,0.251,0.151c-0.05,0.881-0.102,2.089-0.102,3.12v4.522
		c0,1.81,0.052,2.062,0.957,2.188l0.527,0.076c0.175,0.126,0.125,0.553-0.051,0.627c-0.753-0.05-1.482-0.075-2.362-0.075
		c-0.904,0-1.659,0.024-2.363,0.075c-0.175-0.075-0.226-0.501-0.05-0.627l0.528-0.076c0.93-0.126,0.955-0.378,0.955-2.188V35.362
		 M126.753,27.211c0,0.882-0.629,1.283-1.308,1.283c-0.778,0-1.281-0.554-1.281-1.232c0-0.831,0.629-1.333,1.357-1.333
		C126.274,25.928,126.753,26.506,126.753,27.211"/>
	<path fill="#5C2367" d="M137.409,32.748c0.199,0.176,0.377,0.58,0.377,1.006c0,0.453-0.252,0.93-0.553,0.93
		c-0.126,0-0.251-0.051-0.353-0.177c-0.552-0.679-1.483-1.331-2.513-1.331c-1.76,0-3.47,1.382-3.47,4.047
		c0,1.961,1.357,4.297,4.048,4.297c1.456,0,2.212-0.654,2.788-1.508c0.202-0.049,0.428,0.126,0.454,0.354
		c-0.855,1.86-2.74,2.562-4.199,2.562c-1.331,0-2.562-0.428-3.442-1.283c-0.879-0.854-1.458-2.085-1.458-3.718
		c0-2.715,1.911-5.608,6.083-5.608C135.75,32.32,136.729,32.446,137.409,32.748"/>
	<path fill="#5C2367" d="M62.791,51.18c1.834-1.433,4.172-2.136,6.787-2.136c1.357,0,3.266,0.274,4.447,0.603
		c0.302,0.076,0.478,0.126,0.704,0.101c0.025,0.578,0.151,2.16,0.352,3.694c-0.125,0.176-0.502,0.2-0.679,0.05
		c-0.377-1.708-1.508-3.668-5.151-3.668c-3.846,0-7.113,2.438-7.113,7.64c0,5.278,3.342,8.194,7.464,8.194
		c3.241,0,4.675-2.112,5.253-3.596c0.176-0.123,0.553-0.074,0.653,0.102c-0.177,1.307-0.83,2.966-1.207,3.443
		c-0.301,0.051-0.604,0.15-0.88,0.25c-0.553,0.201-2.362,0.579-3.97,0.579c-2.262,0-4.424-0.453-6.258-1.684
		c-2.011-1.383-3.57-3.669-3.57-6.912C59.623,55.05,60.88,52.664,62.791,51.18"/>
	<path fill="#5C2367" d="M77.72,51.859c0-1.482-0.026-1.633-0.778-2.086l-0.252-0.151c-0.126-0.075-0.126-0.428,0-0.501
		c0.628-0.202,1.81-0.58,2.714-1.058c0.1,0,0.202,0.051,0.252,0.151c-0.025,0.756-0.076,2.013-0.076,3.119v5.276
		c0,0.226,0.026,0.427,0.101,0.478c0.904-0.706,2.111-1.308,3.393-1.308c2.388,0,3.242,1.483,3.242,3.244v4.194
		c0,1.811,0.052,2.088,0.956,2.188l0.678,0.075c0.176,0.126,0.126,0.553-0.051,0.629c-0.904-0.052-1.634-0.076-2.512-0.076
		c-0.905,0-1.66,0.024-2.337,0.076c-0.177-0.076-0.229-0.503-0.052-0.629l0.503-0.075c0.931-0.15,0.954-0.378,0.954-2.188v-3.592
		c0-1.61-0.778-2.691-2.386-2.691c-0.855,0-1.509,0.303-1.962,0.681c-0.451,0.376-0.527,0.501-0.527,1.381v4.222
		c0,1.811,0.051,2.062,0.956,2.188l0.526,0.075c0.176,0.101,0.126,0.553-0.051,0.629c-0.752-0.052-1.481-0.076-2.362-0.076
		c-0.904,0-1.658,0.024-2.463,0.076c-0.175-0.076-0.225-0.503-0.049-0.629l0.628-0.075c0.929-0.101,0.955-0.378,0.955-2.188V51.859"
		/>
	<path fill="#5C2367" d="M90.764,63.747c0-0.98,0.729-1.356,2.211-1.861c0.452-0.149,0.88-0.249,1.031-0.249
		c0.15,0,0.25,0.051,0.25,0.325l-0.049,1.484c0,0.527-0.025,0.88-0.328,1.181c-0.251,0.251-1.029,0.629-1.532,0.629
		C91.065,65.255,90.764,64.174,90.764,63.747 M90.914,61.913c-1.608,0.577-2.086,1.155-2.086,2.137c0,0.703,0.302,1.332,0.779,1.76
		c0.427,0.375,1.03,0.577,1.759,0.577c0.703,0,1.257-0.328,1.81-0.629c0.504-0.276,0.805-0.502,0.98-0.502
		c0.15,0,0.303,0.2,0.401,0.352c0.429,0.553,1.031,0.779,1.634,0.779c1.232,0,2.112-0.98,2.112-1.106
		c0-0.176-0.075-0.326-0.177-0.326c-0.075,0-0.201,0.1-0.327,0.176c-0.15,0.074-0.376,0.15-0.628,0.15
		c-0.98,0-1.205-1.031-1.155-2.188l0.15-4.373c0.075-1.885-0.804-2.94-2.613-2.94c-1.835,0-4.676,1.783-4.676,3.093
		c0,0.227,0.126,0.35,0.353,0.35c0.377,0,1.056-0.175,1.433-0.478c0.201-0.15,0.227-0.451,0.251-0.854
		c0.05-0.779,0.904-1.132,1.608-1.132c1.56,0,1.859,1.257,1.835,2.189l-0.025,1.154c-0.025,0.377-0.05,0.603-0.427,0.73
		L90.914,61.913z"/>
	<path fill="#5C2367" d="M100.062,58.819c0-0.979,0-1.104-0.679-1.557l-0.226-0.151c-0.1-0.102-0.1-0.376,0.025-0.451
		c0.578-0.202,1.91-0.854,2.537-1.232c0.126,0.025,0.202,0.075,0.202,0.175v1.46c0,0.124,0.026,0.2,0.075,0.226
		c0.879-0.729,1.836-1.509,2.765-1.509c0.63,0,1.131,0.403,1.131,1.005c0,0.831-0.677,1.157-1.08,1.157
		c-0.252,0-0.376-0.076-0.554-0.175c-0.376-0.252-0.753-0.403-1.105-0.403c-0.402,0-0.704,0.227-0.904,0.502
		c-0.252,0.353-0.327,1.083-0.327,1.937v3.416c0,1.811,0.05,2.112,1.007,2.188l0.904,0.075c0.176,0.126,0.124,0.553-0.053,0.629
		c-1.18-0.052-1.908-0.076-2.788-0.076c-0.904,0-1.658,0.024-2.312,0.076c-0.176-0.076-0.226-0.503-0.05-0.629l0.477-0.075
		c0.93-0.15,0.955-0.378,0.955-2.188V58.819"/>
	<path fill="#5C2367" d="M107.903,58.819c0-0.979,0-1.104-0.68-1.557l-0.226-0.151c-0.1-0.102-0.1-0.376,0.025-0.451
		c0.578-0.202,2.01-0.854,2.589-1.232c0.126,0,0.227,0.051,0.251,0.151c-0.05,0.879-0.101,2.086-0.101,3.116v4.522
		c0,1.811,0.051,2.062,0.956,2.188l0.527,0.075c0.176,0.126,0.125,0.553-0.05,0.629c-0.755-0.052-1.484-0.076-2.362-0.076
		c-0.906,0-1.66,0.024-2.363,0.076c-0.176-0.076-0.225-0.503-0.05-0.629l0.527-0.075c0.931-0.126,0.955-0.378,0.955-2.188V58.819
		 M109.964,50.677c0,0.88-0.629,1.283-1.306,1.283c-0.779,0-1.283-0.554-1.283-1.234c0-0.827,0.628-1.332,1.356-1.332
		C109.486,49.395,109.964,49.974,109.964,50.677"/>
	<path fill="#5C2367" d="M115.919,57.186c-0.425,0-0.451,0.076-0.451,0.604v4.699c0,1.457,0.175,2.79,1.835,2.79
		c0.251,0,0.479-0.051,0.679-0.127c0.227-0.074,0.553-0.352,0.628-0.352c0.202,0,0.302,0.277,0.252,0.428
		c-0.453,0.528-1.358,1.157-2.64,1.157c-2.162,0-2.613-1.207-2.613-2.716v-5.754c0-0.68-0.026-0.73-0.528-0.73h-0.703
		c-0.15-0.1-0.177-0.376-0.075-0.526c0.728-0.226,1.357-0.554,1.608-0.778c0.326-0.303,0.804-0.982,1.055-1.484
		c0.126-0.051,0.427-0.051,0.529,0.125v1.133c0,0.451,0.023,0.477,0.45,0.477h2.791c0.303,0.227,0.251,0.904,0.024,1.055H115.919"/>
	<path fill="#5C2367" d="M121.901,49.395c-0.729,0-1.356,0.504-1.356,1.332c0,0.681,0.502,1.234,1.282,1.234
		c0.678,0,1.307-0.403,1.307-1.283C123.134,49.974,122.656,49.395,121.901,49.395 M121.072,63.217c0,1.811-0.025,2.062-0.955,2.188
		l-0.527,0.075c-0.176,0.126-0.126,0.553,0.05,0.629c0.703-0.052,1.457-0.076,2.362-0.076c0.88,0,1.608,0.024,2.363,0.076
		c0.176-0.076,0.227-0.503,0.05-0.629l-0.527-0.075c-0.906-0.126-0.956-0.378-0.956-2.188v-4.522c0-1.03,0.05-2.237,0.102-3.116
		c-0.026-0.101-0.127-0.151-0.251-0.151c-0.579,0.378-2.012,1.03-2.59,1.232c-0.126,0.075-0.126,0.35-0.024,0.451l0.225,0.151
		c0.68,0.452,0.68,0.578,0.68,1.557V63.217z"/>
	<path fill="#5C2367" d="M127.832,59.6c-0.652,0-0.679,0.05-0.679,0.679c0,2.538,1.483,4.699,4.173,4.699
		c0.83,0,1.533-0.252,2.312-1.231c0.252-0.076,0.428,0.076,0.454,0.303c-0.83,1.708-2.64,2.337-3.947,2.337
		c-1.634,0-2.915-0.703-3.644-1.66c-0.755-0.979-1.056-2.16-1.056-3.267c0-3.091,2.036-5.681,5.051-5.681
		c2.161,0,3.569,1.483,3.569,2.992c0,0.351-0.05,0.553-0.1,0.654c-0.076,0.15-0.428,0.175-1.484,0.175H127.832 M129.392,58.845
		c1.859,0,2.411-0.102,2.613-0.252c0.075-0.049,0.151-0.15,0.151-0.478c0-0.703-0.479-1.582-1.936-1.582
		c-1.483,0-2.766,1.356-2.789,2.186c0,0.052,0,0.126,0.175,0.126H129.392z"/>
	<path fill="#5C2367" d="M140.901,56.231c0.227,0.553,0.402,1.358,0.402,2.035c-0.101,0.177-0.478,0.229-0.603,0.077
		c-0.429-1.106-1.181-1.835-2.212-1.835c-0.98,0-1.609,0.629-1.609,1.532c0,1.031,1.056,1.585,1.937,2.089
		c1.331,0.751,2.562,1.606,2.562,3.391c0,1.91-1.759,2.866-3.619,2.866c-1.182,0-2.062-0.253-2.689-0.756
		c-0.2-0.478-0.352-1.708-0.301-2.538c0.125-0.148,0.453-0.176,0.578-0.024c0.427,1.383,1.23,2.59,2.664,2.59
		c0.905,0,1.684-0.528,1.684-1.608c0-1.156-1.005-1.786-1.936-2.313c-1.456-0.828-2.488-1.709-2.488-3.091
		c0-1.835,1.508-2.866,3.419-2.866C139.746,55.779,140.676,56.031,140.901,56.231"/>
	<path fill="#5C2367" d="M65.984,72.713v0.591c-2.011,0.153-2.212,0.332-2.212,3.125v5.36c0,2.177,0.276,3.819,1.056,4.972
		c0.779,1.128,1.935,1.77,3.619,1.77c1.583,0,2.89-0.692,3.695-1.922c0.829-1.282,1.13-3.538,1.13-5.692v-1.385
		c0-2.69-0.1-4.102-0.199-4.895c-0.127-0.897-0.805-1.258-2.465-1.333v-0.591h6.032v0.591c-1.381,0.05-2.035,0.436-2.161,1.333
		c-0.102,0.793-0.2,2.204-0.2,4.895v1.719c0,2.973-0.452,5.076-1.911,6.665c-1.08,1.181-2.89,1.845-4.65,1.845
		c-1.382,0-2.965-0.332-4.121-1.307c-1.333-1.103-1.935-2.845-1.935-5.768v-6.257c0-2.793-0.201-2.972-2.312-3.125v-0.591H65.984"/>
	<path fill="#5C2367" d="M78.148,84.865c0.401,1.204,1.685,4.051,4.35,4.051c1.909,0,3.115-1.308,3.115-3.307
		c0-2.181-1.634-3.077-3.241-3.872c-0.829-0.409-4.224-1.615-4.224-4.69c0-2.538,1.884-4.718,5.178-4.718
		c0.702,0,1.558,0.154,2.087,0.334c0.325,0.103,0.677,0.229,0.954,0.281c0.101,0.897,0.253,1.924,0.452,3.463l-0.628,0.076
		c-0.427-1.514-1.132-3.308-3.419-3.308c-1.783,0-2.714,1.333-2.714,2.847c0,1.896,1.333,2.742,3.242,3.614
		c1.659,0.742,4.299,1.793,4.299,4.973c0,2.972-2.389,5.151-5.58,5.151c-0.904,0-1.76-0.177-2.389-0.384
		c-0.628-0.205-1.081-0.408-1.382-0.538c-0.201-0.666-0.478-2.487-0.729-3.872L78.148,84.865"/>
	<path fill="#5C2367" d="M95.491,75.765h0.05l2.211,6.306h-4.448L95.491,75.765 M98.104,89.376h6.082v-0.588
		c-1.558-0.128-1.886-0.309-2.689-2.462c-0.979-2.615-2.086-5.871-3.268-9.127l-1.783-4.871l-0.58,0.23l-5.177,13.614
		c-0.879,2.28-1.08,2.435-2.715,2.615v0.588h5.379v-0.588L92.6,88.71c-1.131-0.103-1.357-0.437-0.879-1.922
		c0.351-1.077,1.005-3.077,1.256-3.744h5.103c0.704,1.846,1.432,3.845,1.608,4.461c0.251,0.795,0.151,1.076-0.778,1.179
		l-0.805,0.104V89.376z"/>
	<path fill="#5C2367" d="M109.214,84.902c1.043,0,1.861,0.904,1.861,2.02c0,1.114-0.818,2.009-1.861,2.009
		c-1.044,0-1.861-0.895-1.861-2.009C107.353,85.806,108.17,84.902,109.214,84.902 M109.214,84.611c-1.261,0-2.255,1.035-2.255,2.319
		c0,1.267,0.994,2.311,2.255,2.311s2.255-1.044,2.255-2.311C111.469,85.646,110.475,84.611,109.214,84.611 M108.121,85.646v0.17
		c0.313,0.021,0.335,0.03,0.335,0.362v1.506c0,0.321-0.021,0.332-0.354,0.361v0.171h1.15v-0.171
		c-0.324-0.029-0.343-0.04-0.343-0.361v-0.582h0.167c0.077,0,0.118,0.03,0.176,0.13c0.051,0.081,0.237,0.442,0.356,0.633
		c0.166,0.261,0.344,0.352,0.668,0.361l0.198,0.011l0.009-0.131l-0.029-0.01c-0.049-0.02-0.129-0.08-0.206-0.16
		c-0.079-0.081-0.168-0.202-0.296-0.393c-0.118-0.182-0.266-0.452-0.335-0.571c0.306-0.102,0.542-0.343,0.542-0.653
		c0-0.553-0.473-0.673-0.887-0.673H108.121z M108.909,85.987c0-0.149,0-0.16,0.244-0.16c0.199,0,0.505,0.131,0.505,0.553
		c0,0.101-0.031,0.33-0.228,0.461c-0.061,0.03-0.167,0.071-0.295,0.071h-0.227V85.987z"/>
</g>
</svg>
