<?xml version="1.0" encoding="utf-8"?>
<!-- Generator: Adobe Illustrator 16.0.0, SVG Export Plug-In . SVG Version: 6.00 Build 0)  -->
<!DOCTYPE svg PUBLIC "-//W3C//DTD SVG 1.1//EN" "http://www.w3.org/Graphics/SVG/1.1/DTD/svg11.dtd">
<svg version="1.1" id="Layer_1" xmlns="http://www.w3.org/2000/svg" xmlns:xlink="http://www.w3.org/1999/xlink" x="0px" y="0px"
	 width="1280px" height="627px" viewBox="0 0 1280 627" enable-background="new 0 0 1280 627" xml:space="preserve">
<g>
	<polygon fill="#D57E00" points="960.598,178.967 977.266,41.389 977.239,179.984 1010.373,45.414 993.641,182.983 1042.765,53.393 
		1009.557,187.947 1073.938,65.213 1024.771,194.778 1103.468,80.716 1039.036,203.425 1130.921,99.665 1052.167,213.698 
		1155.88,121.779 1063.962,225.498 1178.002,146.738 1074.239,238.615 1196.947,174.183 1082.864,252.892 1212.438,203.721 
		1089.704,268.095 1224.274,234.903 1094.668,284.019 1232.249,267.286 1097.679,300.411 1236.271,300.386 1098.688,317.065 
		1236.271,333.732 1097.679,333.708 1232.249,366.842 1094.668,350.099 1224.274,399.216 1089.704,366.028 1212.438,430.402 
		1082.864,381.234 1196.947,459.932 1074.239,395.5 1178.002,487.376 1063.962,408.63 1155.88,512.344 1052.167,420.417 
		1130.921,534.462 1039.036,430.693 1103.468,553.406 1024.771,439.328 1073.938,568.894 1009.557,446.181 1042.765,580.734 
		993.641,451.132 1010.373,588.705 977.239,454.143 977.266,592.733 960.598,455.14 943.914,592.733 943.947,454.143 
		910.822,588.705 927.556,451.132 878.431,580.734 911.632,446.181 847.241,568.894 896.407,439.328 817.72,553.406 
		882.143,430.693 790.267,534.462 869.013,420.417 765.307,512.344 857.226,408.63 743.202,487.376 846.948,395.5 724.249,459.932 
		838.314,381.234 708.749,430.402 831.483,366.028 696.921,399.216 826.52,350.099 688.938,366.842 823.517,333.708 
		684.917,333.732 822.507,317.065 684.917,300.386 823.517,300.411 688.938,267.286 826.52,284.019 696.921,234.903 
		831.483,268.095 708.749,203.721 838.314,252.892 724.249,174.183 846.948,238.615 743.202,146.738 857.226,225.498 
		765.307,121.779 869.013,213.698 790.267,99.665 882.143,203.425 817.72,80.716 896.407,194.778 847.241,65.213 911.632,187.947 
		878.431,53.393 927.556,182.983 910.822,45.414 943.947,179.984 943.914,41.389 	"/>
	<g>
		<path fill="#F7A800" d="M1082.489,317.062c0,67.323-54.572,121.903-121.892,121.903c-67.318,0-121.915-54.58-121.915-121.903
			c0-67.327,54.597-121.895,121.915-121.895C1027.917,195.167,1082.489,249.735,1082.489,317.062"/>
		<path fill="#FEE592" d="M1024.479,317.062c0,35.27-28.604,63.869-63.898,63.869c-35.269,0-63.857-28.6-63.857-63.869
			c0-35.286,28.589-63.877,63.857-63.877C995.876,253.184,1024.479,281.775,1024.479,317.062"/>
		<polygon fill="#603A17" points="47.051,129.617 88.293,129.617 88.293,367.333 175.915,367.333 175.915,408.964 47.051,408.964 		
			"/>
		<path fill="#603A17" d="M296.263,414.073c-57.35,0-97.441-40.871-97.441-97.438c0-54.217,42.443-97.44,100.585-97.44
			c27.512,0,49.893,9.046,67.978,26.727c15.708,15.704,22.381,34.957,29.471,56.558l35.729,106.871h-39.282l-14.531-43.197
			C361.471,397.568,332.808,414.073,296.263,414.073 M237.336,318.984c0,33.793,24.358,57.771,58.927,57.771
			c36.137,0,60.512-23.979,60.512-59.719c0-35.374-25.559-61.304-58.543-61.304C264.438,255.732,237.336,281.279,237.336,318.984"/>
		<path fill="#603A17" d="M418.988,224.292h42.276v-43.59h36.938v43.59h41.634v32.625h-41.634v58.151
			c0,36.14,11.778,53.02,43.986,56.182v37.714c-52.245-0.798-80.924-30.248-80.924-82.901v-69.146h-42.276V224.292z"/>
		<path fill="#603A17" d="M598.754,161.428c12.98,0,23.191,10.236,23.191,23.186c0,12.976-10.211,23.191-23.191,23.191
			c-12.962,0-22.781-10.215-22.781-23.191C575.973,171.664,585.792,161.428,598.754,161.428 M580.293,224.709h37.322v184.263
			h-37.322V224.709z"/>
		<path fill="#603A17" d="M665.939,408.964V307.61c0-58.555,27.886-88.415,81.725-88.415c54.205,0,81.717,29.467,81.717,88.415
			v101.354h-37.722V307.985c0-33.789-15.707-51.465-44.396-51.465c-28.286,0-43.619,17.676-43.619,51.465v100.979H665.939z"/>
		<path fill="#603A17" d="M892.237,247.887c18.468-18.473,42.817-28.691,68.761-28.691c25.927,0,50.677,10.219,69.129,28.691
			c18.485,18.068,28.296,42.839,28.296,68.749c0,25.923-9.811,50.294-28.296,68.762c-18.452,18.452-42.802,28.676-69.129,28.676
			c-26.335,0-50.293-10.224-68.761-28.676c-18.462-18.468-28.296-42.839-28.296-68.762
			C863.941,290.726,873.775,266.338,892.237,247.887 M902.063,318.984c0,33.793,24.358,57.771,58.935,57.771
			c35.353,0,59.327-24.75,59.327-60.12c0-34.973-25.551-59.719-59.327-59.719C927.206,256.917,902.063,282.459,902.063,318.984"/>
		<path fill="#603A17" d="M48.327,475.748c0-8.741,0.601-15.729,5.039-22.006c5.647-7.996,14.256-12.283,25.083-12.283
			c7.975,0,15.466,3.049,21.138,8.713c5.656,5.636,8.717,13.155,8.717,21.151c0,7.986-3.062,15.494-8.717,21.138
			c-5.672,5.665-13.163,8.722-21.138,8.722c-6.999,0-12.671-1.957-17.226-6.382v35.527H48.327V475.748z M77.949,489.646
			c10.694,0,18.302-7.996,18.302-18.322c0-10.578-7.967-18.94-17.552-18.94c-10.969,0-18.811,7.637-18.811,18.94
			C59.888,482.385,67.004,489.646,77.949,489.646"/>
		<path fill="#603A17" d="M130.477,454.597c8.617-8.704,19.554-13.396,31.841-13.396c12.171,0,23.349,4.793,31.841,13.396
			c8.492,8.48,13.155,20.037,13.155,32.092c0,12.3-4.796,23.72-13.155,32.203c-8.492,8.501-19.92,13.285-31.841,13.285
			c-12.045,0-23.357-4.784-31.841-13.285c-8.467-8.483-13.263-20.158-13.263-32.203C117.214,474.772,122.01,463.214,130.477,454.597
			 M139.579,509.795c6.022,6.141,14.139,9.456,22.623,9.456c8.341,0,16.716-3.441,22.614-9.456
			c6.023-6.015,9.343-14.264,9.343-23.106c0-8.738-3.32-16.963-9.343-23.106c-6.148-6.277-14.139-9.585-22.614-9.585
			c-8.609,0-16.484,3.308-22.623,9.585c-6.023,6.144-9.343,14.368-9.343,23.106C130.235,495.531,133.555,503.78,139.579,509.795"/>
		<polygon fill="#603A17" points="220.536,442.928 233.424,442.928 233.424,517.303 260.844,517.303 260.844,530.328 
			220.536,530.328 		"/>
		<rect x="270.579" y="442.923" fill="#603A17" width="12.905" height="87.405"/>
		<path fill="#603A17" d="M342.885,531.918c-10.077,0-18.794-2.444-26.185-7.349c-12.529-8.389-20.154-22.628-20.154-37.886
			c0-11.911,4.788-23.47,13.28-32.09c8.833-8.96,19.903-13.394,33.301-13.394c5.672,0,10.21,0.751,14.022,2.47v11.786
			c-4.179-2.222-8.35-3.186-13.155-3.186c-7.616,0-14.498,2.085-20.037,6.251c-9.101,6.774-14.389,16.993-14.389,28.162
			c0,19.062,13.897,33.563,33.684,33.563c5.397,0,10.085-1.101,14.273-3.562v12.643
			C354.072,531.309,349.292,531.918,342.885,531.918"/>
		<polygon fill="#603A17" points="387.672,493.329 362.105,442.931 376.236,442.931 393.821,478.2 411.271,442.931 425.544,442.931 
			401.078,493.329 401.078,530.333 387.672,530.333 		"/>
		<polygon fill="#603A17" points="486.081,442.928 528.133,442.928 528.133,454.973 498.978,454.973 498.978,476.857 
			526.281,476.857 526.281,488.773 498.978,488.773 498.978,530.328 486.081,530.328 		"/>
		<path fill="#603A17" d="M552.499,454.597c8.617-8.704,19.528-13.396,31.832-13.396c12.163,0,23.365,4.793,31.841,13.396
			c8.483,8.48,13.155,20.037,13.155,32.092c0,12.3-4.788,23.72-13.155,32.203c-8.476,8.501-19.913,13.285-31.841,13.285
			c-12.045,0-23.34-4.784-31.832-13.285c-8.492-8.483-13.28-20.158-13.28-32.203C539.219,474.772,544.007,463.214,552.499,454.597
			 M561.6,509.795c6.023,6.141,14.131,9.456,22.615,9.456c8.35,0,16.708-3.441,22.623-9.456c6.014-6.015,9.334-14.264,9.334-23.106
			c0-8.738-3.32-16.963-9.334-23.106c-6.157-6.277-14.14-9.585-22.623-9.585c-8.609,0-16.476,3.308-22.615,9.585
			c-6.022,6.144-9.342,14.368-9.342,23.106C552.257,495.531,555.577,503.78,561.6,509.795"/>
		<path fill="#603A17" d="M642.532,470.335c0-7.362,0.25-13.272,4.062-18.545c4.806-6.648,12.789-10.594,21.89-10.594
			c14.365,0,25.927,11.565,25.927,25.959c0,13.277-8.984,23.458-22.865,24.817l28.888,38.36h-16.342l-28.638-41.079v41.079h-12.921
			V470.335z M668.483,481.278c7.983,0,14.489-6.382,14.489-14.368c0-8.005-6.38-14.403-14.489-14.403
			c-8.851,0-14.882,6.015-14.882,14.403C653.602,475.605,659.383,481.278,668.483,481.278"/>
		<path fill="#603A17" d="M711.285,442.928h12.905v54.705c0,15.236,4.812,22.123,16.726,22.123c11.929,0,16.725-6.887,16.725-22.123
			v-54.705h12.805v55.31c0,9.344-0.525,16.351-5.431,22.866c-5.539,7.114-13.639,10.943-23.841,10.943
			c-10.686,0-18.701-3.683-24.357-10.943c-4.663-6.02-5.531-13.144-5.531-22.866V442.928z"/>
		<polygon fill="#603A17" points="798.866,441.2 828.738,502.43 858.109,441.2 872.508,530.337 858.978,530.337 852.096,480.282 
			828.247,531.918 804.264,480.778 795.556,530.337 782.275,530.337 		"/>
	</g>
</g>
</svg>
