<?xml version="1.0" encoding="utf-8"?>
<!-- Generator: Adobe Illustrator 16.0.0, SVG Export Plug-In . SVG Version: 6.00 Build 0)  -->
<!DOCTYPE svg PUBLIC "-//W3C//DTD SVG 1.1//EN" "http://www.w3.org/Graphics/SVG/1.1/DTD/svg11.dtd">
<svg version="1.1" id="Layer_1" xmlns="http://www.w3.org/2000/svg" xmlns:xlink="http://www.w3.org/1999/xlink" x="0px" y="0px"
	 width="768px" height="166px" viewBox="0 0 768 166" enable-background="new 0 0 768 166" xml:space="preserve">
<g>
	<path fill="black" d="M42.458,97.426c0-20.391,13.249-40.091,33.063-40.091s33.063,19.7,33.063,40.091
		s-13.249,40.321-33.063,40.321S42.458,117.816,42.458,97.426z M95.452,97.542c0-23.847-4.032-37.557-19.93-37.557
		s-19.93,13.709-19.93,37.557c0,23.731,4.032,37.558,19.93,37.558C91.42,135.098,95.452,121.273,95.452,97.542z"/>
	<path fill="black" d="M121.025,93.048h-6.797v-2.649h2.419c2.189,0,4.378,0,6.567-0.229c2.304-0.114,4.493-0.461,6.566-0.922
		v8.985l0.23-0.114c2.995-5.646,8.295-8.871,14.055-8.871c8.871,0,21.428,6.913,21.428,25.114c0,11.291-7.604,23.156-21.889,23.156
		c-6.221,0-10.484-2.765-13.364-7.719h-0.23v29.607h7.834v2.65h-23.617v-2.65h6.797L121.025,93.048L121.025,93.048z
		 M130.011,115.514c0,7.604,0.461,9.562,2.304,13.018c1.958,3.802,7.143,6.682,10.483,6.682c5.875,0,12.211-0.23,12.211-21.197
		c0-16.589-3.341-22.004-11.866-22.004c-2.189,0-10.944,1.729-12.672,12.903C129.896,108.716,130.011,112.172,130.011,115.514z"/>
	<path fill="black" d="M214.11,121.734c-2.304,10.714-10.138,15.783-20.276,15.783c-11.75,0-23.041-9.447-23.041-22.234
		c0-13.594,8.986-26.036,22.695-26.036c11.75,0,20.621,7.948,20.736,20.506h-32.603v4.724c0,11.405,1.498,20.623,14.055,20.623
		c6.567,0,14.286-5.761,15.898-13.365H214.11L214.11,121.734z M203.742,106.412v-3.917c0-8.294-4.838-10.944-10.599-10.944
		c-6.912,0-10.023,6.452-10.253,7.258c-0.691,2.074-1.037,4.725-1.152,7.604L203.742,106.412L203.742,106.412z"/>
	<path fill="black" d="M225.513,93.048h-6.336v-2.649h2.419c2.189,0,4.378,0,6.451-0.229c2.189-0.114,4.378-0.461,6.452-0.922
		v12.212h0.23c3.226-7.258,7.719-12.212,16.128-12.212c4.147,0,13.709,0.922,13.709,11.521v32.604h6.221v2.65H249.59v-2.65h5.99
		v-31.105c0-8.41-2.649-9.677-7.258-9.677c-7.833,0-13.824,10.714-13.824,19.354v21.428h6.221v2.65h-21.543v-2.65h6.336
		L225.513,93.048L225.513,93.048z"/>
	<path fill="black" d="M274.82,136.02v-2.649h7.719V93.048h-7.719v-2.649h3.802c4.263,0,8.755-0.114,12.903-1.151v44.123h6.797
		v2.649H274.82L274.82,136.02z M286.916,59.985c2.765,0,5.875,2.535,5.875,5.53c0,3.571-2.534,6.106-5.875,6.106
		s-5.53-2.765-5.53-6.106C281.386,62.52,284.036,59.985,286.916,59.985z"/>
	<path fill="black" d="M310.533,93.048h-6.336v-2.649h2.419c2.189,0,4.378,0,6.451-0.229c2.189-0.114,4.378-0.461,6.452-0.922
		v12.212h0.23c3.226-7.258,7.719-12.212,16.128-12.212c4.147,0,13.709,0.922,13.709,11.521v32.604h6.221v2.65H334.61v-2.65h5.99
		v-31.105c0-8.41-2.649-9.677-7.258-9.677c-7.833,0-13.824,10.714-13.824,19.354v21.428h6.221v2.65h-21.543v-2.65h6.336
		L310.533,93.048L310.533,93.048z"/>
	<path fill="black" d="M379.539,128.762c15.783,0,18.778,0.691,22.465,4.838c2.304,2.65,3.227,5.875,3.227,9.332
		c0,14.17-12.442,19.239-23.386,19.239c-16.589,0-22.119-7.144-22.119-11.981c0-8.063,7.604-11.174,13.479-12.672v-0.346
		c-5.875-0.806-12.557-1.613-12.557-9.906c0-6.336,7.143-8.181,11.52-8.871v-0.23c-5.184-2.535-8.64-6.452-8.64-13.018
		c0-7.258,5.184-15.898,16.589-15.898c6.682,0,11.405,2.189,14.399,6.682c1.152-2.65,3.571-6.451,7.373-6.451
		c2.074,0,4.493,0.922,4.493,3.916c0,2.305-1.268,4.379-3.687,4.379c-1.958,0-3.111-3.457-3.917-3.457
		c-1.152,0-2.535,1.613-2.535,2.766c0,1.268,1.613,4.263,1.613,7.488c0,10.828-9.216,14.17-11.636,14.399
		c-11.405,1.498-22.004,1.613-22.004,7.373c0,1.269,1.267,2.419,2.995,2.419H379.539z M380.807,159.521
		c19.583,0,20.391-10.944,20.391-12.789c0-6.797-2.074-10.137-16.705-10.137c-13.594,0-17.396,9.215-17.396,13.133
		C367.097,157.102,374.816,159.521,380.807,159.521z M372.512,105.26c0,5.184,1.037,12.096,7.373,12.096
		c8.41,0,8.986-5.99,8.986-13.133c0-5.76-0.921-12.672-7.834-12.672C375.277,91.551,372.512,94.316,372.512,105.26z"/>
	<path fill="black" d="M445.087,61.713h-8.87v-2.649h30.874c21.773,0,35.944,14.746,35.944,37.788
		c0,13.363-5.069,23.387-11.981,30.76c-7.373,7.603-18.202,8.41-24.192,8.41h-30.645v-2.65h8.87V61.713z M456.262,133.37h11.29
		c13.364-0.115,17.625-7.027,20.045-12.097c2.305-5.299,2.766-15.438,2.766-26.496c0-16.359-1.613-33.063-25.459-33.063h-8.642
		V133.37L456.262,133.37z"/>
	<path fill="black" d="M553.839,113.324c0,13.939-10.138,24.193-22.233,24.193c-12.097,0-22.234-10.254-22.234-24.193
		s10.138-24.078,22.234-24.078C543.701,89.246,553.839,99.385,553.839,113.324z M519.854,113.324
		c0,9.677,0.115,21.889,11.752,21.889c11.636,0,11.75-12.211,11.75-21.889c0-9.562-0.114-21.773-11.75-21.773
		C519.969,91.551,519.854,103.762,519.854,113.324z"/>
	<path fill="black" d="M602.683,113.324c0,13.939-10.138,24.193-22.233,24.193c-12.097,0-22.234-10.254-22.234-24.193
		s10.138-24.078,22.234-24.078C592.545,89.246,602.683,99.385,602.683,113.324z M568.697,113.324
		c0,9.677,0.115,21.889,11.751,21.889s11.751-12.211,11.751-21.889c0-9.562-0.115-21.773-11.751-21.773
		S568.697,103.762,568.697,113.324z"/>
	<path fill="black" d="M622.611,100.076h0.229c2.073-5.184,6.683-10.829,13.019-10.829c3.917,0,7.026,2.073,7.026,6.452
		c0,2.88-2.995,4.263-5.414,4.263c-2.073,0-4.493-2.304-4.493-4.608c0-0.92,0.462-1.957,0.462-2.418
		c0-0.691-0.691-0.691-1.037-0.691c-0.115,0-4.032,1.613-6.566,6.797c-1.613,3.341-2.88,7.834-2.88,12.441v21.89h8.87v2.649h-25.69
		v-2.649h7.834V93.048h-7.834v-2.649h3.571c4.263,0,8.756-0.114,12.903-1.151V100.076z"/>
	<path fill="black" d="M675.027,90.398v12.903h-2.534c-1.729-6.682-5.646-11.405-12.558-11.751
		c-9.446-0.23-10.83,7.027-10.83,8.41c0,3.341,0.923,5.068,18.549,8.641c8.871,1.842,11.98,5.875,11.98,13.133
		c0,9.906-7.488,15.783-16.589,15.783c-4.839,0-9.908-1.959-13.249-5.646l-2.534,4.147h-2.534v-15.207h2.649
		c2.188,8.295,7.834,14.399,16.358,14.399c5.185,0,11.175-3.917,11.175-9.907c0-4.492-6.336-6.566-15.897-8.986
		c-7.604-1.842-14.285-2.879-14.285-12.902c0-4.839,2.995-14.17,15.553-14.17c3.57,0,7.144,1.383,10.715,4.263l2.073-3.11H675.027z"
		/>
</g>
<g>
	<path fill="#367A80" d="M3.489,77.195v-2.531h8.202l24.2-66.627h3.443l23.188,66.627h8.101v2.531H38.524v-2.531h10.531
		l-6.177-17.923H21.006l-6.277,17.923h10.328v2.531H3.489z M22.121,54.21h19.745l-9.519-28.251L22.121,54.21z"/>
	<path fill="#367A80" d="M79.73,12.087h-7.29V9.556c6.177,0.202,12.252-0.405,18.227-1.519v35.946
		c2.633-4.456,6.886-7.493,12.05-7.493c11.441,0,19.542,10.733,19.542,21.568c0,10.531-7.897,20.657-19.238,20.657
		c-4.962,0-9.721-2.937-12.354-6.987v6.278c-6.177-1.114-12.252-0.81-18.227-0.81v-2.531h7.29V12.087z M110.31,47.932
		c0-4.962-2.329-9.417-7.695-9.417c-6.379,0-11.442,5.771-11.948,12.049v14.176c0,6.278,5.67,11.948,11.847,11.948
		c5.771,0,7.797-4.354,7.797-9.518V47.932z"/>
	<path fill="#367A80" d="M147.771,47.932c3.24-5.569,6.784-11.442,14.176-11.442c3.949,0,8.102,2.025,8.102,6.582
		c0,3.949-2.734,5.67-6.38,5.67c-2.43,0-4.86-2.126-4.86-4.658c0-0.405,0.102-1.012,0.203-1.519c0.304-1.62,0.404-2.228-0.709-2.228
		c-1.924,0-2.937,1.012-4.253,2.329c-3.848,3.848-6.278,9.316-6.278,22.581v9.417h9.113v2.531h-26.023v-2.531h5.975V39.629h-6.683
		v-2.531c5.265,0.202,11.441-0.203,17.618-0.405V47.932z"/>
	<path fill="#367A80" d="M173.283,77.195v-2.531h7.392V39.629h-7.392v-2.531c5.975,0.202,12.151-0.203,18.328-0.405v37.972h7.493
		v2.531H173.283z M185.333,24.137c-3.139,0-5.468-3.139-5.468-6.076c0-2.734,2.734-5.468,5.468-5.468
		c2.937,0,5.975,2.43,5.975,5.468C191.307,21.504,188.775,24.137,185.333,24.137z"/>
	<path fill="#367A80" d="M215.505,54.817v8.101c0,7.088,0.405,13.771,9.012,13.771c7.291,0,12.859-5.265,14.885-12.151h2.531
		c-2.633,9.822-9.619,14.176-19.441,14.176c-11.037,0-19.036-10.632-19.036-20.96c0-11.138,9.113-21.264,20.15-21.264
		c9.417,0,18.125,6.48,18.125,16.505c0,2.126-0.911,1.823-2.531,1.823H215.505z M230.289,52.286c0-6.784,1.722-13.771-7.29-13.771
		c-8.404,0-7.493,7.392-7.493,13.771H230.289z"/>
	<path fill="#367A80" d="M265.117,46.21h0.203c3.24-6.278,7.797-9.721,15.087-9.721c13.468,0,12.354,9.417,12.354,19.441v18.733
		h6.379v2.531h-23.491v-2.531h6.379V56.438c0-9.417,1.013-16.302-5.771-16.302c-4.354,0-8.303,4.658-9.822,8.404
		c-1.316,3.341-1.316,8-1.316,12.758v13.366h6.38v2.531h-23.998v-2.531h6.886V39.629h-6.886v-2.531
		c5.164,0.202,11.341-0.203,17.618-0.405V46.21z"/>
	<path fill="#367A80" d="M337.309,70.31h-0.202c-2.43,5.367-7.189,8.405-13.568,8.405c-5.367,0-8.101-1.924-11.948-5.266
		c-4.051-3.544-6.075-10.328-6.075-15.594c0-10.024,8.809-21.365,19.34-21.365c6.582,0,11.037,3.848,12.252,8.607h0.202v-33.01
		h-7.29V9.556c6.177,0.202,12.252-0.405,18.227-1.519v66.627h7.29v2.531c-5.873,0-11.746-0.304-18.227,0.81V70.31z M317.868,67.576
		c0,4.86,1.722,9.113,7.291,9.113c6.177,0,12.15-6.582,12.15-12.657V53.299c0-6.379-4.151-14.784-11.948-14.784
		c-6.683,0-7.493,5.265-7.493,11.037V67.576z"/>
	<path fill="#367A80" d="M383.074,36.49c11.442,0,21.264,10.024,21.264,21.365s-9.822,20.859-21.264,20.859
		c-11.442,0-21.264-9.519-21.264-20.859S371.631,36.49,383.074,36.49z M383.074,38.515c-9.924,0-9.215,7.898-9.215,19.34
		c0,13.164,0.203,18.834,9.215,18.834c9.012,0,9.213-5.67,9.213-18.834C392.287,46.413,392.996,38.515,383.074,38.515z"/>
	<path fill="#367A80" d="M437.949,9.556h32.707c12.859,0,28.25,2.632,28.25,18.631c0,14.176-14.783,18.328-26.428,18.328h-11.543
		v28.15h10.732v2.531h-33.719v-2.531h10.025V12.087h-10.025V9.556z M472.781,43.983c9.822,0,11.848-7.594,11.848-15.897
		c0-7.291-0.506-15.999-11.848-15.999h-11.846v31.896H472.781z"/>
	<path fill="#367A80" d="M537.479,69.095h-0.303c-2.836,5.67-8.303,9.62-14.885,9.62c-9.721,0-12.252-5.063-12.252-9.822V39.629
		h-6.582v-2.531c5.062,0.202,11.238-0.203,17.314-0.405v31.491c0,4.151-0.303,7.291,4.861,7.291c3.746,0,11.846-4.152,11.846-16.303
		V39.629h-7.695v-2.531c6.178,0.202,12.354-0.203,18.43-0.405v37.972h7.088v2.531c-5.975,0-11.949-0.304-17.822,0.81V69.095z"/>
	<path fill="#367A80" d="M572.814,54.817v8.101c0,7.088,0.404,13.771,9.012,13.771c7.291,0,12.859-5.265,14.885-12.151h2.531
		c-2.633,9.822-9.619,14.176-19.441,14.176c-11.037,0-19.037-10.632-19.037-20.96c0-11.138,9.113-21.264,20.15-21.264
		c9.418,0,18.125,6.48,18.125,16.505c0,2.126-0.91,1.823-2.531,1.823H572.814z M587.598,52.286c0-6.784,1.721-13.771-7.291-13.771
		c-8.404,0-7.492,7.392-7.492,13.771H587.598z"/>
	<path fill="#367A80" d="M623.135,47.932c3.24-5.569,6.783-11.442,14.176-11.442c3.949,0,8.102,2.025,8.102,6.582
		c0,3.949-2.734,5.67-6.381,5.67c-2.43,0-4.859-2.126-4.859-4.658c0-0.405,0.102-1.012,0.203-1.519
		c0.303-1.62,0.404-2.228-0.709-2.228c-1.924,0-2.938,1.012-4.254,2.329c-3.848,3.848-6.277,9.316-6.277,22.581v9.417h9.113v2.531
		h-26.023v-2.531h5.975V39.629h-6.684v-2.531c5.266,0.202,11.441-0.203,17.619-0.405V47.932z"/>
	<path fill="#367A80" d="M656.545,26.566c3.645,0,7.289-0.405,10.936-0.607v12.354h9.619v3.038h-9.619v27.846
		c0,3.24,0.102,5.569,3.949,5.569c3.24,0,5.164-2.531,6.176-5.367l2.025,1.013c-2.127,5.67-6.48,8.303-12.354,8.303
		c-9.215,0-10.732-3.139-10.732-8.708V41.35h-6.48v-3.038h6.48V26.566z"/>
	<path fill="#367A80" d="M711.523,42.16c0-2.633-4.961-3.645-6.682-3.645c-3.848,0-8.607,1.924-7.088,3.848
		c0.607,0.81,1.416,2.937,1.416,4.86c0,2.633-2.531,4.456-4.859,4.456c-2.836,0-5.266-1.519-5.266-4.759
		c0-7.696,9.924-10.43,16.1-10.43c4.355,0,9.012,0.709,12.961,2.734c2.836,1.418,3.746,3.038,3.746,6.177v26.935
		c0,1.316,1.217,1.924,2.432,1.924s2.732-1.519,3.543-2.329l1.215,1.418c-2.633,3.24-5.365,5.367-9.619,5.367
		c-4.455,0-7.291-2.734-7.898-7.189c-3.645,4.456-9.113,7.189-14.783,7.189c-6.074,0-10.531-3.342-10.531-9.822
		c0-12.049,16.201-14.581,25.314-14.075V42.16z M711.523,56.944c-6.277,0-14.682,0.81-14.682,9.012c0,4.456,1.822,7.797,6.582,7.797
		c3.543,0,6.176-2.734,7.391-5.974c0.609-1.519,0.709-3.341,0.709-5.265V56.944z"/>
	<path fill="#367A80" d="M738.557,77.195h-1.621v-14.48h2.734c1.014,7.189,5.164,13.974,12.859,13.974
		c4.455,0,9.215-3.038,9.215-8.101s-4.658-5.569-9.924-6.278c-10.43-1.417-14.377-5.67-14.377-13.467
		c0-7.696,5.264-12.354,12.758-12.354c3.543,0,7.088,1.114,9.924,3.24l1.619-2.632h1.721v11.948h-2.633
		c-0.607-5.468-4.961-10.531-10.631-10.531c-3.949,0-8.203,2.329-8.203,6.987c0,3.038,0.508,4.151,9.621,5.67
		c9.213,1.519,14.479,3.139,14.479,13.568c0,9.721-5.365,13.974-14.479,13.974c-3.342,0-7.695-1.924-10.127-4.253L738.557,77.195z"
		/>
</g>
</svg>
