<?xml version="1.0" encoding="utf-8"?>
<!-- Generator: Adobe Illustrator 16.0.0, SVG Export Plug-In . SVG Version: 6.00 Build 0)  -->
<!DOCTYPE svg PUBLIC "-//W3C//DTD SVG 1.1//EN" "http://www.w3.org/Graphics/SVG/1.1/DTD/svg11.dtd">
<svg version="1.1" id="Layer_1" xmlns="http://www.w3.org/2000/svg" xmlns:xlink="http://www.w3.org/1999/xlink" x="0px" y="0px"
	 width="340px" height="186px" viewBox="0 0 340 186" enable-background="new 0 0 340 186" xml:space="preserve">
<g>
	<path fill="#ED3424" d="M75.266,83.786c0.523-3.228,4.275-6.875,8.248-8.184c4.184-1.378,7.102,0.11,6.783,3.327
		c-0.338,3.38-4.016,7.066-8.32,8.432C77.891,88.652,74.717,87.179,75.266,83.786"/>
	<path fill="#ED3424" d="M77.375,65.258c0.076-2.556,3.204-5.858,6.849-7.383c3.826-1.596,6.798-0.822,6.909,1.68
		c0.112,2.636-2.915,5.936-6.845,7.553C80.547,68.642,77.299,67.939,77.375,65.258"/>
	<path fill="#ED3424" d="M76.772,50.074c-0.242-2.026,2.387-4.998,5.722-6.614c3.49-1.692,6.428-1.417,6.822,0.544
		c0.414,2.059-2.094,4.994-5.666,6.716C80.239,52.364,77.021,52.193,76.772,50.074"/>
	<path fill="#ED3424" d="M133.035,48.313c-3.734-0.012-5.146-2.469-3.349-5.308c1.84-2.905,6.119-5.126,9.792-5.222
		c3.826-0.102,5.408,2.104,3.663,5.06C141.443,45.725,136.931,48.326,133.035,48.313"/>
	<path fill="#ED3424" d="M106.302,49.043c-3.446,0.266-4.833-1.82-3.262-4.483c1.609-2.732,5.481-5.016,8.86-5.356
		c3.508-0.359,5.017,1.491,3.514,4.238C113.945,46.123,109.886,48.762,106.302,49.043"/>
	<path fill="#ED3424" d="M113.15,64.021c-3.404,2.971-8.258,4.11-10.645,2.624c-2.421-1.503-1.521-4.887,1.762-7.69
		c3.317-2.836,7.707-3.939,10.198-2.627C116.917,57.612,116.59,61.02,113.15,64.021"/>
	<path fill="#00498F" d="M54.557,146.586c2.754-5.168,8.429-8.736,12.646-8.139c4.505,0.646,5.873,5.428,3.223,10.862
		c-2.789,5.718-8.574,9.391-13.097,8.479C53.105,156.934,51.657,152.021,54.557,146.586"/>
	<path fill="#00498F" d="M69.491,110.244c1.248-4.098,5.803-8.011,10.073-8.832c4.52-0.873,7.136,1.736,6.099,5.899
		c-1.092,4.379-5.637,8.384-10.277,9.171C71.008,117.223,68.18,114.551,69.491,110.244"/>
	<path fill="#00498F" d="M74.254,37.999c-0.505-1.569,1.667-4.229,4.703-5.891c3.171-1.74,6.054-1.85,6.688-0.35
		c0.668,1.575-1.376,4.176-4.612,5.948C77.935,39.397,74.783,39.646,74.254,37.999"/>
	<path fill="#00498F" d="M69.834,28.578c-0.774-1.154,0.934-3.506,3.67-5.195c2.849-1.76,5.684-2.218,6.565-1.139
		c0.92,1.13-0.656,3.404-3.551,5.198C73.74,29.167,70.646,29.782,69.834,28.578"/>
	<path fill="#00498F" d="M62.622,21.721c-1.177-0.646-0.11-2.627,2.247-4.352c2.449-1.787,5.265-2.657,6.516-2.074
		c1.302,0.604,0.365,2.484-2.101,4.304C66.913,21.348,63.853,22.396,62.622,21.721"/>
	<path fill="#00498F" d="M187.372,53.476c-4.315-1.495-4.932-5.419-1.697-8.635c3.335-3.318,9.283-4.779,13.692-3.509
		c4.653,1.339,5.631,5.075,2.262,8.545C198.377,53.242,191.928,55.051,187.372,53.476"/>
	<path fill="#00498F" d="M159.062,49.411c-4.083-0.455-5.421-3.443-3.219-6.489c2.252-3.126,7.121-5.195,11.18-4.89
		c4.238,0.314,5.809,3.049,3.633,6.262C168.533,47.426,163.34,49.889,159.062,49.411"/>
	<path fill="#00498F" d="M57.87,55.418c-3.083,0.678-4.448-0.846-3.174-3.255c1.3-2.46,4.652-4.836,7.646-5.547
		c3.094-0.735,4.524,0.592,3.338,3.027C64.521,52.023,61.049,54.713,57.87,55.418"/>
	<path fill="#00498F" d="M36.792,61.121c-3.002,0.93-4.478-0.302-3.391-2.591c1.107-2.337,4.253-4.806,7.164-5.739
		c2.997-0.959,4.499,0.087,3.508,2.373C43.106,57.409,39.886,60.165,36.792,61.121"/>
	<path fill="#00498F" d="M15.905,68.088c-3.033,1.351-4.87,0.616-4.166-1.489c0.717-2.149,3.6-4.791,6.523-6.106
		c3-1.351,4.802-0.768,4.208,1.3C21.896,63.817,19.021,66.702,15.905,68.088"/>
	<path fill="#00498F" d="M169.726,28.133c-3.992,2.122-8.647,2.283-10.292,0.493c-1.669-1.814,0.173-4.776,3.966-6.8
		c3.884-2.068,8.206-2.332,10.035-0.655C175.237,22.821,173.812,25.962,169.726,28.133"/>
	<path fill="#00498F" d="M59.641,106.122c-3.485,3.9-8.662,5.691-11.317,4.068c-2.697-1.647-1.889-5.864,1.511-9.532
		c3.417-3.685,8.038-5.344,10.771-3.957C63.289,98.067,63.146,102.204,59.641,106.122"/>
	<path fill="#00498F" d="M32.145,131.737c-3.636,4.615-9.13,6.926-11.998,5.21c-2.915-1.74-2.109-6.582,1.457-10.919
		c3.572-4.343,8.45-6.438,11.373-5.003C35.848,122.438,35.786,127.122,32.145,131.737"/>
	<path fill="#00498F" d="M127.809,124.25v-21.051c0-7.75-2.742-11.247-8.502-11.247c-5.005,0-8.916,3.359-8.916,11.247v21.051
		h-5.142V88.249h5.142v4.388c2.057-3.013,5.417-5.141,9.944-5.141c7.611,0,12.616,4.457,12.616,14.813v21.941H127.809z"/>
	<path fill="#00498F" d="M164.769,115.406c-2.192,3.013-5.689,5.412-10.355,5.412c-4.388,0-7.336-2.328-7.336-7.678
		c0-4.528,3.153-7.061,8.437-7.061c4.388,0,6.925,0.751,9.255,2.054V115.406z M169.914,124.25V99.152
		c0-8.366-4.871-11.657-12.616-11.657c-4.666,0-8.916,1.166-12.072,2.879l1.919,4.184c2.951-1.715,6.036-2.744,9.807-2.744
		c5.283,0,7.817,2.606,7.817,7.956v4.251c-2.124-1.169-5.347-2.057-8.98-2.057c-7.135,0-13.785,3.425-13.785,11.52
		c0,8.709,5.897,11.521,11.52,11.521c5.145,0,8.711-2.402,11.246-5.144v4.388H169.914z"/>
	<path fill="#00498F" d="M202.278,95.586c-2.609-2.334-5.007-3.634-8.642-3.634c-5.625,0-9.94,5.075-9.94,14.057
		c0,8.847,3.769,14.535,10.147,14.535c3.5,0,5.825-1.438,8.297-3.838l3.088,3.291c-3.02,3.084-6.517,5.006-11.592,5.006
		c-7.885,0-15.153-6.034-15.153-18.582c0-13.306,7.953-18.929,15.497-18.929c4.869,0,8.569,1.785,11.385,4.256L202.278,95.586z"/>
	<path fill="#00498F" d="M235.049,95.586c-2.609-2.334-5.007-3.634-8.642-3.634c-5.619,0-9.94,5.075-9.94,14.057
		c0,8.847,3.769,14.535,10.15,14.535c3.496,0,5.822-1.438,8.294-3.838l3.087,3.291c-3.019,3.084-6.516,5.006-11.591,5.006
		c-7.885,0-15.153-6.034-15.153-18.582c0-13.306,7.956-18.929,15.497-18.929c4.869,0,8.569,1.785,11.385,4.256L235.049,95.586z"/>
	<path fill="#00498F" d="M265.496,93.599c-1.44-0.825-3.019-1.372-5.418-1.372c-5.004,0-7.816,4.047-7.816,10.9v21.123h-5.146
		V88.249h5.146v4.457c1.644-2.878,5.075-5.21,8.913-5.21c2.672,0,4.388,0.341,5.625,0.891L265.496,93.599z"/>
	<path fill="#00498F" d="M293.407,93.599c-1.444-0.825-3.019-1.372-5.419-1.372c-5.007,0-7.816,4.047-7.816,10.9v21.123h-5.146
		V88.249h5.146v4.457c1.645-2.878,5.075-5.21,8.913-5.21c2.673,0,4.388,0.341,5.625,0.891L293.407,93.599z"/>
	<path fill="#00498F" d="M321.18,115.406c-2.19,3.013-5.688,5.412-10.354,5.412c-4.388,0-7.334-2.328-7.334-7.678
		c0-4.528,3.156-7.061,8.435-7.061c4.388,0,6.925,0.751,9.253,2.054V115.406z M326.327,124.25V99.152
		c0-8.366-4.872-11.657-12.616-11.657c-4.666,0-8.919,1.166-12.072,2.879l1.922,4.184c2.95-1.715,6.035-2.744,9.804-2.744
		c5.281,0,7.815,2.606,7.815,7.956v4.251c-2.121-1.169-5.344-2.057-8.981-2.057c-7.132,0-13.782,3.425-13.782,11.52
		c0,8.709,5.897,11.521,11.52,11.521c5.142,0,8.71-2.402,11.244-5.144v4.388H326.327z"/>
	<path fill="#00498F" d="M112.095,155.899l-4.119-6.485c-0.251-0.383-0.607-1.005-0.768-1.271c0,0.386,0.012,1.817,0.012,2.395
		v5.361h-1.506v-10.338h1.583l3.928,6.306c0.266,0.428,0.71,1.196,0.856,1.462c0-0.382-0.012-1.862-0.012-2.436v-5.332h1.506v10.338
		H112.095z"/>
	<path fill="#00498F" d="M119.966,155.896v-0.768c-0.532,0.535-1.285,0.933-2.128,0.933c-1.254,0-2.687-0.709-2.687-2.615
		c0-1.728,1.328-2.508,3.086-2.508c0.725,0,1.3,0.099,1.729,0.296v-0.58c0-0.84-0.517-1.312-1.463-1.312
		c-0.796,0-1.417,0.146-2.023,0.487l-0.59-1.153c0.738-0.457,1.566-0.693,2.66-0.693c1.729,0,2.91,0.843,2.91,2.6v5.314H119.966z
		 M119.966,152.591c-0.414-0.209-0.946-0.341-1.772-0.341c-0.973,0-1.595,0.442-1.595,1.151c0,0.771,0.487,1.288,1.49,1.288
		c0.812,0,1.521-0.505,1.877-0.992V152.591z"/>
	<path fill="#00498F" d="M126.832,155.709c-0.368,0.203-0.885,0.353-1.49,0.353c-1.081,0-1.744-0.667-1.744-2.054v-4.475h-1.106
		v-1.39h1.106v-2.215l1.493-0.798v3.013h1.919v1.39h-1.919v4.209c0,0.723,0.236,0.93,0.795,0.93c0.402,0,0.843-0.146,1.124-0.309
		L126.832,155.709z"/>
	<path fill="#00498F" d="M129.402,147.14c-0.546,0-0.989-0.439-0.989-0.975c0-0.547,0.443-0.989,0.989-0.989
		c0.532,0,0.976,0.442,0.976,0.989C130.378,146.7,129.934,147.14,129.402,147.14 M128.634,148.144h1.52v7.756h-1.52V148.144z"/>
	<path fill="#00498F" d="M134.999,156.062c-1.95,0-3.414-1.611-3.414-4.032c0-2.541,1.506-4.047,3.456-4.047
		c1.98,0,3.459,1.581,3.459,4.002C138.5,154.555,136.991,156.062,134.999,156.062 M134.984,149.432
		c-1.152,0-1.862,1.014-1.862,2.553c0,1.7,0.784,2.63,1.935,2.63c1.154,0,1.907-1.168,1.907-2.585
		C136.964,150.445,136.211,149.432,134.984,149.432"/>
	<path fill="#00498F" d="M144.568,155.899v-4.391c0-1.563-0.59-2.125-1.594-2.125c-1.02,0-1.595,0.724-1.595,1.981v4.534h-1.521
		v-7.756h1.521v0.738c0.382-0.562,1.15-0.899,1.947-0.899c1.802,0,2.763,1.184,2.763,3.47v4.447H144.568z"/>
	<path fill="#00498F" d="M152.203,155.896v-0.768c-0.532,0.535-1.285,0.933-2.126,0.933c-1.255,0-2.688-0.709-2.688-2.615
		c0-1.728,1.329-2.508,3.086-2.508c0.725,0,1.3,0.099,1.729,0.296v-0.58c0-0.84-0.517-1.312-1.463-1.312
		c-0.798,0-1.417,0.146-2.023,0.487l-0.59-1.153c0.738-0.457,1.567-0.693,2.66-0.693c1.726,0,2.907,0.843,2.907,2.6v5.314H152.203z
		 M152.203,152.591c-0.414-0.209-0.946-0.341-1.772-0.341c-0.976,0-1.598,0.442-1.598,1.151c0,0.771,0.49,1.288,1.495,1.288
		c0.81,0,1.52-0.505,1.875-0.992V152.591z"/>
	<polygon fill="#00498F" points="155.436,155.899 155.436,145.929 156.957,145.131 156.957,155.899 	"/>
	<path fill="#00498F" d="M170.909,155.899l-0.872-2.45h-4.136l-0.856,2.45h-1.614l3.726-10.338h1.638l3.768,10.338H170.909z
		 M168.736,149.68c-0.251-0.738-0.665-1.934-0.785-2.376c-0.115,0.442-0.486,1.623-0.751,2.392l-0.827,2.363h3.192L168.736,149.68z"
		/>
	<path fill="#00498F" d="M176.373,156.062c-1.049,0-2.188-0.416-2.971-0.989l0.693-1.154c0.723,0.505,1.536,0.769,2.26,0.769
		c0.962,0,1.416-0.308,1.416-0.855c0-0.592-0.675-0.869-1.799-1.303c-1.671-0.648-2.277-1.208-2.277-2.433
		c0-1.394,1.097-2.113,2.647-2.113c0.975,0,1.935,0.353,2.625,0.854l-0.664,1.169c-0.634-0.442-1.267-0.667-2.009-0.667
		c-0.734,0-1.063,0.299-1.063,0.712c0,0.385,0.269,0.663,1.435,1.123c1.73,0.664,2.615,1.137,2.615,2.598
		C179.281,155.487,177.892,156.062,176.373,156.062"/>
	<path fill="#00498F" d="M183.074,156.062c-1.049,0-2.185-0.416-2.968-0.989l0.696-1.154c0.721,0.505,1.536,0.769,2.26,0.769
		c0.959,0,1.416-0.308,1.416-0.855c0-0.592-0.678-0.869-1.799-1.303c-1.674-0.648-2.277-1.208-2.277-2.433
		c0-1.394,1.094-2.113,2.642-2.113c0.978,0,1.938,0.353,2.631,0.854l-0.664,1.169c-0.64-0.442-1.272-0.667-2.009-0.667
		c-0.737,0-1.063,0.299-1.063,0.712c0,0.385,0.263,0.663,1.429,1.123c1.73,0.664,2.618,1.137,2.618,2.598
		C185.985,155.487,184.599,156.062,183.074,156.062"/>
	<path fill="#00498F" d="M190.311,156.062c-1.949,0-3.41-1.611-3.41-4.032c0-2.541,1.503-4.047,3.455-4.047
		c1.979,0,3.455,1.581,3.455,4.002C193.811,154.555,192.304,156.062,190.311,156.062 M190.295,149.432
		c-1.15,0-1.858,1.014-1.858,2.553c0,1.7,0.783,2.63,1.931,2.63c1.153,0,1.907-1.168,1.907-2.585
		C192.274,150.445,191.521,149.432,190.295,149.432"/>
	<path fill="#00498F" d="M200.045,150.373c-0.64-0.648-1.198-0.941-1.895-0.941c-1.105,0-1.812,0.989-1.812,2.567
		c0,1.521,0.646,2.612,1.856,2.612c0.727,0,1.153-0.322,1.761-0.959l0.974,0.959c-0.604,0.771-1.375,1.45-2.779,1.45
		c-1.889,0-3.348-1.597-3.348-4.021c0-2.567,1.504-4.059,3.393-4.059c1.139,0,2.026,0.457,2.747,1.314L200.045,150.373z"/>
	<path fill="#00498F" d="M203.201,147.14c-0.547,0-0.989-0.439-0.989-0.975c0-0.547,0.442-0.989,0.989-0.989
		c0.532,0,0.978,0.442,0.978,0.989C204.179,146.7,203.733,147.14,203.201,147.14 M202.437,148.144h1.519v7.756h-1.519V148.144z"/>
	<path fill="#00498F" d="M210.201,155.896v-0.768c-0.531,0.535-1.285,0.933-2.125,0.933c-1.255,0-2.687-0.709-2.687-2.615
		c0-1.728,1.327-2.508,3.084-2.508c0.727,0,1.301,0.099,1.728,0.296v-0.58c0-0.84-0.514-1.312-1.461-1.312
		c-0.798,0-1.417,0.146-2.023,0.487l-0.592-1.153c0.741-0.457,1.566-0.693,2.66-0.693c1.728,0,2.911,0.843,2.911,2.6v5.314H210.201z
		 M210.201,152.591c-0.412-0.209-0.944-0.341-1.769-0.341c-0.978,0-1.6,0.442-1.6,1.151c0,0.771,0.49,1.288,1.495,1.288
		c0.81,0,1.521-0.505,1.873-0.992V152.591z"/>
	<path fill="#00498F" d="M217.07,155.709c-0.371,0.203-0.885,0.353-1.494,0.353c-1.079,0-1.743-0.667-1.743-2.054v-4.475h-1.108
		v-1.39h1.108v-2.215l1.491-0.798v3.013h1.919v1.39h-1.919v4.209c0,0.723,0.239,0.93,0.799,0.93c0.4,0,0.84-0.146,1.12-0.309
		L217.07,155.709z"/>
	<path fill="#00498F" d="M219.641,147.14c-0.55,0-0.992-0.439-0.992-0.975c0-0.547,0.442-0.989,0.992-0.989
		c0.526,0,0.972,0.442,0.972,0.989C220.612,146.7,220.167,147.14,219.641,147.14 M218.869,148.144h1.524v7.756h-1.524V148.144z"/>
	<path fill="#00498F" d="M225.23,156.062c-1.946,0-3.414-1.611-3.414-4.032c0-2.541,1.513-4.047,3.461-4.047
		c1.979,0,3.455,1.581,3.455,4.002C228.732,154.555,227.227,156.062,225.23,156.062 M225.218,149.432
		c-1.147,0-1.862,1.014-1.862,2.553c0,1.7,0.786,2.63,1.938,2.63c1.15,0,1.903-1.168,1.903-2.585
		C227.196,150.445,226.443,149.432,225.218,149.432"/>
	<path fill="#00498F" d="M234.801,155.899v-4.391c0-1.563-0.589-2.125-1.594-2.125c-1.019,0-1.593,0.724-1.593,1.981v4.534h-1.524
		v-7.756h1.524v0.738c0.383-0.562,1.147-0.899,1.948-0.899c1.803,0,2.763,1.184,2.763,3.47v4.447H234.801z"/>
	<path fill="#00498F" d="M246.138,156.062c-1.952,0-3.413-1.611-3.413-4.032c0-2.541,1.506-4.047,3.458-4.047
		c1.979,0,3.455,1.581,3.455,4.002C249.638,154.555,248.131,156.062,246.138,156.062 M246.122,149.432
		c-1.15,0-1.858,1.014-1.858,2.553c0,1.7,0.783,2.63,1.931,2.63c1.153,0,1.907-1.168,1.907-2.585
		C248.102,150.445,247.348,149.432,246.122,149.432"/>
	<path fill="#00498F" d="M253.523,146.503c-0.503,0-0.712,0.194-0.712,0.756v0.885h1.435v1.42h-1.435v6.336h-1.519v-6.336h-1.004
		v-1.42h1.004v-1.02c0-1.417,0.873-1.948,1.964-1.948c0.397,0,0.828,0.057,1.151,0.146v1.333
		C254.052,146.551,253.789,146.503,253.523,146.503"/>
	<path fill="#00498F" d="M264.812,156.062c-2.676,0-4.37-2.2-4.37-5.333c0-3.129,1.694-5.332,4.37-5.332
		c1.683,0,2.807,0.682,3.518,1.938l-1.375,0.854c-0.532-0.84-1.076-1.237-2.143-1.237c-1.803,0-2.777,1.458-2.777,3.777
		c0,2.316,0.975,3.781,2.777,3.781c1.078,0,1.742-0.445,2.274-1.282l1.285,0.858C267.634,155.353,266.381,156.062,264.812,156.062"
		/>
	<path fill="#00498F" d="M274.577,155.899v-4.391c0-1.563-0.592-2.125-1.597-2.125c-1.019,0-1.596,0.724-1.596,1.981v4.534h-1.519
		v-9.971l1.519-0.798v3.751c0.383-0.562,1.154-0.899,1.949-0.899c1.805,0,2.762,1.184,2.762,3.47v4.447H274.577z"/>
	<path fill="#00498F" d="M278.609,147.14c-0.547,0-0.992-0.439-0.992-0.975c0-0.547,0.445-0.989,0.992-0.989
		c0.528,0,0.971,0.442,0.971,0.989C279.58,146.7,279.138,147.14,278.609,147.14 M277.838,148.144h1.521v7.756h-1.521V148.144z"/>
	<polygon fill="#00498F" points="281.233,155.899 281.233,145.929 282.755,145.131 282.755,155.899 	"/>
	<path fill="#00498F" d="M289.223,155.899v-0.738c-0.562,0.518-1.211,0.9-2.026,0.9c-1.668,0-2.978-1.214-2.978-4.167
		c0-2.66,1.447-3.912,3.055-3.912c0.783,0,1.521,0.415,1.949,0.885v-2.953l1.506-0.783v10.769H289.223z M289.234,150.403
		c-0.334-0.458-1.046-1.02-1.811-1.02c-1.098,0-1.687,0.828-1.687,2.469c0,1.949,0.619,2.807,1.743,2.807
		c0.72,0,1.359-0.487,1.754-0.992V150.403z"/>
	<path fill="#00498F" d="M301.666,156.062c-2.676,0-4.373-2.2-4.373-5.333c0-3.129,1.697-5.332,4.373-5.332
		c1.683,0,2.807,0.682,3.518,1.938l-1.375,0.854c-0.532-0.84-1.079-1.237-2.143-1.237c-1.803,0-2.777,1.458-2.777,3.777
		c0,2.316,0.975,3.781,2.777,3.781c1.075,0,1.742-0.445,2.274-1.282l1.285,0.858C304.487,155.353,303.231,156.062,301.666,156.062"
		/>
	<path fill="#00498F" d="M310.94,155.896v-0.768c-0.532,0.535-1.286,0.933-2.128,0.933c-1.256,0-2.688-0.709-2.688-2.615
		c0-1.728,1.33-2.508,3.088-2.508c0.723,0,1.303,0.099,1.728,0.296v-0.58c0-0.84-0.521-1.312-1.462-1.312
		c-0.798,0-1.42,0.146-2.023,0.487l-0.592-1.153c0.741-0.457,1.566-0.693,2.66-0.693c1.728,0,2.911,0.843,2.911,2.6v5.314H310.94z
		 M310.94,152.591c-0.413-0.209-0.948-0.341-1.775-0.341c-0.975,0-1.594,0.442-1.594,1.151c0,0.771,0.487,1.288,1.491,1.288
		c0.813,0,1.525-0.505,1.878-0.992V152.591z"/>
	<path fill="#00498F" d="M318.308,149.755c-0.325-0.18-0.663-0.281-1.169-0.281c-0.956,0-1.518,0.679-1.518,1.993v4.433H314.1
		v-7.756h1.521v0.738c0.355-0.515,1.004-0.899,1.772-0.899c0.618,0,1.004,0.119,1.312,0.325L318.308,149.755z"/>
	<path fill="#00498F" d="M325.634,152.562h-5.126c0.164,1.491,1.001,2.128,1.949,2.128c0.65,0,1.168-0.239,1.688-0.622l0.896,0.978
		c-0.679,0.648-1.495,1.02-2.672,1.02c-1.82,0-3.356-1.465-3.356-4.035c0-2.631,1.393-4.047,3.4-4.047
		c2.2,0,3.262,1.787,3.262,3.885C325.676,152.148,325.648,152.396,325.634,152.562 M322.311,149.357
		c-1.02,0-1.639,0.705-1.773,1.945h3.608C324.067,150.242,323.565,149.357,322.311,149.357"/>
	<path fill="#00498F" d="M111.298,167.963l2.112,4.224h-1.788l-2.05-4.092h-2.336v4.092h-1.521v-10.339h4.533
		c1.804,0,3.325,0.959,3.325,3.085C113.573,166.588,112.7,167.607,111.298,167.963 M110.248,163.31h-3.012v3.323h3.012
		c1.035,0,1.76-0.532,1.76-1.655C112.008,163.901,111.298,163.31,110.248,163.31"/>
	<path fill="#00498F" d="M121.105,168.848h-5.126c0.162,1.491,1.003,2.128,1.949,2.128c0.648,0,1.166-0.239,1.683-0.621l0.901,0.978
		c-0.677,0.648-1.491,1.019-2.672,1.019c-1.819,0-3.355-1.464-3.355-4.035c0-2.627,1.39-4.047,3.4-4.047
		c2.202,0,3.264,1.788,3.264,3.886C121.148,168.436,121.117,168.684,121.105,168.848 M117.781,165.644
		c-1.019,0-1.641,0.708-1.772,1.946h3.602C119.537,166.528,119.035,165.644,117.781,165.644"/>
	<path fill="#00498F" d="M124.883,172.348c-1.05,0-2.187-0.415-2.969-0.986l0.695-1.153c0.722,0.505,1.536,0.768,2.26,0.768
		c0.961,0,1.419-0.311,1.419-0.857c0-0.592-0.68-0.87-1.802-1.3c-1.669-0.649-2.277-1.211-2.277-2.434
		c0-1.393,1.095-2.116,2.646-2.116c0.975,0,1.936,0.355,2.629,0.858l-0.667,1.165c-0.634-0.442-1.271-0.663-2.007-0.663
		c-0.738,0-1.065,0.296-1.065,0.708c0,0.386,0.266,0.664,1.435,1.124c1.727,0.664,2.614,1.136,2.614,2.598
		C127.793,171.773,126.404,172.348,124.883,172.348"/>
	<path fill="#00498F" d="M132.121,172.348c-1.952,0-3.412-1.611-3.412-4.032c0-2.54,1.506-4.044,3.455-4.044
		c1.98,0,3.455,1.578,3.455,3.999C135.619,170.842,134.114,172.348,132.121,172.348 M132.105,165.719
		c-1.153,0-1.86,1.016-1.86,2.552c0,1.701,0.783,2.631,1.934,2.631c1.151,0,1.904-1.169,1.904-2.586
		C134.083,166.734,133.33,165.719,132.105,165.719"/>
	<path fill="#00498F" d="M141.63,172.187v-0.738c-0.383,0.562-1.151,0.899-1.95,0.899c-1.799,0-2.76-1.181-2.76-3.47v-4.448h1.521
		v4.389c0,1.565,0.591,2.125,1.595,2.125c1.02,0,1.595-0.721,1.595-1.977v-4.537h1.521v7.757H141.63z"/>
	<path fill="#00498F" d="M149.087,166.041c-0.325-0.176-0.664-0.281-1.166-0.281c-0.961,0-1.521,0.679-1.521,1.997v4.43h-1.521
		v-7.753h1.521v0.734c0.354-0.514,1.004-0.899,1.772-0.899c0.62,0,1.002,0.12,1.312,0.326L149.087,166.041z"/>
	<path fill="#00498F" d="M155.038,166.663c-0.637-0.651-1.195-0.944-1.891-0.944c-1.108,0-1.815,0.989-1.815,2.567
		c0,1.521,0.648,2.615,1.86,2.615c0.724,0,1.151-0.326,1.758-0.963l0.973,0.963c-0.602,0.768-1.37,1.446-2.775,1.446
		c-1.889,0-3.352-1.593-3.352-4.017c0-2.571,1.506-4.06,3.396-4.06c1.139,0,2.023,0.455,2.746,1.312L155.038,166.663z"/>
	<path fill="#00498F" d="M163.355,168.848h-5.127c0.163,1.491,1.004,2.128,1.95,2.128c0.648,0,1.166-0.239,1.683-0.621l0.899,0.978
		c-0.675,0.648-1.49,1.019-2.672,1.019c-1.817,0-3.351-1.464-3.351-4.035c0-2.627,1.387-4.047,3.397-4.047
		c2.201,0,3.262,1.788,3.262,3.886C163.396,168.436,163.367,168.684,163.355,168.848 M160.031,165.644
		c-1.02,0-1.641,0.708-1.772,1.946h3.602C161.787,166.528,161.285,165.644,160.031,165.644"/>
	<path fill="#00498F" d="M176.579,172.189l-0.812-0.966c-0.769,0.682-1.743,1.124-2.911,1.124c-2.197,0-3.248-1.136-3.248-2.807
		c0-1.401,0.738-2.244,2.173-3.055l-0.192-0.236c-0.695-0.827-0.976-1.419-0.976-2.188c0-1.491,1.107-2.379,2.864-2.379
		c0.96,0,1.874,0.341,2.777,0.975l-0.724,1.243c-0.798-0.58-1.387-0.783-2.185-0.783c-0.799,0-1.181,0.338-1.181,0.914
		c0,0.428,0.102,0.709,0.528,1.241l3.028,3.709c0.311-0.535,0.547-1.136,0.711-1.716l1.402,0.397
		c-0.225,0.846-0.589,1.73-1.121,2.499l1.638,2.026H176.579z M172.667,167.533c-0.978,0.543-1.511,1.094-1.511,1.934
		c0,0.83,0.563,1.464,1.762,1.464c0.766,0,1.417-0.311,1.931-0.795L172.667,167.533z"/>
	<path fill="#00498F" d="M190.308,167.963l2.113,4.224h-1.788l-2.053-4.092h-2.338v4.092h-1.518v-10.339h4.537
		c1.799,0,3.323,0.959,3.323,3.085C192.585,166.588,191.712,167.607,190.308,167.963 M189.262,163.31h-3.02v3.323h3.02
		c1.033,0,1.754-0.532,1.754-1.655C191.016,163.901,190.308,163.31,189.262,163.31"/>
	<path fill="#00498F" d="M200.114,168.848h-5.126c0.164,1.491,1.004,2.128,1.951,2.128c0.648,0,1.166-0.239,1.684-0.621l0.902,0.978
		c-0.682,0.648-1.494,1.019-2.678,1.019c-1.814,0-3.352-1.464-3.352-4.035c0-2.627,1.391-4.047,3.398-4.047
		c2.2,0,3.265,1.788,3.265,3.886C200.159,168.436,200.129,168.684,200.114,168.848 M196.79,165.644
		c-1.019,0-1.638,0.708-1.772,1.946h3.605C198.551,166.528,198.046,165.644,196.79,165.644"/>
	<path fill="#00498F" d="M204.206,162.792c-0.502,0-0.712,0.191-0.712,0.757v0.881h1.436v1.423h-1.436v6.334h-1.521v-6.334h-1.004
		v-1.423h1.004v-1.019c0-1.417,0.87-1.949,1.964-1.949c0.401,0,0.828,0.06,1.154,0.146v1.333
		C204.738,162.837,204.469,162.792,204.206,162.792"/>
	<path fill="#00498F" d="M212.21,168.848h-5.129c0.161,1.491,1.005,2.128,1.949,2.128c0.651,0,1.168-0.239,1.686-0.621l0.899,0.978
		c-0.679,0.648-1.491,1.019-2.672,1.019c-1.814,0-3.351-1.464-3.351-4.035c0-2.627,1.387-4.047,3.396-4.047
		c2.199,0,3.264,1.788,3.264,3.886C212.252,168.436,212.223,168.684,212.21,168.848 M208.887,165.644
		c-1.022,0-1.645,0.708-1.775,1.946h3.604C210.645,166.528,210.142,165.644,208.887,165.644"/>
	<path fill="#00498F" d="M217.835,166.041c-0.325-0.176-0.663-0.281-1.165-0.281c-0.963,0-1.524,0.679-1.524,1.997v4.43h-1.524
		v-7.753h1.524v0.734c0.353-0.514,1.004-0.899,1.775-0.899c0.618,0,1.001,0.12,1.309,0.326L217.835,166.041z"/>
	<path fill="#00498F" d="M223.487,166.041c-0.325-0.176-0.663-0.281-1.166-0.281c-0.959,0-1.521,0.679-1.521,1.997v4.43h-1.519
		v-7.753h1.519v0.734c0.353-0.514,1.004-0.899,1.771-0.899c0.619,0,1.002,0.12,1.312,0.326L223.487,166.041z"/>
	<path fill="#00498F" d="M228.864,172.187v-0.769c-0.532,0.532-1.285,0.93-2.128,0.93c-1.256,0-2.688-0.705-2.688-2.612
		c0-1.73,1.33-2.511,3.088-2.511c0.724,0,1.297,0.102,1.728,0.296v-0.577c0-0.843-0.52-1.314-1.458-1.314
		c-0.802,0-1.423,0.149-2.027,0.487l-0.592-1.154c0.742-0.454,1.566-0.69,2.66-0.69c1.729,0,2.912,0.84,2.912,2.598v5.317H228.864z
		 M228.864,168.878c-0.412-0.21-0.944-0.341-1.772-0.341c-0.978,0-1.593,0.445-1.593,1.15c0,0.771,0.484,1.288,1.488,1.288
		c0.813,0,1.521-0.505,1.877-0.989V168.878z"/>
	<polygon fill="#00498F" points="232.099,172.187 232.099,162.215 233.617,161.42 233.617,172.187 	"/>
	<path fill="#00498F" d="M247.569,172.187l-0.87-2.451h-4.134l-0.86,2.451h-1.608l3.722-10.339h1.638l3.769,10.339H247.569z
		 M245.399,165.97c-0.251-0.738-0.664-1.938-0.783-2.38c-0.12,0.442-0.49,1.626-0.753,2.395l-0.828,2.361h3.191L245.399,165.97z"/>
	<path fill="#00498F" d="M252.812,175.035l-0.517-1.151c2.185-0.102,2.657-0.693,2.657-2.304v-0.132
		c-0.562,0.517-1.196,0.899-2.009,0.899c-1.653,0-2.983-1.21-2.983-4.166c0-2.657,1.462-3.91,3.055-3.91
		c0.783,0,1.524,0.413,1.938,0.885v-0.727h1.518v7.019C256.47,173.812,255.615,174.948,252.812,175.035 M254.981,166.692
		c-0.341-0.46-1.052-1.019-1.817-1.019c-1.094,0-1.686,0.824-1.686,2.466c0,1.948,0.622,2.807,1.746,2.807
		c0.723,0,1.356-0.487,1.757-0.992V166.692z"/>
	<path fill="#00498F" d="M264.45,168.848h-5.129c0.161,1.491,1.005,2.128,1.949,2.128c0.651,0,1.165-0.239,1.686-0.621l0.896,0.978
		c-0.675,0.648-1.488,1.019-2.669,1.019c-1.82,0-3.356-1.464-3.356-4.035c0-2.627,1.393-4.047,3.401-4.047
		c2.199,0,3.264,1.788,3.264,3.886C264.492,168.436,264.463,168.684,264.45,168.848 M261.127,165.644
		c-1.022,0-1.645,0.708-1.775,1.946h3.604C262.881,166.528,262.379,165.644,261.127,165.644"/>
	<path fill="#00498F" d="M270.574,172.187v-4.388c0-1.566-0.588-2.128-1.593-2.128c-1.022,0-1.596,0.726-1.596,1.984v4.531h-1.521
		v-7.757h1.521v0.738c0.383-0.559,1.15-0.899,1.948-0.899c1.806,0,2.762,1.184,2.762,3.471v4.447H270.574z"/>
	<path fill="#00498F" d="M278.636,166.663c-0.634-0.651-1.195-0.944-1.889-0.944c-1.106,0-1.817,0.989-1.817,2.567
		c0,1.521,0.648,2.615,1.859,2.615c0.729,0,1.153-0.326,1.757-0.963l0.978,0.963c-0.606,0.768-1.372,1.446-2.776,1.446
		c-1.89,0-3.354-1.593-3.354-4.017c0-2.571,1.506-4.06,3.396-4.06c1.142,0,2.026,0.455,2.75,1.312L278.636,166.663z"/>
	<path fill="#00498F" d="M281.798,163.429c-0.55,0-0.992-0.445-0.992-0.978c0-0.544,0.442-0.989,0.992-0.989
		c0.532,0,0.975,0.445,0.975,0.989C282.772,162.983,282.33,163.429,281.798,163.429 M281.03,164.434h1.521v7.753h-1.521V164.434z"/>
	<path fill="#00498F" d="M290.601,168.848h-5.126c0.161,1.491,1.004,2.128,1.949,2.128c0.651,0,1.165-0.239,1.683-0.621l0.899,0.978
		c-0.679,0.648-1.488,1.019-2.672,1.019c-1.817,0-3.354-1.464-3.354-4.035c0-2.627,1.387-4.047,3.395-4.047
		c2.206,0,3.268,1.788,3.268,3.886C290.643,168.436,290.615,168.684,290.601,168.848 M287.273,165.644
		c-1.016,0-1.638,0.708-1.77,1.946h3.603C289.031,166.528,288.529,165.644,287.273,165.644"/>
	<path fill="#00498F" d="M294.375,172.348c-1.046,0-2.182-0.415-2.965-0.986l0.693-1.153c0.724,0.505,1.537,0.768,2.26,0.768
		c0.96,0,1.417-0.311,1.417-0.857c0-0.592-0.676-0.87-1.8-1.3c-1.674-0.649-2.277-1.211-2.277-2.434
		c0-1.393,1.092-2.116,2.648-2.116c0.972,0,1.931,0.355,2.627,0.858l-0.666,1.165c-0.637-0.442-1.271-0.663-2.009-0.663
		c-0.735,0-1.063,0.296-1.063,0.708c0,0.386,0.266,0.664,1.432,1.124c1.73,0.664,2.615,1.136,2.615,2.598
		C297.287,171.773,295.9,172.348,294.375,172.348"/>
</g>
</svg>
