<?xml version="1.0" encoding="utf-8"?>
<!-- Generator: Adobe Illustrator 16.0.0, SVG Export Plug-In . SVG Version: 6.00 Build 0)  -->
<!DOCTYPE svg PUBLIC "-//W3C//DTD SVG 1.1//EN" "http://www.w3.org/Graphics/SVG/1.1/DTD/svg11.dtd">
<svg version="1.1" id="Layer_1" xmlns="http://www.w3.org/2000/svg" xmlns:xlink="http://www.w3.org/1999/xlink" x="0px" y="0px"
	 width="505.143px" height="269.607px" viewBox="810.392 129.196 505.143 269.607"
	 enable-background="new 810.392 129.196 505.143 269.607" xml:space="preserve">
<g>
	<polygon fill="#FFFFFF" points="1292.814,398.444 1311.16,398.444 1311.16,392.29 1298.972,392.29 1298.972,379.682 
		1309.589,379.682 1309.589,373.883 1298.972,373.883 1298.972,361.28 1311.16,361.28 1311.16,355.489 1292.814,355.489 	"/>
	<polygon fill="#FFFFFF" points="1264.406,355.489 1258.248,355.489 1258.248,398.444 1276.585,398.444 1276.585,392.29 
		1264.406,392.29 	"/>
	<path fill="#FFFFFF" d="M1229.291,355.487h-8.99v42.959h8.385c7.967,0,11.525-4.23,11.525-11.711v-2.406
		c0-4.467-1.326-7.062-4.223-8.451c2.711-1.688,4.223-3.377,4.223-7.965v-1.566C1240.21,360.733,1237.25,355.487,1229.291,355.487z
		 M1229.109,392.29h-2.656v-13.754h2.717c4.461,0,5.242,2.229,5.242,6.516C1234.412,389.27,1234.056,392.29,1229.109,392.29z
		 M1229.226,373.098h-2.771V361.28h2.529c4.047,0,5.43,1.988,5.43,5.793C1234.412,370.989,1233.33,373.098,1229.226,373.098z"/>
	<rect x="1195.927" y="355.489" fill="#FFFFFF" width="6.156" height="42.955"/>
	<path fill="#FFFFFF" d="M1168.654,355.125c-7.051,0-10.555,5.248-10.555,11.76c0,5.373,1.387,8.871,6.695,11.043l4.402,1.811
		c3.02,1.211,3.561,1.932,3.561,6.52c0,3.924-0.299,6.391-4.459,6.391c-3.137,0-4.346-2.166-4.346-4.4v-1.926h-6.154v2.287
		c0,5.793,4.529,10.193,10.5,10.193c7.965,0,10.615-5.371,10.615-12.605c0-6.271-1.025-9.713-6.455-11.764l-4.701-1.873
		c-3.205-1.271-3.506-2.41-3.506-5.729c0-2.834,0.785-5.551,4.162-5.551c3.141,0,4.344,2.352,4.344,5.186v1.393h6.156v-3.021
		C1178.916,360.077,1174.81,355.125,1168.654,355.125z"/>
	<path fill="#FFFFFF" d="M1131.923,355.125c-7.068,0-10.559,5.248-10.559,11.76c0,5.373,1.381,8.871,6.695,11.043l4.404,1.811
		c3.014,1.211,3.562,1.932,3.562,6.52c0,3.924-0.312,6.391-4.477,6.391c-3.135,0-4.34-2.166-4.34-4.4v-1.926h-6.152v2.287
		c0,5.793,4.521,10.193,10.492,10.193c7.965,0,10.621-5.371,10.621-12.605c0-6.271-1.025-9.713-6.457-11.764l-4.705-1.873
		c-3.189-1.271-3.494-2.41-3.494-5.729c0-2.834,0.785-5.551,4.162-5.551c3.135,0,4.35,2.352,4.35,5.186v1.393h6.145v-3.021
		C1142.173,360.077,1138.078,355.125,1131.923,355.125z"/>
	<path fill="#FFFFFF" d="M1094.271,355.125c-5.008,0-10.32,3.498-10.32,10.494v22.688c0,6.994,5.312,10.496,10.32,10.496
		c5.012,0,10.316-3.502,10.316-10.496V365.62C1104.587,358.624,1099.283,355.125,1094.271,355.125z M1098.433,388.307
		c0,2.955-1.932,4.34-4.162,4.34c-2.229,0-4.166-1.385-4.166-4.34V365.62c0-2.949,1.939-4.338,4.166-4.338
		c2.23,0,4.162,1.389,4.162,4.338V388.307z"/>
	<path fill="#FFFFFF" d="M1056.75,355.489h-9.232v42.955h6.156V381.67h3.135c4.531,0,7.236-1.688,8.934-4.467
		c1.447-2.354,1.746-4.889,1.746-8.623c0-5.127-0.662-7.848-2.771-10.078C1062.597,356.272,1060.126,355.489,1056.75,355.489z
		 M1056.628,375.875h-2.955v-14.598h3.191c4.83,0,4.83,3.314,4.83,7.357C1061.695,372.918,1061.636,375.875,1056.628,375.875z"/>
	<path fill="#FFFFFF" d="M996.964,355.125c-7.061,0-10.557,5.248-10.557,11.76c0,5.373,1.387,8.871,6.695,11.043l4.404,1.811
		c3.02,1.211,3.561,1.932,3.561,6.52c0,3.924-0.301,6.391-4.467,6.391c-3.135,0-4.34-2.166-4.34-4.4v-1.926h-6.152v2.287
		c0,5.793,4.523,10.193,10.492,10.193c7.967,0,10.623-5.371,10.623-12.605c0-6.271-1.027-9.713-6.457-11.764l-4.707-1.873
		c-3.197-1.271-3.5-2.41-3.5-5.729c0-2.834,0.783-5.551,4.164-5.551c3.135,0,4.344,2.352,4.344,5.186v1.393h6.154v-3.021
		C1007.222,360.077,1003.119,355.125,996.964,355.125z"/>
	<polygon fill="#FFFFFF" points="971.32,366.102 977.474,361.643 977.474,355.489 971.32,355.489 	"/>
	<polygon fill="#FFFFFF" points="940.855,361.28 947.978,361.28 947.978,398.446 954.128,398.446 954.128,361.28 961.244,361.28 
		961.244,355.489 940.855,355.489 	"/>
	<path fill="#FFFFFF" d="M915.458,355.487l-9.596,42.957h6.154l1.811-9.23h8.389l1.812,9.23h6.154l-9.596-42.957H915.458z
		 M914.916,383.42l3.014-15.564h0.121l3.014,15.564H914.916z"/>
	<polygon fill="#FFFFFF" points="885.05,373.883 877.451,373.883 877.451,355.489 871.296,355.489 871.296,398.444 877.451,398.444 
		877.451,379.319 885.05,379.319 885.05,398.444 891.201,398.444 891.201,355.489 885.05,355.489 	"/>
	<polygon fill="#FFFFFF" points="845.904,383.42 845.777,383.42 840.773,355.489 836.064,355.489 831.242,382.758 831.115,382.758 
		828.039,355.489 821.527,355.489 827.921,398.444 833.708,398.444 838.359,370.573 838.48,370.573 843.183,398.444 848.98,398.444 
		855.373,355.489 848.855,355.489 	"/>
	<path fill="#FFFFFF" d="M1315.535,182.737v-12.688c0-20.043-17.258-40.854-43.141-40.854c-29.682,0-44.402,22.078-44.402,49.484
		c0,22.585,5.832,37.299,28.164,46.438l18.527,7.612c12.688,5.073,14.969,8.119,14.969,27.401c0,16.494-1.27,26.902-18.775,26.902
		c-13.199,0-18.275-9.142-18.275-18.529v-8.117h-25.877v9.646c0,24.354,19.029,42.879,44.152,42.879
		c33.494,0,44.658-22.58,44.658-53.031c0-26.391-4.314-40.855-27.15-49.482l-19.797-7.865c-13.445-5.33-14.719-10.15-14.719-24.109
		c0-11.926,3.301-23.342,17.514-23.342c13.191,0,18.271,9.894,18.271,21.818v5.836H1315.535z"/>
	<polygon fill="#FFFFFF" points="1116.951,311.389 1194.089,311.389 1194.089,285.512 1142.826,285.512 1142.826,232.477 
		1187.488,232.477 1187.488,208.116 1142.826,208.116 1142.826,155.083 1194.089,155.083 1194.089,130.721 1116.951,130.721 	"/>
	<path fill="#FFFFFF" d="M1034.22,130.722h-38.314v180.667h36.037c30.445,0,47.707-15.984,47.707-49.479v-84.5
		C1079.646,148.229,1063.408,130.722,1034.22,130.722z M1053.765,264.444c0,15.479-5.584,22.592-20.051,22.592h-11.924V155.081
		h11.924c15.229,0,20.051,8.119,20.051,22.33V264.444z"/>
	<rect x="929.675" y="130.72" fill="#FFFFFF" width="25.889" height="180.667"/>
	<polygon fill="#FFFFFF" points="810.392,155.081 840.332,155.081 840.332,311.389 866.212,311.389 866.212,155.081 
		896.158,155.081 896.158,130.721 810.392,130.721 	"/>
</g>
</svg>
