<?xml version="1.0" encoding="utf-8"?>
<!-- Generator: Adobe Illustrator 16.0.0, SVG Export Plug-In . SVG Version: 6.00 Build 0)  -->
<!DOCTYPE svg PUBLIC "-//W3C//DTD SVG 1.1//EN" "http://www.w3.org/Graphics/SVG/1.1/DTD/svg11.dtd">
<svg version="1.1" id="Layer_1" xmlns="http://www.w3.org/2000/svg" xmlns:xlink="http://www.w3.org/1999/xlink" x="0px" y="0px"
	 width="728px" height="528px" viewBox="0 0 728 528" enable-background="new 0 0 728 528" xml:space="preserve">
<rect fill="#59894E" width="728" height="528"/>
<g>
	<polygon fill="#FFFFFF" points="593.85,398.444 612.194,398.444 612.194,392.29 600.007,392.29 600.007,379.682 610.625,379.682 
		610.625,373.883 600.007,373.883 600.007,361.28 612.194,361.28 612.194,355.488 593.85,355.488 	"/>
	<polygon fill="#FFFFFF" points="565.44,355.488 559.283,355.488 559.283,398.444 577.621,398.444 577.621,392.29 565.44,392.29 	
		"/>
	<path fill="#FFFFFF" d="M530.325,355.487h-8.99v42.959h8.385c7.966,0,11.525-4.23,11.525-11.712v-2.406
		c0-4.467-1.326-7.062-4.223-8.45c2.712-1.688,4.223-3.377,4.223-7.965v-1.566C541.245,360.733,538.285,355.487,530.325,355.487z
		 M530.144,392.29h-2.655v-13.755h2.717c4.46,0,5.242,2.229,5.242,6.517C535.447,389.27,535.092,392.29,530.144,392.29z
		 M530.262,373.099h-2.773v-11.819h2.529c4.047,0,5.43,1.989,5.43,5.793C535.447,370.989,534.365,373.099,530.262,373.099z"/>
	<rect x="496.962" y="355.489" fill="#FFFFFF" width="6.157" height="42.955"/>
	<path fill="#FFFFFF" d="M469.689,355.125c-7.052,0-10.556,5.249-10.556,11.76c0,5.373,1.388,8.872,6.695,11.043l4.403,1.811
		c3.019,1.21,3.561,1.932,3.561,6.52c0,3.923-0.3,6.39-4.459,6.39c-3.137,0-4.347-2.167-4.347-4.401v-1.925h-6.154v2.287
		c0,5.792,4.53,10.193,10.501,10.193c7.965,0,10.615-5.37,10.615-12.606c0-6.271-1.025-9.713-6.456-11.763l-4.7-1.873
		c-3.206-1.271-3.506-2.41-3.506-5.729c0-2.834,0.784-5.551,4.162-5.551c3.141,0,4.344,2.353,4.344,5.187v1.391h6.156v-3.021
		C479.95,360.076,475.846,355.125,469.689,355.125z"/>
	<path fill="#FFFFFF" d="M432.958,355.125c-7.067,0-10.559,5.249-10.559,11.76c0,5.373,1.382,8.872,6.696,11.043l4.404,1.811
		c3.014,1.21,3.562,1.932,3.562,6.52c0,3.923-0.311,6.39-4.475,6.39c-3.136,0-4.341-2.167-4.341-4.401v-1.925h-6.152v2.287
		c0,5.792,4.522,10.193,10.493,10.193c7.965,0,10.621-5.37,10.621-12.606c0-6.271-1.026-9.713-6.457-11.763l-4.705-1.873
		c-3.191-1.271-3.494-2.41-3.494-5.729c0-2.834,0.784-5.551,4.161-5.551c3.135,0,4.349,2.353,4.349,5.187v1.391h6.146v-3.021
		C443.209,360.076,439.112,355.125,432.958,355.125z"/>
	<path fill="#FFFFFF" d="M395.307,355.125c-5.009,0-10.32,3.499-10.32,10.494v22.688c0,6.995,5.312,10.496,10.32,10.496
		c5.011,0,10.315-3.501,10.315-10.496v-22.688C405.623,358.624,400.317,355.125,395.307,355.125z M399.469,388.308
		c0,2.955-1.933,4.339-4.162,4.339c-2.229,0-4.166-1.384-4.166-4.339v-22.688c0-2.949,1.938-4.339,4.166-4.339
		c2.229,0,4.162,1.39,4.162,4.339V388.308z"/>
	<path fill="#FFFFFF" d="M357.784,355.489h-9.232v42.955h6.157V381.67h3.134c4.531,0,7.236-1.688,8.933-4.466
		c1.449-2.354,1.746-4.889,1.746-8.623c0-5.128-0.662-7.848-2.77-10.079C363.633,356.272,361.162,355.489,357.784,355.489z
		 M357.664,375.876h-2.956v-14.598h3.192c4.83,0,4.83,3.314,4.83,7.358C362.73,372.919,362.671,375.876,357.664,375.876z"/>
	<path fill="#FFFFFF" d="M297.999,355.125c-7.06,0-10.557,5.249-10.557,11.76c0,5.373,1.388,8.872,6.697,11.043l4.403,1.811
		c3.019,1.21,3.56,1.932,3.56,6.52c0,3.923-0.3,6.39-4.466,6.39c-3.134,0-4.339-2.167-4.339-4.401v-1.925h-6.153v2.287
		c0,5.792,4.523,10.193,10.493,10.193c7.966,0,10.622-5.37,10.622-12.606c0-6.271-1.027-9.713-6.456-11.763l-4.707-1.873
		c-3.199-1.271-3.5-2.41-3.5-5.729c0-2.834,0.783-5.551,4.163-5.551c3.135,0,4.343,2.353,4.343,5.187v1.391h6.156v-3.021
		C308.257,360.076,304.154,355.125,297.999,355.125z"/>
	<polygon fill="#FFFFFF" points="272.354,366.103 278.51,361.644 278.51,355.488 272.354,355.488 	"/>
	<polygon fill="#FFFFFF" points="241.891,361.279 249.013,361.279 249.013,398.446 255.163,398.446 255.163,361.279 
		262.279,361.279 262.279,355.488 241.891,355.488 	"/>
	<path fill="#FFFFFF" d="M216.493,355.487l-9.596,42.957h6.156l1.809-9.231h8.39l1.811,9.231h6.155l-9.595-42.957H216.493z
		 M215.95,383.421l3.015-15.565h0.121l3.013,15.565H215.95z"/>
	<polygon fill="#FFFFFF" points="186.086,373.883 178.486,373.883 178.486,355.488 172.331,355.488 172.331,398.444 
		178.486,398.444 178.486,379.319 186.086,379.319 186.086,398.444 192.235,398.444 192.235,355.488 186.086,355.488 	"/>
	<polygon fill="#FFFFFF" points="146.939,383.42 146.812,383.42 141.809,355.489 137.1,355.489 132.277,382.759 132.15,382.759 
		129.073,355.489 122.561,355.489 128.957,398.444 134.743,398.444 139.394,370.572 139.516,370.572 144.219,398.444 
		150.015,398.444 156.408,355.489 149.89,355.489 	"/>
	<path fill="#FFFFFF" d="M616.569,182.737V170.05c0-20.044-17.258-40.854-43.14-40.854c-29.683,0-44.402,22.078-44.402,49.484
		c0,22.585,5.832,37.299,28.164,46.438l18.527,7.612c12.688,5.073,14.969,8.119,14.969,27.402c0,16.494-1.27,26.901-18.776,26.901
		c-13.198,0-18.275-9.141-18.275-18.528v-8.118H527.76v9.646c0,24.354,19.029,42.879,44.151,42.879
		c33.494,0,44.658-22.579,44.658-53.031c0-26.39-4.313-40.855-27.15-49.482l-19.797-7.866c-13.445-5.329-14.719-10.15-14.719-24.108
		c0-11.927,3.301-23.343,17.515-23.343c13.191,0,18.271,9.894,18.271,21.819v5.836H616.569z"/>
	<polygon fill="#FFFFFF" points="417.986,311.389 495.125,311.389 495.125,285.512 443.86,285.512 443.86,232.477 488.523,232.477 
		488.523,208.116 443.86,208.116 443.86,155.082 495.125,155.082 495.125,130.721 417.986,130.721 	"/>
	<path fill="#FFFFFF" d="M335.256,130.722h-38.317v180.667h36.037c30.447,0,47.708-15.984,47.708-49.478V177.41
		C380.682,148.229,364.442,130.722,335.256,130.722z M354.8,264.444c0,15.479-5.584,22.591-20.05,22.591h-11.924V155.08h11.924
		c15.226,0,20.05,8.12,20.05,22.33V264.444z"/>
	<rect x="230.71" y="130.72" fill="#FFFFFF" width="25.888" height="180.668"/>
	<polygon fill="#FFFFFF" points="111.427,155.081 141.366,155.081 141.366,311.389 167.247,311.389 167.247,155.081 
		197.192,155.081 197.192,130.721 111.427,130.721 	"/>
</g>
</svg>
