<?xml version="1.0" encoding="utf-8"?>
<!-- Generator: Adobe Illustrator 16.0.0, SVG Export Plug-In . SVG Version: 6.00 Build 0)  -->
<!DOCTYPE svg PUBLIC "-//W3C//DTD SVG 1.1//EN" "http://www.w3.org/Graphics/SVG/1.1/DTD/svg11.dtd">
<svg version="1.1" xmlns="http://www.w3.org/2000/svg" xmlns:xlink="http://www.w3.org/1999/xlink" x="0px" y="0px" width="500px"
	 height="500px" viewBox="0 0 500 500" enable-background="new 0 0 500 500" xml:space="preserve">
<g id="Layer_1" display="none">
	<rect x="333.333" y="333.333" display="inline" fill="#CCCCCC" width="166.667" height="166.667"/>
	<rect x="166.667" y="333.333" display="inline" fill="#CCCCCC" width="166.667" height="166.667"/>
	<rect y="333.333" display="inline" fill="#CCCCCC" width="166.667" height="166.667"/>
	<rect y="166.667" display="inline" fill="#CCCCCC" width="166.667" height="166.667"/>
	<rect display="inline" fill="#CCCCCC" width="166.667" height="166.667"/>
	<rect x="166.666" display="inline" fill="#CCCCCC" width="166.668" height="166.667"/>
	<rect x="333.332" display="inline" fill="#CCCCCC" width="166.668" height="166.667"/>
	<rect x="166.666" y="166.667" display="inline" fill="#CCCCCC" width="166.668" height="166.667"/>
	<rect x="333.332" y="166.667" display="inline" fill="#CCCCCC" width="166.668" height="166.667"/>
</g>
<g id="Layer_2">
	<rect fill="#FFFFFF" width="166.668" height="166.667"/>
	<rect y="333.332" fill="#FFFFFF" width="166.668" height="166.668"/>
	<rect x="333.332" fill="#FFFFFF" width="166.668" height="166.667"/>
	<rect x="183.666" y="31.667" fill="#FFFFFF" width="132.668" height="103.333"/>
	<rect x="183.666" y="365" fill="#FFFFFF" width="132.668" height="103.333"/>
	<rect x="365" y="183.667" fill="#FFFFFF" width="103.333" height="132.667"/>
	<rect x="31.667" y="183.666" fill="#FFFFFF" width="103.333" height="132.668"/>
	<rect x="333.332" y="333.332" fill="#FFFFFF" width="166.668" height="166.668"/>
</g>
</svg>
