<?xml version="1.0" encoding="utf-8"?>
<!-- Generator: Adobe Illustrator 16.0.0, SVG Export Plug-In . SVG Version: 6.00 Build 0)  -->
<!DOCTYPE svg PUBLIC "-//W3C//DTD SVG 1.1//EN" "http://www.w3.org/Graphics/SVG/1.1/DTD/svg11.dtd">
<svg version="1.1" id="Layer_1" xmlns="http://www.w3.org/2000/svg" xmlns:xlink="http://www.w3.org/1999/xlink" x="0px" y="0px"
	 width="264.342px" height="214.825px" viewBox="0 0 264.342 214.825" enable-background="new 0 0 264.342 214.825"
	 xml:space="preserve">
<path fill="#FFFFFF" d="M264.342,25.43c-9.726,4.313-20.179,7.229-31.147,8.54c11.195-6.712,19.798-17.34,23.847-30.004
	c-10.479,6.215-22.086,10.729-34.438,13.161C212.707,6.586,198.612,0,183.015,0c-29.951,0-54.231,24.282-54.231,54.231
	c0,4.251,0.479,8.391,1.403,12.36C85.112,64.329,45.151,42.738,18.403,9.927c-4.669,8.01-7.343,17.326-7.343,27.265
	c0,18.814,9.575,35.414,24.126,45.14c-8.89-0.281-17.252-2.722-24.563-6.783c-0.004,0.227-0.006,0.453-0.006,0.682
	c0,26.277,18.693,48.195,43.505,53.18c-4.552,1.237-9.343,1.9-14.288,1.9c-3.496,0-6.894-0.34-10.204-0.973
	c6.9,21.545,26.93,37.226,50.661,37.664c-18.561,14.545-41.945,23.215-67.354,23.215c-4.377,0-8.694-0.258-12.938-0.758
	C24,205.847,52.506,214.825,83.134,214.825c99.754,0,154.303-82.639,154.303-154.305c0-2.352-0.054-4.689-0.158-7.016
	C247.876,45.858,257.071,36.306,264.342,25.43z"/>
</svg>
