<?xml version="1.0" encoding="utf-8"?>
<!-- Generator: Adobe Illustrator 16.0.0, SVG Export Plug-In . SVG Version: 6.00 Build 0)  -->
<!DOCTYPE svg PUBLIC "-//W3C//DTD SVG 1.1//EN" "http://www.w3.org/Graphics/SVG/1.1/DTD/svg11.dtd">
<svg version="1.1" id="Layer_1" xmlns="http://www.w3.org/2000/svg" xmlns:xlink="http://www.w3.org/1999/xlink" x="0px" y="0px"
	 width="33.839px" height="23.218px" viewBox="0 0 33.839 23.218" enable-background="new 0 0 33.839 23.218" xml:space="preserve">
<rect fill="#FFFFFF" width="33.839" height="23.218"/>
<g>
	<rect y="20.934" fill="#C2151C" width="33.839" height="2.284"/>
	<rect y="16.748" fill="#C2151C" width="33.839" height="2.284"/>
	<rect y="12.561" fill="#C2151C" width="33.839" height="2.284"/>
	<rect y="8.374" fill="#C2151C" width="33.839" height="2.284"/>
	<rect y="4.187" fill="#C2151C" width="33.839" height="2.283"/>
	<rect fill="#C2151C" width="33.839" height="2.284"/>
</g>
<rect fill="#2B3990" width="14.83" height="14.83"/>
<g>
	<circle fill="#FFFFFF" cx="2.415" cy="2.474" r="0.907"/>
	<circle fill="#FFFFFF" cx="5.736" cy="2.474" r="0.906"/>
	<circle fill="#FFFFFF" cx="9.057" cy="2.474" r="0.906"/>
	<circle fill="#FFFFFF" cx="12.378" cy="2.474" r="0.906"/>
</g>
<g>
	<circle fill="#FFFFFF" cx="2.415" cy="8.855" r="0.907"/>
	<circle fill="#FFFFFF" cx="5.736" cy="8.855" r="0.906"/>
	<circle fill="#FFFFFF" cx="9.057" cy="8.855" r="0.906"/>
	<circle fill="#FFFFFF" cx="12.378" cy="8.855" r="0.906"/>
</g>
<g>
	<circle fill="#FFFFFF" cx="4.101" cy="5.665" r="0.907"/>
	<circle fill="#FFFFFF" cx="7.409" cy="5.665" r="0.906"/>
	<circle fill="#FFFFFF" cx="10.718" cy="5.665" r="0.906"/>
</g>
<g>
	<circle fill="#FFFFFF" cx="4.101" cy="12.046" r="0.907"/>
	<circle fill="#FFFFFF" cx="7.409" cy="12.046" r="0.906"/>
	<circle fill="#FFFFFF" cx="10.718" cy="12.046" r="0.906"/>
</g>
</svg>
