<?xml version="1.0" encoding="utf-8"?>
<!-- Generator: Adobe Illustrator 16.0.0, SVG Export Plug-In . SVG Version: 6.00 Build 0)  -->
<!DOCTYPE svg PUBLIC "-//W3C//DTD SVG 1.1//EN" "http://www.w3.org/Graphics/SVG/1.1/DTD/svg11.dtd">
<svg version="1.1" id="Layer_1" xmlns="http://www.w3.org/2000/svg" xmlns:xlink="http://www.w3.org/1999/xlink" x="0px" y="0px"
	 width="640px" height="480px" viewBox="745 0 640 480" enable-background="new 745 0 640 480" xml:space="preserve">
<rect x="735" y="-12.5" fill="#EE172A" width="660" height="501"/>
<g enable-background="new    ">
	<g>
		<path fill="#FFFFFF" d="M838.659,121.673l-3.495-9.494h-13.385l-3.494,9.494h-9.626l16.549-42.396h7.056l16.549,42.396H838.659
			L838.659,121.673z M829.758,96.421c-0.396-1.121-0.923-2.506-1.252-3.891h-0.132c-0.33,1.385-0.792,2.835-1.187,3.891
			l-2.836,7.779h8.242L829.758,96.421z"/>
	</g>
	<g>
		<path fill="#FFFFFF" d="M867.01,122.53c-6.33,0-11.472-2.176-14.373-4.418V74.729h9.362V92.86
			c1.253-0.989,4.417-1.979,7.517-1.979c8.241,0,15.033,5.868,15.033,15.297C884.548,115.409,878.68,122.53,867.01,122.53z
			 M867.801,99.388c-2.77,0-4.879,1.318-5.802,2.308v11.406c0.989,0.726,3.033,1.45,4.879,1.45c4.945,0,8.044-3.362,8.044-7.714
			C874.922,102.685,872.021,99.388,867.801,99.388z"/>
	</g>
	<g>
		<path fill="#FFFFFF" d="M907.756,102.091c-0.593-0.33-1.912-0.726-2.9-0.726c-3.1,0-5.935,1.648-5.935,6.396v13.912h-9.692V91.805
			h9.562v6.659h0.065c0.99-4.681,4.483-7.187,8.506-7.187c0.923,0,2.043,0.132,2.769,0.396L907.756,102.091z"/>
	</g>
	<g>
		<path fill="#FFFFFF" d="M918.568,87.717c-1.713,0-5.209-3.494-5.209-5.208c0-1.715,3.496-5.143,5.209-5.143
			c1.715,0,5.209,3.428,5.209,5.143C923.777,84.223,920.284,87.717,918.568,87.717z M913.689,121.673V91.805h9.759v29.868H913.689z"
			/>
	</g>
	<g>
		<path fill="#FFFFFF" d="M957.073,105.058l-4.286,4.352H938.15c0.461,2.439,3.758,5.209,8.834,5.209c3.1,0,6.265-0.923,8.242-2.242
			l-0.922,8.308c-2.242,1.188-5.671,1.979-9.494,1.979c-9.1,0-16.418-6.33-16.418-16.088c0-9.626,6.989-15.758,15.561-15.758
			c8.309,0,13.385,5.736,13.385,11.934C957.337,103.476,957.205,104.464,957.073,105.058z M943.953,98.068
			c-2.835,0-5.208,2.176-5.803,4.88h10.088c0-0.198,0.066-0.396,0.066-0.66C948.305,100.244,946.523,98.068,943.953,98.068z"/>
	</g>
	<g>
		<path fill="#FFFFFF" d="M980.743,121.673v-18.329c0-2.176-1.45-4.088-4.417-4.088c-2.901,0-4.747,1.846-4.747,4.22v18.197h-9.692
			V91.805h8.901v4.022h0.065c1.188-3.165,4.287-4.945,9.1-4.945c6.527,0,10.482,3.692,10.482,10.022v20.769H980.743z"/>
	</g>
	<g>
		<path fill="#FFFFFF" d="M1018.786,121.673v-3.692h-0.065c-1.648,3.033-5.078,4.55-9.23,4.55c-7.319,0-14.374-5.539-14.374-15.759
			c0-9.626,6.856-15.89,15.165-15.89c3.164,0,6.396,1.055,7.583,2.044V74.729h9.428v46.944H1018.786z M1017.863,102.091
			c-0.924-1.253-2.901-2.703-5.868-2.703c-4.22,0-7.187,3.297-7.187,7.582c0,4.286,2.967,7.582,7.187,7.582
			c2.835,0,4.813-1.517,5.868-3.099V102.091z"/>
	</g>
	<g>
		<path fill="#FFFFFF" d="M1048.456,122.596c-9.033,0-16.286-6.396-16.286-15.89s7.252-15.89,16.286-15.89
			c8.967,0,16.285,6.396,16.285,15.89S1057.423,122.596,1048.456,122.596z M1048.456,99.256c-3.626,0-6.726,3.164-6.726,7.582
			s3.099,7.582,6.726,7.582c3.56,0,6.726-3.164,6.726-7.582S1052.016,99.256,1048.456,99.256z"/>
	</g>
	<g>
		<path fill="#FFFFFF" d="M1100.871,105.124h-6.197v16.549h-9.824V79.607h16.021c7.188,0,13.583,4.813,13.583,12.726
			C1114.454,100.244,1108.125,105.124,1100.871,105.124z M1099.422,87.849h-4.748v9.429h4.748c2.637,0,5.208-1.45,5.208-4.681
			C1104.63,89.432,1102.059,87.849,1099.422,87.849z"/>
	</g>
	<g>
		<path fill="#FFFFFF" d="M1138.85,121.673v-4.088h-0.065c-1.187,3.165-4.353,4.945-9.164,4.945c-6.527,0-10.484-3.627-10.484-9.956
			v-20.77h9.692v18.33c0,2.176,1.517,4.088,4.484,4.088c2.899,0,4.681-1.912,4.681-4.286V91.805h9.691v29.868H1138.85z"/>
	</g>
	<g>
		<path fill="#FFFFFF" d="M1180.98,105.058l-4.286,4.352h-14.638c0.461,2.439,3.759,5.209,8.835,5.209
			c3.1,0,6.265-0.923,8.241-2.242l-0.923,8.308c-2.241,1.188-5.67,1.979-9.494,1.979c-9.099,0-16.418-6.33-16.418-16.088
			c0-9.626,6.989-15.758,15.562-15.758c8.308,0,13.385,5.736,13.385,11.934C1181.244,103.476,1181.112,104.464,1180.98,105.058z
			 M1167.859,98.068c-2.835,0-5.209,2.176-5.803,4.88h10.088c0-0.198,0.065-0.396,0.065-0.66
			C1172.211,100.244,1170.431,98.068,1167.859,98.068z"/>
	</g>
	<g>
		<path fill="#FFFFFF" d="M1204.32,102.091c-0.595-0.33-1.912-0.726-2.901-0.726c-3.099,0-5.935,1.648-5.935,6.396v13.912h-9.691
			V91.805h9.56v6.659h0.066c0.989-4.681,4.483-7.187,8.505-7.187c0.924,0,2.044,0.132,2.771,0.396L1204.32,102.091z"/>
	</g>
	<g>
		<path fill="#FFFFFF" d="M1230.547,99.717h-7.779v11.077c0,2.571,1.385,3.626,3.956,3.626c1.12,0,1.779-0.065,2.505-0.396
			l-0.856,7.318c-0.923,0.462-2.571,0.792-4.483,0.792c-6.725,0-10.747-3.561-10.747-9.495V99.716h-5.011v-7.912h5.011v-6.396
			l9.627-3.494v9.89h9.626L1230.547,99.717z"/>
	</g>
	<g>
		<path fill="#FFFFFF" d="M1256.708,122.991c-1.78-0.396-3.824-1.78-4.615-3.956c-1.317,2.439-4.152,3.627-7.779,3.627
			c-5.274,0-9.956-3.692-9.956-9.891c0-5.472,4.285-9.164,10.22-9.758l5.935-0.594v-0.988c0-1.78-1.451-2.968-4.682-2.968
			c-2.901,0-6.132,0.924-8.308,2.309l-1.715-7.319c2.439-1.582,6.527-2.637,10.483-2.637c7.912,0,13.516,3.626,13.516,10.812v9.759
			c0,3.494,1.319,5.34,3.627,6.197L1256.708,122.991z M1250.511,108.618l-3.627,0.329c-2.505,0.198-3.626,1.979-3.626,3.759
			c0,1.582,1.188,2.901,3.033,2.901c2.308,0,4.22-1.78,4.22-4.352V108.618L1250.511,108.618z"/>
	</g>
	<g>
		<path fill="#FFFFFF" d="M1276.422,122.332c-4.088,0-7.055-0.857-9.494-2.109l-0.856-8.571c2.638,1.846,6.064,3.23,9.361,3.23
			c1.78,0,2.901-0.923,2.901-2.044c0-1.253-0.989-1.78-2.703-2.308c-5.736-1.648-9.165-4.55-9.165-9.758
			c0-5.868,4.747-9.627,11.209-9.627c3.692,0,7.318,0.989,8.835,1.78l-1.647,7.121c-1.45-0.791-3.824-1.648-6.197-1.648
			c-1.583,0-2.638,0.726-2.638,1.912c0,1.121,0.791,1.714,2.638,2.176c6.725,1.78,9.494,5.143,9.494,10.153
			C1288.158,117.717,1284.466,122.332,1276.422,122.332z"/>
	</g>
</g>
<g enable-background="new    ">
	<g>
		<path fill="#FFFFFF" d="M832.791,183.763c-11.604,0-22.682-8.506-22.682-22.088c0-13.45,11.012-22.021,22.682-22.021
			c11.604,0,22.615,8.505,22.615,22.021C855.406,175.191,844.461,183.763,832.791,183.763z M832.791,148.817
			c-6.33,0-12.264,5.144-12.264,12.989c0,7.845,5.934,12.989,12.264,12.989c6.264,0,12.264-5.144,12.264-12.989
			C845.055,153.961,839.055,148.817,832.791,148.817z"/>
	</g>
	<g>
		<path fill="#FFFFFF" d="M877.427,183.631c-3.165,0-6.396-0.989-7.581-1.979v16.352h-9.43v-45.099h8.505v3.692h0.065
			c1.648-3.032,5.078-4.549,9.231-4.549c7.318,0,14.374,5.538,14.374,15.758C892.592,177.433,885.734,183.631,877.427,183.631z
			 M875.713,160.488c-2.835,0-4.812,1.517-5.867,3.099v9.362c0.922,1.253,2.9,2.638,5.867,2.638c4.221,0,7.188-3.23,7.188-7.517
			C882.898,163.785,879.934,160.488,875.713,160.488z"/>
	</g>
	<g>
		<path fill="#FFFFFF" d="M924.768,166.158l-4.287,4.352h-14.637c0.463,2.439,3.758,5.209,8.836,5.209
			c3.098,0,6.264-0.923,8.241-2.242l-0.923,8.308c-2.242,1.188-5.67,1.979-9.494,1.979c-9.1,0-16.417-6.33-16.417-16.088
			c0-9.626,6.989-15.758,15.56-15.758c8.309,0,13.386,5.736,13.386,11.934C925.031,164.576,924.898,165.564,924.768,166.158z
			 M911.646,159.169c-2.836,0-5.209,2.176-5.803,4.88h10.088c0-0.198,0.066-0.396,0.066-0.66
			C915.998,161.345,914.217,159.169,911.646,159.169z"/>
	</g>
	<g>
		<path fill="#FFFFFF" d="M948.436,182.773v-18.329c0-2.176-1.449-4.088-4.416-4.088c-2.901,0-4.748,1.846-4.748,4.22v18.197h-9.691
			v-29.868h8.9v4.021h0.066c1.188-3.165,4.286-4.945,9.1-4.945c6.526,0,10.482,3.692,10.482,10.022v20.769H948.436z"/>
	</g>
	<g>
		<path fill="#FFFFFF" d="M969.139,148.817c-1.714,0-5.209-3.494-5.209-5.208c0-1.715,3.495-5.143,5.209-5.143
			c1.715,0,5.209,3.428,5.209,5.143C974.348,145.323,970.854,148.817,969.139,148.817z M964.26,182.773v-29.868h9.758v29.868H964.26
			z"/>
	</g>
	<g>
		<path fill="#FFFFFF" d="M999.006,182.773v-18.329c0-2.176-1.449-4.088-4.417-4.088c-2.901,0-4.747,1.846-4.747,4.22v18.197h-9.691
			v-29.868h8.9v4.021h0.066c1.188-3.165,4.285-4.945,9.099-4.945c6.527,0,10.483,3.692,10.483,10.022v20.769H999.006z"/>
	</g>
	<g>
		<path fill="#FFFFFF" d="M1027.818,198.004c-8.703,0-14.506-4.945-14.506-11.209c0-4.549,3.033-7.252,6.133-8.043l-3.824-3.824
			c0.264-1.912,1.912-3.561,3.626-4.286c-2.242-1.385-4.353-4.22-4.353-7.978c0-6.33,4.549-10.747,12.33-10.747
			c1.779,0,3.164,0.264,4.418,0.593c1.317,0.33,2.769,0.527,4.285,0.527c1.648,0,3.362-0.396,4.682-0.988l1.779,7.384
			c-0.923,0.528-2.373,0.989-3.691,0.924c0.33,0.593,0.725,1.978,0.725,3.032c0,5.012-3.956,9.231-9.758,9.627
			c-1.188,0.065-1.979,0.329-1.979,1.12c0,0.33,0.265,0.726,0.791,0.924l4.615,1.648c5.868,2.109,9.033,5.076,9.033,10.549
			C1042.125,193.389,1036.521,198.004,1027.818,198.004z M1029.861,183.96l-3.561-0.988c-2.308,0.065-4.021,1.714-4.021,3.89
			c0,2.044,1.779,3.758,5.275,3.758c3.428,0,5.273-1.582,5.273-3.296C1032.829,185.938,1031.773,184.487,1029.861,183.96z
			 M1027.225,158.972c-2.176,0-3.824,1.648-3.824,3.561c0,1.978,1.648,3.561,3.824,3.561c2.11,0,3.824-1.583,3.824-3.561
			C1031.049,160.62,1029.466,158.972,1027.225,158.972z"/>
	</g>
	<g>
		<path fill="#FFFFFF" d="M1075.816,182.773h-14.176v-42.065h14.176c12.065,0,22.55,7.912,22.55,21.033
			C1098.366,174.796,1087.949,182.773,1075.816,182.773z M1074.828,149.082h-3.297v25.384h3.297c7.252,0,13.252-4.22,13.252-12.659
			S1082.146,149.082,1074.828,149.082z"/>
	</g>
	<g>
		<path fill="#FFFFFF" d="M1118.541,183.696c-9.033,0-16.285-6.396-16.285-15.89c0-9.494,7.252-15.89,16.285-15.89
			c8.967,0,16.286,6.396,16.286,15.89C1134.827,177.3,1127.508,183.696,1118.541,183.696z M1118.541,160.356
			c-3.626,0-6.725,3.164-6.725,7.582s3.099,7.582,6.725,7.582c3.561,0,6.727-3.164,6.727-7.582S1122.102,160.356,1118.541,160.356z"
			/>
	</g>
	<g>
		<path fill="#FFFFFF" d="M1154.672,183.696c-9.032,0-16.285-6.396-16.285-15.89c0-9.494,7.253-15.89,16.285-15.89
			c8.967,0,16.286,6.396,16.286,15.89C1170.958,177.3,1163.639,183.696,1154.672,183.696z M1154.672,160.356
			c-3.626,0-6.725,3.164-6.725,7.582s3.099,7.582,6.725,7.582c3.562,0,6.727-3.164,6.727-7.582S1158.232,160.356,1154.672,160.356z"
			/>
	</g>
	<g>
		<path fill="#FFFFFF" d="M1194.165,163.191c-0.594-0.33-1.912-0.726-2.901-0.726c-3.099,0-5.935,1.648-5.935,6.396v13.912h-9.691
			v-29.868h9.561v6.659h0.065c0.989-4.681,4.483-7.187,8.505-7.187c0.925,0,2.045,0.132,2.771,0.396L1194.165,163.191z"/>
	</g>
	<g>
		<path fill="#FFFFFF" d="M1209.527,183.433c-4.088,0-7.056-0.857-9.494-2.109l-0.857-8.571c2.639,1.846,6.065,3.23,9.362,3.23
			c1.78,0,2.901-0.923,2.901-2.044c0-1.253-0.989-1.78-2.703-2.308c-5.736-1.648-9.165-4.55-9.165-9.758
			c0-5.868,4.747-9.627,11.209-9.627c3.691,0,7.317,0.989,8.835,1.78l-1.648,7.121c-1.45-0.791-3.824-1.648-6.197-1.648
			c-1.582,0-2.638,0.726-2.638,1.912c0,1.121,0.791,1.714,2.638,2.176c6.726,1.78,9.494,5.143,9.494,10.153
			C1221.264,178.817,1217.571,183.433,1209.527,183.433z"/>
	</g>
</g>
<g enable-background="new    ">
	<g>
		<path fill="#FFFFFF" d="M835.023,263.673l-3.722-8.899h-13.377l-3.722,8.899h-5.125l14.672-34.899h1.889l14.672,34.899H835.023z
			 M826.124,242.205c-0.485-1.133-1.024-2.751-1.457-4.208h-0.106c-0.377,1.457-0.972,3.075-1.457,4.208l-3.398,8.414h9.816
			L826.124,242.205z"/>
	</g>
	<g>
		<path fill="#FFFFFF" d="M868.46,263.673h-11.166v-34.414h9.603c4.584,0,9.654,2.967,9.654,9.009c0,2.535-1.188,5.177-3.183,6.041
			c3.183,0.918,6.364,4.478,6.364,8.9C879.732,260.328,873.8,263.673,868.46,263.673z M866.033,233.574h-3.775v9.277h3.775
			c2.859,0,5.34-1.349,5.34-4.584C871.373,234.977,868.893,233.574,866.033,233.574z M867.381,247.061h-5.124v12.297h5.124
			c3.668,0,7.12-1.887,7.12-6.147C874.501,249.055,871.049,247.061,867.381,247.061z"/>
	</g>
	<g>
		<path fill="#FFFFFF" d="M898.07,244.361c-0.432-0.106-1.079-0.215-1.78-0.215c-3.183,0-6.526,1.511-6.526,7.174v12.353h-4.908
			v-24.435h4.908v4.962h0.053c0.918-3.507,3.668-5.286,7.066-5.286c0.701,0,1.834,0.162,2.374,0.378L898.07,244.361z"/>
	</g>
	<g>
		<path fill="#FFFFFF" d="M905.727,234.491c-0.972,0-2.968-1.995-2.968-2.967c0-1.024,1.996-2.967,2.968-2.967
			c1.023,0,2.965,1.942,2.965,2.967C908.691,232.496,906.75,234.491,905.727,234.491z M903.245,263.673v-24.435h4.962v24.435
			H903.245z"/>
	</g>
	<g>
		<path fill="#FFFFFF" d="M936.092,249.918l-2.751,2.751h-14.726c0.162,3.021,2.967,7.282,8.685,7.282
			c3.128,0,5.394-0.863,7.12-1.996l-0.54,4.747c-1.726,0.917-3.938,1.563-7.228,1.563c-6.959,0-13.107-5.179-13.107-12.783
			c0-8.308,6.473-12.838,12.137-12.838c6.742,0,10.572,4.747,10.572,9.278C936.254,248.678,936.2,249.379,936.092,249.918z
			 M925.951,242.854c-3.074,0-6.365,2.426-7.012,5.824h12.297c0.055-0.216,0.055-0.432,0.055-0.646
			C931.292,245.604,929.188,242.854,925.951,242.854z"/>
	</g>
	<g>
		<path fill="#FFFFFF" d="M957.018,230.176c-1.134-0.485-2.481-0.809-3.561-0.809c-3.83,0-5.719,2.319-5.719,6.742v3.129h7.93
			l-0.971,3.938h-6.958v20.497h-4.908v-20.497h-4.153v-3.938h4.153v-3.398c0-6.904,3.938-10.572,10.302-10.572
			c1.889,0,3.561,0.27,4.855,0.81L957.018,230.176z"/>
	</g>
	<g>
		<path fill="#FFFFFF" d="M985.062,264.158h-1.672l-13.701-34.899h5.502l6.365,16.398c0.916,2.372,1.94,5.286,2.857,8.198h0.107
			c0.918-2.858,1.889-5.719,2.859-8.198l6.365-16.398h4.963L985.062,264.158z"/>
	</g>
	<g>
		<path fill="#FFFFFF" d="M1005.716,234.491c-0.971,0-2.967-1.995-2.967-2.967c0-1.024,1.996-2.967,2.967-2.967
			c1.024,0,2.966,1.942,2.966,2.967C1008.684,232.496,1006.741,234.491,1005.716,234.491z M1003.234,263.673v-24.435h4.963v24.435
			H1003.234z"/>
	</g>
	<g>
		<path fill="#FFFFFF" d="M1032.792,263.673v-2.696h-0.054c-1.079,1.563-3.398,3.291-7.391,3.291
			c-5.394,0-11.812-4.315-11.812-12.785c0-7.551,5.34-12.837,12.406-12.837c2.643,0,5.664,1.079,6.58,2.05v-15.427h4.91v38.405
			H1032.792z M1032.521,245.495c-0.756-0.863-2.806-2.429-6.096-2.429c-4.369,0-7.929,3.398-7.929,8.47
			c0,5.125,3.56,8.522,7.929,8.522c3.129,0,5.125-1.673,6.096-3.129V245.495z"/>
	</g>
	<g>
		<path fill="#FFFFFF" d="M1065.098,249.918l-2.75,2.751h-14.727c0.162,3.021,2.967,7.282,8.686,7.282
			c3.127,0,5.394-0.863,7.119-1.996l-0.54,4.747c-1.726,0.917-3.938,1.563-7.228,1.563c-6.958,0-13.107-5.179-13.107-12.783
			c0-8.308,6.473-12.838,12.137-12.838c6.742,0,10.572,4.747,10.572,9.278C1065.26,248.678,1065.206,249.379,1065.098,249.918z
			 M1054.957,242.854c-3.074,0-6.365,2.426-7.012,5.824h12.298c0.054-0.216,0.054-0.432,0.054-0.646
			C1060.297,245.604,1058.193,242.854,1054.957,242.854z"/>
	</g>
	<g>
		<path fill="#FFFFFF" d="M1082.031,264.268c-7.281,0-13-5.232-13-12.785c0-7.604,5.719-12.837,13-12.837
			s12.945,5.232,12.945,12.837C1094.977,259.034,1089.312,264.268,1082.031,264.268z M1082.031,243.066
			c-4.314,0-8.037,3.398-8.037,8.523c0,5.07,3.723,8.469,8.037,8.469c4.262,0,7.982-3.397,7.982-8.469
			C1090.016,246.466,1086.293,243.066,1082.031,243.066z"/>
	</g>
	<g>
		<path fill="#FFFFFF" d="M1113.311,263.673v-34.414h5.232v34.414H1113.311z"/>
	</g>
	<g>
		<path fill="#FFFFFF" d="M1142.005,263.673v-15.696c0-2.535-1.563-5.123-5.664-5.123c-3.938,0-5.879,2.588-5.879,5.123v15.696
			h-4.909v-24.435h4.479v3.183h0.054c1.079-2.157,3.29-3.776,7.552-3.776c5.34,0,9.277,3.398,9.277,8.847v16.182L1142.005,263.673
			L1142.005,263.673z"/>
	</g>
	<g>
		<path fill="#FFFFFF" d="M1167.839,243.176h-7.768v12.999c0,2.806,1.457,3.776,4.046,3.776c0.863,0,1.618-0.108,2.211-0.324
			l-0.432,3.884c-0.646,0.324-1.727,0.433-2.696,0.433c-4.423,0-7.983-2.535-7.983-7.281v-13.485h-4.801v-3.938h4.801v-4.963
			l4.854-2.535v7.498h8.631L1167.839,243.176z"/>
	</g>
	<g>
		<path fill="#FFFFFF" d="M1185.42,244.361c-0.432-0.106-1.078-0.215-1.779-0.215c-3.183,0-6.526,1.511-6.526,7.174v12.353h-4.908
			v-24.435h4.908v4.962h0.054c0.917-3.507,3.668-5.286,7.066-5.286c0.7,0,1.834,0.162,2.373,0.378L1185.42,244.361z"/>
	</g>
	<g>
		<path fill="#FFFFFF" d="M1199.872,264.268c-7.282,0-13-5.232-13-12.785c0-7.604,5.718-12.837,13-12.837
			c7.281,0,12.945,5.232,12.945,12.837C1212.817,259.034,1207.153,264.268,1199.872,264.268z M1199.872,243.066
			c-4.315,0-8.037,3.398-8.037,8.523c0,5.07,3.722,8.469,8.037,8.469c4.261,0,7.981-3.397,7.981-8.469
			C1207.854,246.466,1204.133,243.066,1199.872,243.066z"/>
	</g>
</g>
<rect x="735" y="-12.5" opacity="0.8" fill="#21172A" width="660" height="501"/>
<g>
	<polygon fill="#EE172A" points="1008.445,321.352 1121.555,238 1008.445,154.648 	"/>
</g>
</svg>
