<?xml version="1.0" encoding="utf-8"?>
<!-- Generator: Adobe Illustrator 16.0.0, SVG Export Plug-In . SVG Version: 6.00 Build 0)  -->
<!DOCTYPE svg PUBLIC "-//W3C//DTD SVG 1.1//EN" "http://www.w3.org/Graphics/SVG/1.1/DTD/svg11.dtd">
<svg version="1.1" id="Layer_1" xmlns="http://www.w3.org/2000/svg" xmlns:xlink="http://www.w3.org/1999/xlink" x="0px" y="0px"
	 width="640px" height="480px" viewBox="0 0 640 480" enable-background="new 0 0 640 480" xml:space="preserve">
<rect x="-10" y="-12" fill="#EE172A" width="660" height="501"/>
<g enable-background="new    ">
	<g>
		<path fill="#FFFFFF" d="M93.659,122.173l-3.495-9.494H76.78l-3.495,9.494h-9.626l16.549-42.396h7.055l16.549,42.396H93.659z
			 M84.758,96.921c-0.396-1.121-0.923-2.506-1.252-3.891h-0.132c-0.33,1.385-0.792,2.835-1.187,3.891l-2.835,7.779h8.242
			L84.758,96.921z"/>
	</g>
	<g>
		<path fill="#FFFFFF" d="M122.01,123.03c-6.33,0-11.472-2.176-14.373-4.418V75.229h9.362V93.36
			c1.253-0.989,4.417-1.979,7.517-1.979c8.241,0,15.033,5.868,15.033,15.297C139.548,115.909,133.68,123.03,122.01,123.03z
			 M122.801,99.888c-2.77,0-4.879,1.318-5.802,2.308v11.406c0.989,0.726,3.033,1.45,4.879,1.45c4.945,0,8.044-3.362,8.044-7.714
			C129.922,103.185,127.021,99.888,122.801,99.888z"/>
	</g>
	<g>
		<path fill="#FFFFFF" d="M162.756,102.591c-0.593-0.33-1.912-0.726-2.901-0.726c-3.099,0-5.934,1.648-5.934,6.396v13.912h-9.692
			V92.305h9.561v6.659h0.066c0.989-4.681,4.483-7.187,8.505-7.187c0.923,0,2.044,0.132,2.769,0.396L162.756,102.591z"/>
	</g>
	<g>
		<path fill="#FFFFFF" d="M173.569,88.217c-1.714,0-5.209-3.494-5.209-5.208c0-1.715,3.495-5.143,5.209-5.143
			s5.208,3.428,5.208,5.143C178.778,84.723,175.284,88.217,173.569,88.217z M168.69,122.173V92.305h9.758v29.868H168.69z"/>
	</g>
	<g>
		<path fill="#FFFFFF" d="M212.073,105.558l-4.286,4.352H193.15c0.462,2.439,3.758,5.209,8.835,5.209
			c3.099,0,6.264-0.923,8.242-2.242l-0.923,8.308c-2.242,1.188-5.67,1.979-9.494,1.979c-9.099,0-16.417-6.33-16.417-16.088
			c0-9.626,6.989-15.758,15.56-15.758c8.308,0,13.385,5.736,13.385,11.934C212.337,103.976,212.205,104.964,212.073,105.558z
			 M198.953,98.568c-2.835,0-5.208,2.176-5.802,4.88h10.088c0-0.198,0.066-0.396,0.066-0.66
			C203.304,100.744,201.524,98.568,198.953,98.568z"/>
	</g>
	<g>
		<path fill="#FFFFFF" d="M235.743,122.173v-18.329c0-2.176-1.45-4.088-4.417-4.088c-2.901,0-4.747,1.846-4.747,4.22v18.197h-9.692
			V92.305h8.901v4.022h0.066c1.187-3.165,4.286-4.945,9.099-4.945c6.527,0,10.483,3.692,10.483,10.022v20.769H235.743z"/>
	</g>
	<g>
		<path fill="#FFFFFF" d="M273.786,122.173v-3.692h-0.066c-1.648,3.033-5.077,4.55-9.23,4.55c-7.319,0-14.374-5.539-14.374-15.759
			c0-9.626,6.857-15.89,15.165-15.89c3.165,0,6.396,1.055,7.583,2.044V75.229h9.428v46.944H273.786z M272.863,102.591
			c-0.923-1.253-2.901-2.703-5.868-2.703c-4.22,0-7.187,3.297-7.187,7.582c0,4.286,2.967,7.582,7.187,7.582
			c2.835,0,4.813-1.517,5.868-3.099V102.591z"/>
	</g>
	<g>
		<path fill="#FFFFFF" d="M303.456,123.096c-9.033,0-16.286-6.396-16.286-15.89s7.252-15.89,16.286-15.89
			c8.967,0,16.285,6.396,16.285,15.89S312.423,123.096,303.456,123.096z M303.456,99.756c-3.626,0-6.726,3.164-6.726,7.582
			s3.099,7.582,6.726,7.582c3.56,0,6.725-3.164,6.725-7.582S307.016,99.756,303.456,99.756z"/>
	</g>
	<g>
		<path fill="#FFFFFF" d="M355.871,105.624h-6.197v16.549h-9.824V80.107h16.021c7.188,0,13.583,4.813,13.583,12.726
			C369.454,100.744,363.125,105.624,355.871,105.624z M354.422,88.349h-4.748v9.429h4.748c2.637,0,5.208-1.45,5.208-4.681
			C359.63,89.932,357.059,88.349,354.422,88.349z"/>
	</g>
	<g>
		<path fill="#FFFFFF" d="M393.85,122.173v-4.088h-0.066c-1.187,3.165-4.352,4.945-9.164,4.945c-6.527,0-10.484-3.627-10.484-9.956
			v-20.77h9.692v18.33c0,2.176,1.517,4.088,4.484,4.088c2.9,0,4.681-1.912,4.681-4.286V92.305h9.692v29.868H393.85z"/>
	</g>
	<g>
		<path fill="#FFFFFF" d="M435.98,105.558l-4.286,4.352h-14.637c0.461,2.439,3.758,5.209,8.835,5.209
			c3.099,0,6.264-0.923,8.241-2.242l-0.923,8.308c-2.241,1.188-5.67,1.979-9.494,1.979c-9.099,0-16.418-6.33-16.418-16.088
			c0-9.626,6.989-15.758,15.561-15.758c8.308,0,13.385,5.736,13.385,11.934C436.244,103.976,436.112,104.964,435.98,105.558z
			 M422.859,98.568c-2.835,0-5.209,2.176-5.802,4.88h10.088c0-0.198,0.065-0.396,0.065-0.66
			C427.211,100.744,425.431,98.568,422.859,98.568z"/>
	</g>
	<g>
		<path fill="#FFFFFF" d="M459.32,102.591c-0.594-0.33-1.912-0.726-2.901-0.726c-3.099,0-5.935,1.648-5.935,6.396v13.912h-9.691
			V92.305h9.56v6.659h0.066c0.989-4.681,4.483-7.187,8.505-7.187c0.924,0,2.044,0.132,2.77,0.396L459.32,102.591z"/>
	</g>
	<g>
		<path fill="#FFFFFF" d="M485.547,100.217h-7.779v11.077c0,2.571,1.384,3.626,3.956,3.626c1.12,0,1.779-0.065,2.505-0.396
			l-0.857,7.318c-0.923,0.462-2.571,0.792-4.483,0.792c-6.725,0-10.747-3.561-10.747-9.495v-12.923h-5.011v-7.912h5.011v-6.396
			l9.627-3.494v9.89h9.626L485.547,100.217z"/>
	</g>
	<g>
		<path fill="#FFFFFF" d="M511.708,123.491c-1.78-0.396-3.824-1.78-4.615-3.956c-1.318,2.439-4.153,3.627-7.78,3.627
			c-5.274,0-9.956-3.692-9.956-9.891c0-5.472,4.286-9.164,10.22-9.758l5.935-0.594v-0.988c0-1.78-1.451-2.968-4.682-2.968
			c-2.901,0-6.132,0.924-8.308,2.309l-1.714-7.319c2.439-1.582,6.527-2.637,10.483-2.637c7.912,0,13.516,3.626,13.516,10.812v9.759
			c0,3.494,1.319,5.34,3.627,6.197L511.708,123.491z M505.511,109.118l-3.627,0.329c-2.505,0.198-3.626,1.979-3.626,3.759
			c0,1.582,1.187,2.901,3.033,2.901c2.308,0,4.22-1.78,4.22-4.352V109.118z"/>
	</g>
	<g>
		<path fill="#FFFFFF" d="M531.422,122.832c-4.088,0-7.055-0.857-9.494-2.109l-0.857-8.571c2.638,1.846,6.065,3.23,9.362,3.23
			c1.78,0,2.901-0.923,2.901-2.044c0-1.253-0.989-1.78-2.703-2.308c-5.736-1.648-9.165-4.55-9.165-9.758
			c0-5.868,4.747-9.627,11.209-9.627c3.692,0,7.318,0.989,8.835,1.78l-1.648,7.121c-1.45-0.791-3.824-1.648-6.197-1.648
			c-1.583,0-2.638,0.726-2.638,1.912c0,1.121,0.791,1.714,2.638,2.176c6.725,1.78,9.494,5.143,9.494,10.153
			C543.158,118.217,539.466,122.832,531.422,122.832z"/>
	</g>
</g>
<g enable-background="new    ">
	<g>
		<path fill="#FFFFFF" d="M87.791,184.263c-11.604,0-22.681-8.506-22.681-22.088c0-13.45,11.011-22.021,22.681-22.021
			c11.604,0,22.615,8.505,22.615,22.021S99.461,184.263,87.791,184.263z M87.791,149.317c-6.33,0-12.264,5.144-12.264,12.989
			s5.934,12.989,12.264,12.989c6.264,0,12.264-5.144,12.264-12.989S94.055,149.317,87.791,149.317z"/>
	</g>
	<g>
		<path fill="#FFFFFF" d="M132.427,184.131c-3.165,0-6.396-0.989-7.582-1.979v16.352h-9.429v-45.099h8.505v3.692h0.066
			c1.648-3.032,5.077-4.549,9.231-4.549c7.318,0,14.374,5.538,14.374,15.758C147.592,177.933,140.734,184.131,132.427,184.131z
			 M130.713,160.988c-2.835,0-4.813,1.517-5.868,3.099v9.362c0.923,1.253,2.901,2.638,5.868,2.638c4.22,0,7.187-3.23,7.187-7.517
			C137.899,164.285,134.933,160.988,130.713,160.988z"/>
	</g>
	<g>
		<path fill="#FFFFFF" d="M179.767,166.658l-4.286,4.352h-14.637c0.462,2.439,3.758,5.209,8.835,5.209
			c3.099,0,6.264-0.923,8.242-2.242l-0.923,8.308c-2.242,1.188-5.67,1.979-9.494,1.979c-9.099,0-16.417-6.33-16.417-16.088
			c0-9.626,6.989-15.758,15.56-15.758c8.308,0,13.385,5.736,13.385,11.934C180.031,165.076,179.898,166.064,179.767,166.658z
			 M166.646,159.669c-2.835,0-5.208,2.176-5.802,4.88h10.088c0-0.198,0.066-0.396,0.066-0.66
			C170.998,161.845,169.217,159.669,166.646,159.669z"/>
	</g>
	<g>
		<path fill="#FFFFFF" d="M203.436,183.273v-18.329c0-2.176-1.45-4.088-4.417-4.088c-2.901,0-4.747,1.846-4.747,4.22v18.197h-9.692
			v-29.868h8.901v4.022h0.066c1.187-3.165,4.286-4.945,9.099-4.945c6.527,0,10.483,3.692,10.483,10.022v20.769H203.436z"/>
	</g>
	<g>
		<path fill="#FFFFFF" d="M224.139,149.317c-1.714,0-5.209-3.494-5.209-5.208c0-1.715,3.495-5.143,5.209-5.143
			s5.208,3.428,5.208,5.143C229.348,145.823,225.854,149.317,224.139,149.317z M219.26,183.273v-29.868h9.758v29.868H219.26z"/>
	</g>
	<g>
		<path fill="#FFFFFF" d="M254.006,183.273v-18.329c0-2.176-1.45-4.088-4.417-4.088c-2.901,0-4.747,1.846-4.747,4.22v18.197h-9.692
			v-29.868h8.901v4.022h0.066c1.187-3.165,4.286-4.945,9.099-4.945c6.527,0,10.483,3.692,10.483,10.022v20.769H254.006z"/>
	</g>
	<g>
		<path fill="#FFFFFF" d="M282.818,198.504c-8.703,0-14.505-4.945-14.505-11.209c0-4.549,3.033-7.252,6.132-8.043l-3.824-3.824
			c0.264-1.912,1.912-3.561,3.626-4.286c-2.242-1.385-4.352-4.22-4.352-7.978c0-6.33,4.549-10.747,12.329-10.747
			c1.78,0,3.165,0.264,4.418,0.593c1.318,0.33,2.769,0.527,4.286,0.527c1.648,0,3.362-0.396,4.681-0.988l1.78,7.384
			c-0.923,0.528-2.374,0.989-3.692,0.924c0.33,0.593,0.725,1.978,0.725,3.032c0,5.012-3.956,9.231-9.758,9.627
			c-1.187,0.065-1.978,0.329-1.978,1.12c0,0.33,0.264,0.726,0.791,0.924l4.615,1.648c5.868,2.109,9.033,5.076,9.033,10.549
			C297.125,193.889,291.521,198.504,282.818,198.504z M284.862,184.46l-3.561-0.988c-2.308,0.065-4.022,1.714-4.022,3.89
			c0,2.044,1.78,3.758,5.275,3.758c3.428,0,5.274-1.582,5.274-3.296C287.829,186.438,286.774,184.987,284.862,184.46z
			 M282.225,159.472c-2.176,0-3.824,1.648-3.824,3.561c0,1.978,1.648,3.561,3.824,3.561c2.11,0,3.824-1.583,3.824-3.561
			C286.049,161.12,284.466,159.472,282.225,159.472z"/>
	</g>
	<g>
		<path fill="#FFFFFF" d="M330.816,183.273h-14.175v-42.065h14.175c12.066,0,22.55,7.912,22.55,21.033
			C353.366,175.296,342.949,183.273,330.816,183.273z M329.828,149.582h-3.297v25.384h3.297c7.252,0,13.252-4.22,13.252-12.659
			S337.146,149.582,329.828,149.582z"/>
	</g>
	<g>
		<path fill="#FFFFFF" d="M373.541,184.196c-9.033,0-16.285-6.396-16.285-15.89s7.252-15.89,16.285-15.89
			c8.967,0,16.286,6.396,16.286,15.89S382.508,184.196,373.541,184.196z M373.541,160.856c-3.626,0-6.725,3.164-6.725,7.582
			s3.099,7.582,6.725,7.582c3.561,0,6.726-3.164,6.726-7.582S377.102,160.856,373.541,160.856z"/>
	</g>
	<g>
		<path fill="#FFFFFF" d="M409.672,184.196c-9.032,0-16.285-6.396-16.285-15.89s7.253-15.89,16.285-15.89
			c8.967,0,16.286,6.396,16.286,15.89S418.639,184.196,409.672,184.196z M409.672,160.856c-3.626,0-6.725,3.164-6.725,7.582
			s3.099,7.582,6.725,7.582c3.561,0,6.726-3.164,6.726-7.582S413.232,160.856,409.672,160.856z"/>
	</g>
	<g>
		<path fill="#FFFFFF" d="M449.165,163.691c-0.594-0.33-1.912-0.726-2.901-0.726c-3.099,0-5.935,1.648-5.935,6.396v13.912h-9.691
			v-29.868h9.56v6.659h0.066c0.989-4.681,4.483-7.187,8.505-7.187c0.924,0,2.044,0.132,2.77,0.396L449.165,163.691z"/>
	</g>
	<g>
		<path fill="#FFFFFF" d="M464.527,183.933c-4.088,0-7.055-0.857-9.494-2.109l-0.857-8.571c2.638,1.846,6.065,3.23,9.362,3.23
			c1.78,0,2.901-0.923,2.901-2.044c0-1.253-0.989-1.78-2.703-2.308c-5.736-1.648-9.165-4.55-9.165-9.758
			c0-5.868,4.747-9.627,11.209-9.627c3.692,0,7.318,0.989,8.835,1.78l-1.648,7.121c-1.45-0.791-3.824-1.648-6.197-1.648
			c-1.583,0-2.638,0.726-2.638,1.912c0,1.121,0.791,1.714,2.638,2.176c6.725,1.78,9.494,5.143,9.494,10.153
			C476.264,179.317,472.571,183.933,464.527,183.933z"/>
	</g>
</g>
<g enable-background="new    ">
	<g>
		<path fill="#FFFFFF" d="M90.024,264.173l-3.722-8.9H72.925l-3.722,8.9h-5.125l14.672-34.899h1.888l14.672,34.899H90.024z
			 M81.124,242.705c-0.486-1.133-1.025-2.751-1.457-4.208H79.56c-0.377,1.457-0.971,3.075-1.457,4.208l-3.398,8.414h9.817
			L81.124,242.705z"/>
	</g>
	<g>
		<path fill="#FFFFFF" d="M123.46,264.173h-11.166v-34.414h9.602c4.585,0,9.655,2.967,9.655,9.009c0,2.535-1.187,5.178-3.183,6.041
			c3.183,0.917,6.365,4.477,6.365,8.9C134.733,260.828,128.8,264.173,123.46,264.173z M121.033,234.074h-3.775v9.278h3.775
			c2.859,0,5.34-1.349,5.34-4.585C126.373,235.477,123.892,234.074,121.033,234.074z M122.381,247.56h-5.124v12.298h5.124
			c3.668,0,7.12-1.888,7.12-6.148C129.501,249.555,126.049,247.56,122.381,247.56z"/>
	</g>
	<g>
		<path fill="#FFFFFF" d="M153.07,244.862c-0.432-0.107-1.079-0.216-1.78-0.216c-3.182,0-6.527,1.511-6.527,7.174v12.353h-4.908
			v-24.435h4.908v4.962h0.054c0.917-3.506,3.668-5.286,7.066-5.286c0.701,0,1.834,0.162,2.374,0.378L153.07,244.862z"/>
	</g>
	<g>
		<path fill="#FFFFFF" d="M160.726,234.991c-0.971,0-2.967-1.995-2.967-2.967c0-1.024,1.996-2.967,2.967-2.967
			c1.024,0,2.966,1.942,2.966,2.967C163.692,232.996,161.75,234.991,160.726,234.991z M158.245,264.173v-24.435h4.962v24.435
			H158.245z"/>
	</g>
	<g>
		<path fill="#FFFFFF" d="M191.092,250.418l-2.751,2.751h-14.726c0.162,3.021,2.967,7.282,8.685,7.282
			c3.128,0,5.394-0.863,7.12-1.996l-0.54,4.747c-1.726,0.917-3.938,1.564-7.228,1.564c-6.958,0-13.107-5.179-13.107-12.784
			c0-8.307,6.473-12.838,12.137-12.838c6.742,0,10.572,4.747,10.572,9.278C191.254,249.178,191.2,249.879,191.092,250.418z
			 M180.951,243.353c-3.074,0-6.365,2.427-7.012,5.825h12.298c0.054-0.216,0.054-0.432,0.054-0.647
			C186.292,246.103,184.188,243.353,180.951,243.353z"/>
	</g>
	<g>
		<path fill="#FFFFFF" d="M212.017,230.676c-1.133-0.485-2.481-0.809-3.56-0.809c-3.83,0-5.718,2.319-5.718,6.742v3.129h7.929
			l-0.971,3.938h-6.958v20.497h-4.908v-20.497h-4.153v-3.938h4.153v-3.398c0-6.904,3.938-10.572,10.302-10.572
			c1.888,0,3.56,0.27,4.855,0.81L212.017,230.676z"/>
	</g>
	<g>
		<path fill="#FFFFFF" d="M240.062,264.658h-1.672l-13.701-34.899h5.502l6.365,16.398c0.917,2.373,1.941,5.286,2.858,8.198h0.108
			c0.917-2.858,1.888-5.718,2.859-8.198l6.365-16.398h4.963L240.062,264.658z"/>
	</g>
	<g>
		<path fill="#FFFFFF" d="M260.716,234.991c-0.971,0-2.967-1.995-2.967-2.967c0-1.024,1.996-2.967,2.967-2.967
			c1.024,0,2.966,1.942,2.966,2.967C263.683,232.996,261.741,234.991,260.716,234.991z M258.235,264.173v-24.435h4.962v24.435
			H258.235z"/>
	</g>
	<g>
		<path fill="#FFFFFF" d="M287.792,264.173v-2.697h-0.054c-1.079,1.564-3.398,3.291-7.39,3.291c-5.394,0-11.813-4.315-11.813-12.784
			c0-7.552,5.34-12.838,12.406-12.838c2.643,0,5.664,1.079,6.581,2.05v-15.427h4.909v38.405H287.792z M287.521,245.995
			c-0.755-0.863-2.805-2.428-6.095-2.428c-4.369,0-7.929,3.398-7.929,8.469c0,5.125,3.56,8.522,7.929,8.522
			c3.129,0,5.125-1.672,6.095-3.128V245.995z"/>
	</g>
	<g>
		<path fill="#FFFFFF" d="M320.098,250.418l-2.751,2.751h-14.726c0.162,3.021,2.967,7.282,8.685,7.282
			c3.128,0,5.394-0.863,7.12-1.996l-0.54,4.747c-1.726,0.917-3.938,1.564-7.228,1.564c-6.958,0-13.107-5.179-13.107-12.784
			c0-8.307,6.473-12.838,12.137-12.838c6.742,0,10.572,4.747,10.572,9.278C320.26,249.178,320.206,249.879,320.098,250.418z
			 M309.957,243.353c-3.074,0-6.365,2.427-7.012,5.825h12.298c0.054-0.216,0.054-0.432,0.054-0.647
			C315.297,246.103,313.193,243.353,309.957,243.353z"/>
	</g>
	<g>
		<path fill="#FFFFFF" d="M337.031,264.767c-7.281,0-13-5.232-13-12.784c0-7.605,5.719-12.838,13-12.838
			c7.282,0,12.945,5.232,12.945,12.838C349.977,259.534,344.313,264.767,337.031,264.767z M337.031,243.567
			c-4.314,0-8.037,3.398-8.037,8.523c0,5.07,3.723,8.468,8.037,8.468c4.262,0,7.983-3.397,7.983-8.468
			C345.015,246.966,341.293,243.567,337.031,243.567z"/>
	</g>
	<g>
		<path fill="#FFFFFF" d="M368.311,264.173v-34.414h5.232v34.414H368.311z"/>
	</g>
	<g>
		<path fill="#FFFFFF" d="M397.005,264.173v-15.696c0-2.535-1.564-5.124-5.664-5.124c-3.938,0-5.879,2.589-5.879,5.124v15.696
			h-4.909v-24.435h4.478v3.183h0.054c1.079-2.158,3.29-3.776,7.552-3.776c5.34,0,9.277,3.398,9.277,8.847v16.182H397.005z"/>
	</g>
	<g>
		<path fill="#FFFFFF" d="M422.839,243.676h-7.768v12.999c0,2.806,1.457,3.776,4.046,3.776c0.863,0,1.618-0.108,2.211-0.324
			l-0.431,3.884c-0.647,0.324-1.727,0.432-2.697,0.432c-4.423,0-7.983-2.535-7.983-7.281v-13.485h-4.801v-3.938h4.801v-4.963
			l4.854-2.535v7.498h8.631L422.839,243.676z"/>
	</g>
	<g>
		<path fill="#FFFFFF" d="M440.42,244.862c-0.432-0.107-1.078-0.216-1.779-0.216c-3.183,0-6.527,1.511-6.527,7.174v12.353h-4.908
			v-24.435h4.908v4.962h0.054c0.917-3.506,3.668-5.286,7.066-5.286c0.701,0,1.834,0.162,2.373,0.378L440.42,244.862z"/>
	</g>
	<g>
		<path fill="#FFFFFF" d="M454.872,264.767c-7.282,0-13-5.232-13-12.784c0-7.605,5.718-12.838,13-12.838
			c7.281,0,12.945,5.232,12.945,12.838C467.817,259.534,462.153,264.767,454.872,264.767z M454.872,243.567
			c-4.315,0-8.037,3.398-8.037,8.523c0,5.07,3.722,8.468,8.037,8.468c4.261,0,7.982-3.397,7.982-8.468
			C462.854,246.966,459.133,243.567,454.872,243.567z"/>
	</g>
</g>
<g>
	<g opacity="0.5" enable-background="new    ">
		<rect x="101" y="413" fill="#FFFFFF" width="18" height="26"/>
	</g>
	<g>
		<polygon fill="#FFFFFF" points="63,441.925 87.324,424 63,406.075 		"/>
	</g>
	<g>
		<path fill="#FFFFFF" d="M577,440H100v-29h477V440z M103,437h471v-23H103V437z"/>
	</g>
</g>
</svg>
