<?xml version="1.0" encoding="utf-8"?>
<!-- Generator: Adobe Illustrator 16.0.0, SVG Export Plug-In . SVG Version: 6.00 Build 0)  -->
<!DOCTYPE svg PUBLIC "-//W3C//DTD SVG 1.1//EN" "http://www.w3.org/Graphics/SVG/1.1/DTD/svg11.dtd">
<svg version="1.1" id="Layer_1" xmlns="http://www.w3.org/2000/svg" xmlns:xlink="http://www.w3.org/1999/xlink" x="0px" y="0px"
	 width="490.608px" height="117.89px" viewBox="190.521 66.642 490.608 117.89"
	 enable-background="new 190.521 66.642 490.608 117.89" xml:space="preserve">
<g>
	<path fill="#80297F" d="M369.343,118.21l-2.386-6.48h-9.133l-2.386,6.48h-6.569l11.295-28.936h4.814l11.294,28.936H369.343z
		 M363.268,100.976c-0.27-0.766-0.63-1.711-0.855-2.655h-0.09c-0.225,0.944-0.539,1.937-0.81,2.655l-1.935,5.31h5.625
		L363.268,100.976z"/>
	<path fill="#80297F" d="M388.692,118.794c-4.319,0-7.829-1.484-9.81-3.016V86.171h6.39v12.375c0.854-0.678,3.015-1.352,5.13-1.352
		c5.625,0,10.26,4.004,10.26,10.438C400.662,113.935,396.656,118.794,388.692,118.794z M389.231,102.999
		c-1.89,0-3.329,0.898-3.959,1.574v7.785c0.675,0.494,2.07,0.989,3.33,0.989c3.375,0,5.49-2.295,5.49-5.266
		C394.092,105.249,392.111,102.999,389.231,102.999z"/>
	<path fill="#80297F" d="M416.502,104.845c-0.405-0.227-1.305-0.494-1.98-0.494c-2.115,0-4.05,1.125-4.05,4.364v9.493h-6.614V97.823
		h6.525v4.545h0.045c0.675-3.193,3.061-4.902,5.805-4.902c0.631,0,1.395,0.09,1.891,0.271L416.502,104.845z"/>
	<path fill="#80297F" d="M423.882,95.034c-1.171,0-3.556-2.385-3.556-3.556c0-1.17,2.385-3.51,3.556-3.51
		c1.17,0,3.555,2.34,3.555,3.51C427.437,92.651,425.052,95.034,423.882,95.034z M420.553,118.21V97.823h6.66v20.387H420.553z"/>
	<path fill="#80297F" d="M450.16,106.868l-2.924,2.972h-9.99c0.314,1.665,2.564,3.555,6.029,3.555c2.115,0,4.275-0.63,5.625-1.529
		l-0.63,5.67c-1.53,0.812-3.87,1.351-6.479,1.351c-6.209,0-11.205-4.318-11.205-10.979c0-6.569,4.771-10.756,10.621-10.756
		c5.67,0,9.135,3.915,9.135,8.146C450.341,105.788,450.25,106.465,450.16,106.868z M441.205,102.101
		c-1.935,0-3.555,1.484-3.959,3.33h6.885c0-0.136,0.045-0.271,0.045-0.451C444.176,103.585,442.961,102.101,441.205,102.101z"/>
	<path fill="#80297F" d="M466.315,118.21v-12.512c0-1.483-0.99-2.789-3.015-2.789c-1.979,0-3.24,1.261-3.24,2.879v12.422h-6.615
		V97.823h6.075v2.746h0.045c0.81-2.16,2.926-3.375,6.21-3.375c4.455,0,7.155,2.521,7.155,6.84v14.176H466.315L466.315,118.21z"/>
	<path fill="#80297F" d="M492.28,118.21v-2.521h-0.046c-1.125,2.069-3.465,3.104-6.3,3.104c-4.995,0-9.811-3.779-9.811-10.755
		c0-6.569,4.681-10.846,10.351-10.846c2.16,0,4.365,0.721,5.175,1.396v-12.42h6.436v32.038L492.28,118.21L492.28,118.21z
		 M491.649,104.845c-0.63-0.854-1.98-1.846-4.005-1.846c-2.88,0-4.905,2.25-4.905,5.176c0,2.925,2.025,5.175,4.905,5.175
		c1.935,0,3.285-1.033,4.005-2.113V104.845z"/>
	<path fill="#80297F" d="M512.53,118.839c-6.164,0-11.115-4.364-11.115-10.846c0-6.479,4.951-10.844,11.115-10.844
		c6.119,0,11.114,4.363,11.114,10.844C523.645,114.475,518.649,118.839,512.53,118.839z M512.53,102.909
		c-2.475,0-4.59,2.158-4.59,5.176c0,3.015,2.115,5.175,4.59,5.175c2.43,0,4.59-2.16,4.59-5.175
		C517.12,105.07,514.96,102.909,512.53,102.909z"/>
	<path fill="#80297F" d="M548.305,106.913h-4.229v11.296h-6.705V89.5h10.937c4.903,0,9.271,3.284,9.271,8.685
		C557.575,103.585,553.255,106.913,548.305,106.913z M547.315,95.124h-3.24v6.436h3.24c1.799,0,3.555-0.989,3.555-3.194
		C550.87,96.204,549.114,95.124,547.315,95.124z"/>
	<path fill="#80297F" d="M574.225,118.21v-2.791h-0.046c-0.809,2.158-2.969,3.375-6.254,3.375c-4.455,0-7.154-2.477-7.154-6.797
		V97.823h6.614v12.512c0,1.482,1.034,2.787,3.06,2.787c1.98,0,3.195-1.305,3.195-2.924V97.823h6.614v20.387H574.225L574.225,118.21z
		"/>
	<path fill="#80297F" d="M602.979,106.868l-2.925,2.972h-9.989c0.313,1.665,2.563,3.555,6.029,3.555c2.114,0,4.274-0.63,5.625-1.529
		l-0.63,5.67c-1.53,0.812-3.87,1.351-6.48,1.351c-6.209,0-11.203-4.318-11.203-10.979c0-6.569,4.771-10.756,10.618-10.756
		c5.67,0,9.136,3.915,9.136,8.146C603.159,105.788,603.068,106.465,602.979,106.868z M594.023,102.101
		c-1.935,0-3.555,1.484-3.959,3.33h6.886c0-0.136,0.045-0.271,0.045-0.451C596.995,103.585,595.78,102.101,594.023,102.101z"/>
	<path fill="#80297F" d="M618.909,104.845c-0.403-0.227-1.306-0.494-1.979-0.494c-2.115,0-4.05,1.125-4.05,4.364v9.493h-6.615
		V97.823h6.524v4.545h0.045c0.676-3.193,3.061-4.902,5.806-4.902c0.63,0,1.396,0.09,1.892,0.271L618.909,104.845z"/>
	<path fill="#80297F" d="M636.809,103.226h-5.31v7.56c0,1.756,0.943,2.477,2.699,2.477c0.766,0,1.215-0.045,1.711-0.271
		l-0.586,4.994c-0.631,0.315-1.756,0.541-3.062,0.541c-4.59,0-7.334-2.431-7.334-6.479v-8.819h-3.42v-5.4h3.42v-4.363l6.567-2.387
		v6.75h6.569L636.809,103.226z"/>
	<path fill="#80297F" d="M654.663,119.11c-1.215-0.271-2.609-1.215-3.149-2.699c-0.899,1.666-2.835,2.476-5.31,2.476
		c-3.602,0-6.795-2.521-6.795-6.749c0-3.735,2.924-6.255,6.975-6.659l4.05-0.406v-0.676c0-1.215-0.989-2.024-3.194-2.024
		c-1.979,0-4.186,0.631-5.67,1.574l-1.17-4.994c1.665-1.08,4.454-1.801,7.154-1.801c5.4,0,9.225,2.477,9.225,7.381v6.66
		c0,2.385,0.9,3.646,2.475,4.229L654.663,119.11z M650.434,109.3l-2.476,0.226c-1.709,0.135-2.476,1.35-2.476,2.564
		c0,1.08,0.812,1.979,2.069,1.979c1.574,0,2.88-1.215,2.88-2.97L650.434,109.3L650.434,109.3z"/>
	<path fill="#80297F" d="M668.118,118.657c-2.789,0-4.812-0.584-6.479-1.438l-0.585-5.852c1.8,1.262,4.14,2.205,6.39,2.205
		c1.215,0,1.979-0.631,1.979-1.396c0-0.854-0.675-1.215-1.845-1.575c-3.916-1.125-6.256-3.104-6.256-6.66
		c0-4.004,3.239-6.567,7.648-6.567c2.521,0,4.995,0.675,6.029,1.216l-1.125,4.857c-0.989-0.539-2.609-1.125-4.229-1.125
		c-1.08,0-1.8,0.496-1.8,1.307c0,0.766,0.539,1.17,1.8,1.484c4.592,1.215,6.479,3.511,6.479,6.931
		C676.128,115.51,673.608,118.657,668.118,118.657z"/>
	<path fill="#D9272E" d="M388.164,162.884c-7.92,0-15.479-5.807-15.479-15.074c0-9.18,7.516-15.028,15.479-15.028
		c7.92,0,15.435,5.806,15.435,15.028S396.13,162.884,388.164,162.884z M388.164,139.034c-4.319,0-8.369,3.512-8.369,8.863
		c0,5.355,4.05,8.865,8.369,8.865c4.275,0,8.371-3.51,8.371-8.865C396.535,142.546,392.439,139.034,388.164,139.034z"/>
	<path fill="#D9272E" d="M418.63,162.794c-2.16,0-4.365-0.676-5.175-1.352v11.16h-6.436v-30.779h5.805v2.521h0.045
		c1.125-2.069,3.465-3.104,6.301-3.104c4.994,0,9.81,3.78,9.81,10.756C428.979,158.565,424.3,162.794,418.63,162.794z
		 M417.459,146.999c-1.935,0-3.284,1.035-4.004,2.115v6.391c0.629,0.854,1.979,1.8,4.004,1.8c2.881,0,4.906-2.205,4.906-5.13
		C422.365,149.249,420.34,146.999,417.459,146.999z"/>
	<path fill="#D9272E" d="M450.938,150.868l-2.925,2.972h-9.99c0.315,1.665,2.565,3.555,6.03,3.555c2.114,0,4.274-0.63,5.625-1.529
		l-0.63,5.67c-1.53,0.812-3.87,1.351-6.479,1.351c-6.211,0-11.205-4.318-11.205-10.979c0-6.569,4.77-10.756,10.619-10.756
		c5.67,0,9.135,3.916,9.135,8.146C451.119,149.788,451.029,150.465,450.938,150.868z M441.984,146.101
		c-1.935,0-3.555,1.484-3.96,3.33h6.886c0-0.136,0.045-0.271,0.045-0.451C444.953,147.585,443.74,146.101,441.984,146.101z"/>
	<path fill="#D9272E" d="M467.094,162.21v-12.512c0-1.483-0.99-2.789-3.015-2.789c-1.98,0-3.24,1.261-3.24,2.879v12.422h-6.615
		v-20.387h6.075v2.746h0.045c0.81-2.16,2.925-3.375,6.21-3.375c4.455,0,7.154,2.521,7.154,6.84v14.175L467.094,162.21
		L467.094,162.21z"/>
	<path fill="#D9272E" d="M481.224,139.034c-1.17,0-3.555-2.385-3.555-3.556c0-1.17,2.385-3.51,3.555-3.51s3.555,2.34,3.555,3.51
		C484.778,136.651,482.394,139.034,481.224,139.034z M477.894,162.21v-20.387h6.66v20.387H477.894z"/>
	<path fill="#D9272E" d="M501.607,162.21v-12.512c0-1.483-0.989-2.789-3.015-2.789c-1.98,0-3.24,1.261-3.24,2.879v12.422h-6.615
		v-20.387h6.075v2.746h0.045c0.81-2.16,2.925-3.375,6.21-3.375c4.455,0,7.155,2.521,7.155,6.84v14.175L501.607,162.21
		L501.607,162.21z"/>
	<path fill="#D9272E" d="M521.272,172.605c-5.939,0-9.898-3.375-9.898-7.649c0-3.104,2.068-4.948,4.185-5.489l-2.608-2.609
		c0.18-1.305,1.305-2.43,2.475-2.925c-1.529-0.944-2.971-2.88-2.971-5.444c0-4.319,3.104-7.334,8.416-7.334
		c1.215,0,2.16,0.18,3.016,0.404c0.898,0.225,1.89,0.358,2.925,0.358c1.125,0,2.295-0.271,3.195-0.676l1.215,5.041
		c-0.631,0.358-1.621,0.674-2.521,0.629c0.227,0.406,0.494,1.353,0.494,2.07c0,3.42-2.697,6.301-6.658,6.569
		c-0.812,0.045-1.352,0.226-1.352,0.767c0,0.225,0.182,0.493,0.54,0.629l3.147,1.125c4.006,1.439,6.166,3.465,6.166,7.199
		C531.036,169.454,527.212,172.605,521.272,172.605z M522.667,163.02l-2.43-0.675c-1.574,0.045-2.744,1.17-2.744,2.652
		c0,1.396,1.215,2.565,3.6,2.565c2.34,0,3.6-1.08,3.6-2.25C524.692,164.368,523.973,163.38,522.667,163.02z M520.868,145.966
		c-1.483,0-2.608,1.124-2.608,2.43c0,1.351,1.125,2.431,2.608,2.431c1.439,0,2.609-1.08,2.609-2.431
		C523.478,147.09,522.397,145.966,520.868,145.966z"/>
	<path fill="#D9272E" d="M554.032,162.21h-9.675v-28.709h9.675c8.234,0,15.391,5.398,15.391,14.354
		C569.421,156.765,562.312,162.21,554.032,162.21z M553.356,139.216h-2.249v17.322h2.249c4.951,0,9.045-2.881,9.045-8.641
		S558.353,139.216,553.356,139.216z"/>
	<path fill="#D9272E" d="M583.191,162.839c-6.165,0-11.114-4.364-11.114-10.846c0-6.479,4.949-10.844,11.114-10.844
		c6.12,0,11.115,4.363,11.115,10.844C594.307,158.475,589.312,162.839,583.191,162.839z M583.191,146.909
		c-2.475,0-4.59,2.158-4.59,5.174c0,3.017,2.115,5.177,4.59,5.177c2.431,0,4.591-2.16,4.591-5.177
		C587.782,149.071,585.622,146.909,583.191,146.909z"/>
	<path fill="#D9272E" d="M607.851,162.839c-6.164,0-11.113-4.364-11.113-10.846c0-6.479,4.949-10.844,11.113-10.844
		c6.12,0,11.115,4.363,11.115,10.844C618.966,158.475,613.971,162.839,607.851,162.839z M607.851,146.909
		c-2.475,0-4.59,2.158-4.59,5.174c0,3.017,2.115,5.177,4.59,5.177c2.432,0,4.59-2.16,4.59-5.177
		C612.44,149.071,610.282,146.909,607.851,146.909z"/>
	<path fill="#D9272E" d="M634.805,148.845c-0.404-0.227-1.306-0.494-1.979-0.494c-2.115,0-4.05,1.125-4.05,4.364v9.495h-6.614
		v-20.387h6.524v4.545h0.045c0.675-3.193,3.06-4.902,5.806-4.902c0.629,0,1.396,0.09,1.891,0.271L634.805,148.845z"/>
	<path fill="#D9272E" d="M645.29,162.657c-2.791,0-4.814-0.584-6.479-1.438l-0.585-5.852c1.8,1.262,4.141,2.205,6.391,2.205
		c1.215,0,1.979-0.631,1.979-1.396c0-0.854-0.675-1.215-1.847-1.575c-3.914-1.125-6.254-3.104-6.254-6.66
		c0-4.004,3.239-6.568,7.648-6.568c2.521,0,4.995,0.676,6.03,1.217l-1.125,4.857c-0.99-0.539-2.61-1.125-4.229-1.125
		c-1.08,0-1.8,0.496-1.8,1.307c0,0.766,0.539,1.17,1.8,1.484c4.59,1.215,6.479,3.51,6.479,6.931
		C653.3,159.51,650.78,162.657,645.29,162.657z"/>
</g>
<g>
	<ellipse fill="#80297F" cx="302.471" cy="127.947" rx="3.581" ry="3.48"/>
	<rect x="198.619" y="77.035" opacity="0.8" fill="#5BB3CF" enable-background="new    " width="62.275" height="88.733"/>
	<path fill="#258691" stroke="#FFFFFF" stroke-width="1.62" stroke-miterlimit="10" d="M262.581,164.752h-68.326
		c0,0,14.145-11.246,33.436-17.225c20.149-6.243,34.287-4.306,34.287-4.306L262.581,164.752z"/>
	<path fill="#258691" stroke="#FFFFFF" stroke-width="1.62" stroke-miterlimit="10" d="M192.086,165.253h66.704
		c0,0-14.072-11.482-33.437-17.225c-18.3-5.427-32.123-4.306-32.123-4.306L192.086,165.253z"/>
	<path fill="#EB8C23" stroke="#FFFFFF" stroke-width="1.62" stroke-miterlimit="10" d="M225.162,147.944c0,0,4.049,1.44,4.771,3.69
		c0.757,2.363-0.491,4.577-7.177,5.791c-17.662,3.208-21.359,7.996-21.359,7.996h59.572c0,0-2.959-7.758-13.219-12.438
		C236.347,147.781,225.162,147.944,225.162,147.944z"/>
	<polygon fill="none" points="198.08,76.135 198.08,165.769 199.699,165.769 199.699,77.215 259.635,77.215 259.635,165.769 
		261.795,165.769 261.795,76.135 	"/>
	<g>
		<polygon fill="#80297F" points="260.715,166.848 260.715,77.215 199.159,77.215 199.159,166.848 191.601,166.848 191.601,69.656 
			268.274,69.656 268.274,166.848 		"/>
		<path fill="#FFFFFF" d="M267.194,70.736v95.033h-5.399V76.135h-63.716v89.634h-5.399V70.736H267.194 M269.354,68.576h-2.159
			h-74.514h-2.16v2.16v95.033v2.158h2.16h5.399h2.159v-2.158V78.296h59.396v87.473v2.16h2.16h5.399h2.159v-2.16V70.736V68.576
			L269.354,68.576z"/>
	</g>
	<g>
		<g>
			<path fill="#FAE30A" d="M231.52,94.395c2.27,0.405,4.286-9.293,1.766-10.333c-0.223-0.069-0.352-0.174-0.757,0
				C230.977,84.415,229.058,93.955,231.52,94.395z"/>
		</g>
		<g>
			<path fill="#FAE30A" d="M221.441,94.647c2.178-1.094-2.699-10.323-4.536-9.577c-0.687,0.289-0.339,1.409-0.281,2.223
				C216.871,90.816,219.674,95.242,221.441,94.647z"/>
		</g>
		<g>
			<path fill="#FAE30A" d="M247.433,95.29c0.418-0.457,1.023-1.025,0.973-1.399c-0.063-0.166-0.249-0.503-0.418-0.691
				c-0.476-0.532-0.976-0.771-1.667-0.385c-0.391,0.278-0.977,0.67-2.242,1.435c-1.938,1.197-4.527,2.351-3.486,4.177
				C241.846,99.748,245.779,97.093,247.433,95.29z"/>
		</g>
		<g>
			<path fill="#FAE30A" d="M216.401,99.938c0.714-2.314-4.327-5.25-7.21-6.051c-0.95-0.266-1.666-0.297-1.862,0.003
				c-0.472,0.687,0.438,1.584,1.202,2.427C210.705,98.716,215.171,101.011,216.401,99.938z"/>
		</g>
		<g>
			<path fill="#FAE30A" d="M254.958,105.231c-0.299-2.049-6.37-0.899-9.315,0.529c-0.443,0.237-1.237,0.588-1.27,0.983
				c0.054,1.524,0.924,1.785,2.84,1.657C249.564,108.092,255.305,106.657,254.958,105.231z"/>
		</g>
		<g>
			<path fill="#FAE30A" d="M214.637,106.995c0.015-2.908-8.565-2.539-10.08-0.252v0.504
				C205.336,108.963,214.391,109.486,214.637,106.995z"/>
		</g>
		<g>
			<path fill="#FAE30A" d="M249.16,115.562c-1.859-1.276-3.699-2.972-6.127-2.769c-0.521,0.783-0.843,1.092-0.678,2.013
				c2.572,1.992,8.775,5.735,9.325,4.788C253.22,117.407,250.565,116.527,249.16,115.562z"/>
		</g>
		<g>
			<path fill="#FAE30A" d="M209.523,118.745c-0.275,0.449-0.709,0.748-0.432,1.353c0.329,0.545,1.278,0.202,1.924-0.02
				c2.443-1.051,5.826-2.587,4.881-4.264C214.736,113.913,211.138,116.666,209.523,118.745z"/>
		</g>
		<g>
			<path fill="#FAE30A" d="M236.764,119.846c-0.608,0.696-0.324,1.335,0.144,2.591c1.092,2.92,3.688,6.986,5.197,6.734
				c0.632-0.191,1.173-0.476,1.26-1.259c-0.172-1.038-1.151-2.91-1.637-4.147C240.489,120.61,238.681,117.582,236.764,119.846z"/>
		</g>
		<g>
			<path fill="#FAE30A" d="M230.514,122.115c-2.14,0.066-2.206,5.418-1.281,8.455c0.211,0.692,0.383,1.439,0.829,1.639
				c0.495,0.081,0.841-0.208,1.149-0.714C232.611,129.19,232.142,122.111,230.514,122.115z"/>
		</g>
		<g>
			<path fill="#FAE30A" d="M240.225,114.057c1.952-2.742,3.245-7.27,1.377-11.85c-5.581-10.811-24.902,1.491-14.869,10.836
				c3.34,2.065,6.441-0.1,7.692-2.352c1.551-2.795,1.033-6.777-2.273-6.603c-0.702,0.063-2.09,0.086-2.647,1.143
				c-0.922,2.079,2.647,2.426,0.252,3.528c-0.913-0.145-1.797-1.362-1.821-2.235c-0.92-4.091,8.892-8.656,10.39-2.05
				c1.287,5.672-4.682,10.847-9.071,11.34c-10.669,1.198-10.179-10.05-5.292-14.364c3.761-3.319,4.284-3.449,3.528-5.796
				c-1.432-4.016-7.895,2.226-10.345,7.048c-3.941,7.755,2.189,17.674,10.838,17.107
				C232.602,119.506,237.53,117.843,240.225,114.057z"/>
		</g>
		<g>
			<path fill="#FAE30A" d="M222.951,120.602c-2.467-0.235-6.037,7.949-4.786,9.072C220.138,130.38,225.883,121.76,222.951,120.602z"
				/>
		</g>
	</g>
	<g>
		<polygon fill="#EB8C23" points="260.984,166.282 260.984,77.315 297.145,67.696 297.145,183.257 		"/>
		<path fill="#FFFFFF" d="M296.335,68.749v113.232l-34.54-16.213V77.937L296.335,68.749 M297.955,66.642l-2.038,0.542l-34.539,9.189
			l-1.203,0.32v1.245v87.832v1.029l0.931,0.436l34.539,16.215l2.308,1.083v-2.55V68.749v-2.107H297.955z"/>
	</g>
	<rect x="298.315" y="68.749" fill="#D9272E" width="4.154" height="113.574"/>
	<ellipse fill="#80297F" cx="289.332" cy="128.152" rx="3.792" ry="3.685"/>
</g>
</svg>
